<svg width="251" height="232" viewBox="0 0 251 232" fill="none" xmlns="http://www.w3.org/2000/svg">
<path d="M179.383 54.3733C179.383 84.3899 155.046 108.747 125.029 108.747C94.9935 108.747 70.6557 84.4088 70.6557 54.3733C70.6557 24.3378 94.9935 0 125.029 0C155.046 0 179.383 24.3378 179.383 54.3733ZM54.3928 122.33C24.3762 122.33 0.0195312 146.668 0.0195312 176.685C0.0195312 206.702 24.3573 231.058 54.3928 231.058C84.4282 231.058 108.766 206.72 108.766 176.685C108.766 146.668 84.4282 122.33 54.3928 122.33ZM195.646 122.33C165.611 122.33 141.273 146.668 141.273 176.704C141.273 206.739 165.611 231.077 195.646 231.077C225.663 231.077 250.02 206.739 250.02 176.704C250.02 146.668 225.682 122.33 195.646 122.33Z" fill="#F06A6A"/>
</svg>
