<svg width="26" height="26" viewBox="0 0 26 26" fill="none" xmlns="http://www.w3.org/2000/svg">
<g clip-path="url(#clip0_1201_15928)">
<path fill-rule="evenodd" clip-rule="evenodd" d="M22.288 0.8125H3.71201C2.94321 0.81356 2.2062 1.11943 1.66257 1.66306C1.11894 2.20669 0.813072 2.9437 0.812012 3.7125V22.2885C0.813072 23.0573 1.11894 23.7943 1.66257 24.338C2.2062 24.8816 2.94321 25.1875 3.71201 25.1885H22.288C23.0568 25.1875 23.7938 24.8816 24.3375 24.338C24.8811 23.7943 25.187 23.0573 25.188 22.2885V3.7125C25.187 2.9437 24.8811 2.20669 24.3375 1.66306C23.7938 1.11943 23.0568 0.81356 22.288 0.8125ZM11.312 18.3685C11.312 18.6242 11.2104 18.8694 11.0297 19.0502C10.8489 19.2309 10.6037 19.3325 10.348 19.3325H6.27601C6.02034 19.3325 5.77515 19.2309 5.59436 19.0502C5.41358 18.8694 5.31201 18.6242 5.31201 18.3685V6.2765C5.31201 6.02083 5.41358 5.77564 5.59436 5.59485C5.77515 5.41407 6.02034 5.3125 6.27601 5.3125H10.348C10.6037 5.3125 10.8489 5.41407 11.0297 5.59485C11.2104 5.77564 11.312 6.02083 11.312 6.2765V18.3685ZM20.688 12.8165C20.6907 12.9448 20.6677 13.0723 20.6205 13.1916C20.5732 13.3108 20.5026 13.4195 20.4128 13.5111C20.323 13.6028 20.2159 13.6756 20.0976 13.7253C19.9793 13.775 19.8523 13.8005 19.724 13.8005H15.652C15.3963 13.8005 15.1511 13.6989 14.9704 13.5182C14.7896 13.3374 14.688 13.0922 14.688 12.8365V6.2765C14.688 6.02083 14.7896 5.77564 14.9704 5.59485C15.1511 5.41407 15.3963 5.3125 15.652 5.3125H19.724C19.9797 5.3125 20.2249 5.41407 20.4057 5.59485C20.5864 5.77564 20.688 6.02083 20.688 6.2765V12.8165Z" fill="url(#paint0_linear_1201_15928)"/>
</g>
<defs>
<linearGradient id="paint0_linear_1201_15928" x1="13" y1="25.1885" x2="13" y2="0.8125" gradientUnits="userSpaceOnUse">
<stop stop-color="#0052CC"/>
<stop offset="1" stop-color="#2684FF"/>
</linearGradient>
<clipPath id="clip0_1201_15928">
<rect width="26" height="26" fill="white"/>
</clipPath>
</defs>
</svg>
