<svg width="203" height="153" viewBox="0 0 203 153" fill="none" xmlns="http://www.w3.org/2000/svg">
<g clip-path="url(#clip0_1201_15891)">
<path d="M93.71 40.2207V153.081H0.22998L93.71 40.2207Z" fill="#03363D"/>
<path d="M93.71 -0.289062C93.71 12.1072 88.7856 23.9957 80.0201 32.7611C71.2547 41.5266 59.3662 46.4509 46.97 46.4509C34.5738 46.4509 22.6853 41.5266 13.9198 32.7611C5.15436 23.9957 0.22998 12.1072 0.22998 -0.289062H93.71Z" fill="#03363D"/>
<path d="M109.11 112.571V-0.289062H202.6L109.11 112.571Z" fill="#03363D"/>
<path d="M165.75 139.7C165.207 139.671 164.672 139.849 164.255 140.197C163.837 140.546 163.568 141.041 163.5 141.58H167.85C167.819 141.053 167.581 140.56 167.187 140.208C166.794 139.855 166.277 139.673 165.75 139.7Z" fill="#03363D"/>
<path d="M155.85 106.33C143.453 106.333 131.564 111.259 122.799 120.026C114.034 128.793 109.11 140.683 109.11 153.08H202.59C202.591 146.941 201.383 140.862 199.035 135.19C196.687 129.518 193.244 124.365 188.904 120.023C184.563 115.682 179.41 112.238 173.739 109.889C168.068 107.539 161.989 106.33 155.85 106.33Z" fill="#03363D"/>
</g>
<defs>
<clipPath id="clip0_1201_15891">
<rect width="203" height="153" fill="white"/>
</clipPath>
</defs>
</svg>
