<svg width="258" height="182" viewBox="0 0 258 182" fill="none" xmlns="http://www.w3.org/2000/svg">
<path d="M4.60227 113.727V102.102L33.75 56.1818H43.7727V72.2727H37.8409L19.4659 101.352V101.898H60.8864V113.727H4.60227ZM38.1136 126V110.182L38.3864 105.034V56.1818H52.2273V126H38.1136Z" fill="#00349D"/>
<g clip-path="url(#clip0_4490_27270)">
<path fill-rule="evenodd" clip-rule="evenodd" d="M131.158 135.617C134.693 135.617 138.152 135.313 141.506 134.731C140.784 134.439 139.937 134.366 139.008 134.286C136.37 134.059 133.059 133.775 130.009 128.25L129.992 128.219C129.821 127.908 128.735 125.931 128.556 125.944C128.648 128.172 127.364 130.282 124.72 131.109L124.717 131.11L124.713 131.111C124.707 131.113 124.7 131.113 124.694 131.114L124.694 131.115C124.689 131.115 124.685 131.116 124.681 131.117C124.676 131.118 124.673 131.119 124.671 131.122C124.664 131.139 124.761 131.201 125.226 131.496L125.401 131.607C126.878 132.546 127.738 134.026 127.82 135.526C128.924 135.587 130.037 135.617 131.158 135.617ZM145.56 127.868C147.413 128.833 149.537 129.939 151.517 132.074C172.468 124.479 187.316 105.509 187.316 83.3086C187.316 54.4194 162.173 31 131.158 31C100.143 31 75 54.4194 75 83.3086C75 99.0682 82.4822 113.2 94.3183 122.79C93.5494 120.076 93.2396 116.337 95.3498 111.581C86.4051 106.368 89.7321 91.4724 100.19 91.4724C101.855 91.4724 103.26 92.1965 103.084 93.6513C103.029 94.1121 102.746 95.2784 102.428 95.907C102.052 96.6518 101.619 96.7725 101.17 96.8983L101.133 96.9087C98.9389 97.5257 97.7468 98.8217 97.3828 100.026C98.6007 99.9505 99.3358 100.563 99.5179 101.352C99.6833 102.071 99.3932 102.493 99.083 102.944C98.816 103.332 98.534 103.743 98.5149 104.383C98.4865 105.333 98.6775 105.749 99.7876 106.079C102.728 104.023 106.869 102.882 110.715 101.822C114.427 100.8 117.864 99.853 119.677 98.2318C119.676 97.8155 119.779 97.5166 119.883 97.2159L119.883 97.2152C119.911 97.1346 119.939 97.0532 119.965 96.97C108.118 92.7864 101.524 78.2679 108.354 66.0502C112.044 59.4503 120.186 54.609 128.479 54.66C149.745 54.7904 159.484 78.7797 146.383 91.7009C146.835 92.5386 147.158 93.4041 146.872 94.2515C147.463 95.8734 148.081 98.4028 148.45 100.728C149.062 101.442 149.757 102.28 150.455 103.119C151.382 104.236 152.312 105.358 153.055 106.198C161.79 95.2022 170.608 97.627 171.967 101.762L171.963 101.761C172.463 103.283 171.836 104.097 171.263 104.842H171.262L171.262 104.843C171.126 105.02 170.994 105.192 170.88 105.369C170.612 105.784 170.286 106.288 169.779 106.711C169.058 109.06 166.632 109.641 164.231 108.364C163.34 109.401 162.337 110.654 161.868 112.135C160.601 116.143 158.224 117.797 154.549 117.797C152.594 117.797 149.659 117.399 145.892 116.273C143.989 119.617 141.964 121.261 141.041 122.01C140.702 122.286 140.512 122.44 140.531 122.513C141.033 125.511 143.049 126.561 145.56 127.868ZM116.356 133.781C114.136 133.218 111.971 132.53 109.87 131.728C110.115 131.29 110.339 130.885 110.548 130.51L110.551 130.504L110.554 130.498L110.555 130.498C111.704 128.429 112.357 127.255 113.206 126.162C113.501 126.175 113.723 126.182 113.891 126.188C114.296 126.201 114.395 126.204 114.463 126.252C114.486 126.266 114.505 126.286 114.53 126.313C114.575 126.361 114.641 126.429 114.782 126.53C114.986 126.675 115.155 126.852 115.325 127.052C113.787 128.421 113.446 130.49 115.479 132.699C115.801 133.048 116.091 133.41 116.356 133.781ZM119.044 41.832C119.044 44.0942 115.623 44.0942 115.623 41.832C115.623 39.5698 119.044 39.5698 119.044 41.832ZM167.931 85.1616C167.931 87.6128 164.226 87.6128 164.226 85.1616C164.226 82.7103 167.931 82.7103 167.931 85.1616ZM100.514 56.5841C100.514 58.1873 98.0909 58.1873 98.0909 56.5841C98.0909 54.9809 100.514 54.9809 100.514 56.5841ZM176.484 80.956C176.484 82.5592 174.06 82.5592 174.06 80.956C174.06 79.3528 176.484 79.3528 176.484 80.956ZM138.997 43.4713C138.997 45.6398 135.718 45.6398 135.718 43.4713C135.718 41.3027 138.997 41.3027 138.997 43.4713ZM170.71 94.0695C170.71 95.3894 168.716 95.3894 168.716 94.0695C168.716 92.7496 170.71 92.7496 170.71 94.0695ZM82.057 87.0855C82.057 88.4054 80.062 88.4054 80.062 87.0855C80.062 85.7657 82.057 85.7657 82.057 87.0855ZM150.044 125.142C150.044 126.462 148.049 126.462 148.049 125.142C148.049 123.822 150.044 123.822 150.044 125.142ZM103.578 63.4248C103.578 64.7446 101.583 64.7446 101.583 63.4248C101.583 62.1049 103.578 62.1049 103.578 63.4248ZM101.612 80.8263C101.481 79.3225 100.057 78.5551 98.6285 78.4983C97.8903 78.469 97.3155 78.6752 96.8251 78.8511C96.2265 79.0658 95.7539 79.2353 95.264 78.8759C93.3553 77.4762 91.9034 76.5816 90.8222 75.9154C88.925 74.7465 88.1695 74.281 88.0922 73.0246C87.8727 69.4652 83.997 68.3551 83.2412 70.7747C83.0493 71.389 83.1929 71.9667 83.3133 72.4511C83.4945 73.18 83.6232 73.6978 82.4771 73.8114C81.3186 73.9269 79.9548 74.7298 80.0955 75.9812C80.3369 78.133 83.4968 79.0863 85.6002 77.7748L85.6216 77.7613C85.8865 77.5921 85.9593 77.5456 90.9784 80.6869C91.6955 81.1356 92.2113 81.4044 92.5874 81.6004C93.0271 81.8296 93.276 81.9593 93.4329 82.1608C93.6375 82.4239 93.6851 82.8093 93.7946 83.698C93.8073 83.8013 93.8209 83.9114 93.8357 84.0289C94.4165 88.6623 100.276 88.5519 98.5936 84.0611C98.2568 83.1619 98.889 82.9999 99.6605 82.8023C100.543 82.5761 101.607 82.3026 101.612 80.8263ZM159.284 69.7446C146.542 65.4178 150.407 47.5528 164.005 47.6845C168.393 47.3728 176.378 51.7487 175.165 60.6418C174.263 67.2579 166.362 72.1481 159.284 69.7446ZM158.881 63.3538C157.278 63.3538 157.278 60.9303 158.881 60.9303C160.484 60.9303 160.484 63.3538 158.881 63.3538ZM164.297 67.2017C163.071 67.2017 163.071 65.3487 164.297 65.3487C165.523 65.3487 165.523 67.2017 164.297 67.2017ZM165.06 53.4454C165.04 52.0707 167.06 52.1081 167.076 53.4577C167.092 54.7814 165.08 54.8311 165.06 53.4454ZM167.29 65.7773C166.441 65.7773 166.441 64.4949 167.29 64.4949C168.139 64.4949 168.139 65.7773 167.29 65.7773ZM167.995 51.97C167.957 51.0251 169.522 50.8018 169.52 51.9958C169.518 52.953 168.031 52.8884 167.995 51.97Z" fill="#00349D"/>
<path d="M128.471 56.084C145.522 56.2234 156.636 73.6992 147.771 87.5949C145.215 91.6009 144.324 91.013 144.809 91.8216C145.895 93.6327 145.62 93.8495 145.065 94.362C139.736 99.2845 130.147 102.321 121.672 98.9321C121.144 98.7211 120.988 98.3629 121.179 97.8285C122.442 94.2942 119.96 97.5806 113.058 90.8419C106.894 84.8235 104.921 75.1107 109.597 66.7462C113.385 59.9687 121.511 56.0278 128.471 56.0846V56.084ZM123.004 95.8303C124.012 96.2924 134.751 99.2807 144.001 91.0142C144.445 90.618 144.573 90.2036 144.444 89.646C143.999 87.7104 143.319 85.8587 142.53 84.0406C139.622 77.3425 142.4 73.7992 138.451 66.6636C137.713 65.3288 136.668 64.3472 135.099 64.2065C131.781 63.9096 131.248 63.1983 130.043 64.1678C129.246 64.808 128.923 66.1627 129.468 67.1644C130.046 68.2267 129.891 69.2626 129.666 70.3372C129.524 71.0123 128.425 70.3559 125.53 71.426C124.215 71.9127 121.457 64.3517 113.293 70.6283C112.578 71.1776 112.374 71.8701 112.659 72.6975C112.822 73.1712 113.213 73.4784 113.555 73.8134C115.406 75.6251 115.786 73.1222 116.553 74.0051C118.574 76.3324 120.254 80.0332 119.527 82.893C118.95 85.161 116.875 86.8217 116.103 88.3442C115.393 89.7434 116.365 90.3443 117.458 91.8216C119.258 94.2555 122.239 94.2006 124.433 93.0608C125.458 92.5277 123.985 94.99 123.004 95.8303ZM144.007 94.3452C145.106 93.3855 144.926 93.7488 144.379 92.4897C143.749 91.0381 143.293 93.8095 137.219 96.0033C132.889 97.5671 128.09 97.8543 123.623 96.7403C122.347 96.4221 122.269 96.4234 121.91 97.7033C121.322 99.7938 135.337 101.923 144.007 94.3452ZM147.289 76.1827C147.354 68.0428 141.632 62.4936 140.566 64.0374C139.65 65.3637 144.067 67.0185 145.055 76.1124C145.119 76.6965 145.488 81.0743 146.144 81.0627C146.441 81.0575 146.579 80.5709 146.727 80.2546C147.312 79.0032 147.276 77.6672 147.289 76.1827ZM116.993 65.9226C117.846 65.8097 118.854 65.7903 119.776 65.3424C121.445 64.5324 122.615 63.2597 123.313 61.5377C123.771 60.4095 123.659 59.7015 121.69 60.0513C117.779 60.7471 109.571 65.607 116.993 65.9226Z" fill="#00349D"/>
<path d="M93.631 139.025C94.5397 137.082 98.5258 136.52 100.661 136.215C107.163 135.286 107.882 129.953 111.521 125.008C113.619 122.156 114.445 122.344 113.766 121.129C112.496 118.857 106.185 115.972 100.222 117.815C98.3341 118.399 95.7363 120.065 96.2707 121.968C96.8658 124.087 98.0662 125.72 98.2121 127.448C98.4148 129.853 96.1958 129.865 93.8556 131.316C91.5153 132.768 94.4068 133.507 91.9439 138.642C89.0808 144.61 86.3082 144.639 86.6302 147.52C86.7657 148.731 88.0695 148.762 88.4348 147.799C89.2202 145.727 89.5113 147.66 88.8227 148.679C88.7071 148.849 88.3954 148.945 88.6697 149.256C88.9124 149.532 89.1428 149.717 89.5275 149.589C90.2716 149.341 90.1212 148.782 90.1561 148.209C90.1819 147.778 90.615 147.775 90.6944 148.153C90.7976 148.643 90.9416 149.152 90.6285 149.607C90.2368 150.178 91.6909 150.429 92.3808 149.329C93.5361 147.486 92.4124 142.835 96.587 138.56C96.7573 138.386 97.1627 138.101 97.3576 138.316C97.5938 138.576 96.2475 139.74 95.2226 141.608C94.0073 143.823 93.9724 146.234 93.4367 148.629C93.0553 150.334 91.4895 151.288 90.1432 150.414C89.9941 150.317 89.887 150.195 89.6533 150.254C88.2418 150.611 88.3386 149.219 87.579 149.217C86.6767 149.215 86.0429 148.563 85.9409 147.655C85.6382 144.96 87.2872 144.319 89.2667 141.656C90.7983 139.595 92.6926 136.27 92.1601 133.623C91.6522 131.102 93.8156 130.44 96.3772 129.226C100.117 127.454 93.0598 122.519 96.5114 119.182C103.165 112.752 117.702 119.615 114.325 122.86C111.543 125.533 111.112 126.599 108.528 131.213C104.192 138.956 99.0137 135.789 93.631 139.025Z" fill="#B366FF"/>
<path d="M150.899 133.515C146.381 128.204 140.178 128.989 139.145 122.816C138.382 119.955 141.238 115.053 138.277 112.534C134.858 109.625 128.82 110.02 125.874 114.328C124.323 116.595 125.463 118.739 127.077 121.033C131.982 128.004 130.877 127.541 132.942 130.062C135.398 133.058 136.944 132.457 140.725 133.065C144.719 133.708 144.926 137.087 145.193 137.959C145.558 139.147 146.351 139.553 147.436 139.136C147.826 139.511 148.899 139.573 149.351 139.329C150.109 138.92 150.732 137.823 149.963 136.592C149.838 136.395 149.689 136.11 149.429 136.238C149.183 136.358 149.353 136.608 149.508 137.163C149.826 138.3 149.21 139.001 148.041 138.81C148.155 138.598 148.282 138.399 148.377 138.184C148.763 137.305 148.052 136.055 147.749 136.173C147.381 136.316 148.528 138.384 146.957 138.632C144.612 139.001 147.282 132.951 139.793 132.268C136.265 131.945 134.936 132.002 132.651 128.566C131.388 126.67 130.465 124.565 129.095 122.73C126.102 118.723 124.04 115.792 128.127 112.907C130.869 110.971 133.751 110.756 136.694 112.367C141.981 115.259 135.483 120.769 140.19 126.538C143.013 129.996 146.866 129.772 149.94 133.271C151.009 134.487 152.622 136.624 151.821 138.241C151.291 139.307 150.517 138.517 150.328 138.859C150.192 139.106 150.802 139.673 151.539 139.289C153.522 138.255 152.363 135.237 150.898 133.515L150.899 133.515Z" fill="#B366FF"/>
<path d="M95.202 119.703C94.9038 118.241 95.3336 114.418 97.3176 110.814C101.557 103.111 114.475 104.136 120.543 99.3655C120.687 99.2525 120.878 99.0002 121.062 99.1893C121.28 99.4145 121.011 99.5856 120.858 99.7288C114.94 105.266 101.288 103.21 97.2486 112.541C96.9814 113.159 95.9758 115.684 96.1998 116.318C97.0014 116.041 98.0431 114.431 103.326 113.796C107.424 113.304 113.361 114.189 116.067 117.303C119.553 121.314 116.557 124.544 116.909 122.687C117.384 120.182 116.131 117.37 112.558 115.82C105.301 112.674 95.5589 115.525 95.817 118.618C95.8545 119.067 95.5137 119.334 95.202 119.703Z" fill="#00349D"/>
<path d="M127.267 123.959C126.306 123.327 121.915 121.163 122.837 115.918C123.976 109.444 132.027 106.055 137.842 109.12C143.323 112.01 142.135 117.617 141.315 117.338C141.13 117.275 141.223 117.123 141.244 117.008C141.865 113.666 139.907 110.233 136.242 109.14C128.215 106.747 121.314 113.779 123.985 119.915C125.249 122.817 128.174 123.387 128.507 123.968C128.694 124.293 128.676 124.489 128.267 124.538C123.243 125.145 118.949 124.976 113.899 124.666C113.286 124.629 113.712 123.987 114.151 123.987C114.206 123.987 121.962 124.617 127.267 123.959Z" fill="#00349D"/>
<path d="M168.456 105.234C170.399 102.951 167.103 102.847 167.414 102.126C167.609 101.676 168.041 102.007 168.334 102.133C168.977 102.409 169.496 102.844 169.757 103.565C170.756 102.613 169.161 100.991 167.264 100.543C162.244 99.3566 155.584 105.493 153.309 109.795C152.819 110.721 153.533 111.425 153.048 111.566C152.747 111.653 152.704 111.362 152.613 111.17C152.029 109.936 153.097 109.203 152.684 108.891C151.588 108.062 151.304 107.499 148.461 104.329C148.175 104.011 147.691 103.352 147.982 103.037C148.393 102.595 151.638 107.108 153.205 108.404C155.912 104.349 162.041 98.9603 166.801 99.74C170.351 100.321 171.357 102.687 170.327 103.741C169.696 104.387 169.423 105.312 168.619 105.799C168.472 105.889 168.489 106.051 168.452 106.192C167.966 108.024 166.045 107.881 164.48 106.854C162.565 105.598 161.805 105.886 161.886 105.517C161.926 105.336 162.868 105.086 163.961 105.716C165.49 106.597 166.884 107.509 167.616 106.493C168.682 105.014 165.885 104.012 166.322 103.512C166.668 103.118 168.062 104.359 168.455 105.234L168.456 105.234Z" fill="#B366FF"/>
<path d="M122.001 136.187C123.113 136.592 123.156 137.826 123.233 137.98C123.358 138.234 123.035 138.707 123.437 138.749C123.993 138.807 124.688 137.984 124.605 137.483C124.408 136.296 123.847 135.978 124.096 135.772C124.362 135.551 124.819 136.286 124.966 136.619C125.068 136.85 125.139 137.094 125.231 137.35C126.324 136.077 125.924 134.283 124.335 133.327C123.855 133.039 122.312 132.146 121.74 131.339C121.39 130.845 121.713 130.883 121.98 131.045C122.289 131.23 122.919 131.714 124.644 132.809C126.557 134.022 127.153 136.538 125.226 138.063C124.77 138.424 124.437 138.945 123.844 139.133C123.394 139.275 122.973 139.438 122.581 139.739C121.495 140.575 120.568 139.017 120.023 137.759C118.146 133.426 118.173 133.514 116.4 131.587C115.033 130.102 115.203 128.683 116.93 127.641C117.367 127.378 117.336 127.22 117.045 126.888C116.608 126.392 116.255 125.824 115.618 125.367C116.293 125.269 116.778 125.313 117.174 125.792C118.134 126.956 119.318 128.635 118.939 130.115C118.535 129.726 118.414 129.263 118.219 128.841C117.593 127.485 117.787 127.568 116.717 128.529C115.853 129.305 115.795 130.135 116.634 130.943C120.456 134.627 120.609 139.815 122.191 139.292C122.981 139.03 122.649 137.674 122.247 136.961C122.121 136.74 122.003 136.515 122.002 136.187H122.001Z" fill="#B366FF"/>
<path d="M147.396 104.969C147.266 117.441 139.815 121.665 139.415 121.037C138.676 119.879 142.753 120.336 145.376 112.618C148.543 103.296 144.452 95.1148 145.332 94.8231C146.041 94.5881 147.442 100.619 147.396 104.969Z" fill="#00349D"/>
<path d="M97.3201 109.948C97.0239 110.53 96.6083 110.664 96.0726 110.353C92.781 108.442 91.0422 104.446 91.7548 100.437C93.1695 92.4787 101.824 92.1831 101.667 93.483C101.626 93.8257 101.348 93.8076 101.063 93.7773C92.4776 92.8505 88.4561 105.725 97.3195 109.949L97.3201 109.948Z" fill="#B366FF"/>
<path d="M163.278 106.906C162.307 108.145 161.299 109.231 160.516 111.707C159.375 115.317 157.387 116.278 154.966 116.367C152.009 116.476 147.364 115.325 146.408 114.943C146.191 114.855 145.973 114.818 146.09 114.493C146.207 114.167 146.396 114.268 146.623 114.327C157.655 117.209 158.43 115.34 160.305 110.251C160.72 109.125 162.101 106.664 163.278 106.906Z" fill="#B366FF"/>
<path d="M100.629 94.7394C101.28 94.7084 101.44 95.3351 100.758 95.5326C98.1502 96.2871 95.7428 98.293 95.8383 100.951C95.8654 101.714 95.422 101.643 95.2665 100.999C94.5572 98.0562 97.679 95.3248 100.629 94.7394Z" fill="#B366FF"/>
<path d="M119.972 130.848C120.849 129.668 122.922 129.384 123.893 129.132C125.684 128.666 127.059 127.283 126.468 125.5C126.42 125.355 126.319 125.158 126.549 125.071C127.429 124.739 128.273 128.538 124.312 129.742C122.266 130.364 122.562 129.948 120.232 131.105C119.732 131.354 119.687 131.231 119.972 130.848Z" fill="#B366FF"/>
<path d="M99.5449 107.494C98.7033 108.904 95.8674 106.637 96.4586 103.807C96.6115 103.074 97.3015 101.141 97.9611 101.496C98.6258 101.855 97.1504 102.335 97.0885 104.34C97.0349 106.076 97.77 107.008 99.5449 107.494Z" fill="#B366FF"/>
<path d="M131.276 68.6379C130.964 70.3979 130.572 71.3001 131.857 72.3702C133.552 73.7811 133.928 74.0793 134.198 74.6111C133.455 74.8073 131.621 73.0028 131.084 72.4548C129.997 71.346 130.435 69.9926 130.772 68.2848C130.951 67.3813 130.348 67.1625 130.344 65.7981C130.34 64.5873 131.179 63.9832 132.26 64.5092C135.417 66.0459 136.627 62.4348 139.475 71.8288C141.212 77.56 139.231 78.4262 141.408 83.1241C142.567 85.6238 143.444 88.6287 143.731 89.4826C143.835 89.7911 143.724 90.0035 143.419 90.0758C143.096 90.1533 143.132 89.8324 143.084 89.6795C141.042 83.2176 140.246 82.6968 139.815 80.5392C139.121 77.0714 140.21 76.9985 139.039 72.7201C136.45 63.2564 135.56 66.5448 131.928 65.1507C131.442 64.9642 131.049 65.2959 131.076 65.8503C131.147 67.3483 131.632 67.9847 132.436 69.1891C133.596 70.9278 134.664 66.6532 135.466 67.2612C135.712 67.4477 135.499 67.6349 134.325 69.4188C133.579 70.5522 132.542 70.5431 131.817 69.4091C131.661 69.1658 131.571 68.8754 131.276 68.6379Z" fill="#B366FF"/>
<path d="M126.994 88.5289C127.06 90.2489 124.537 93.2404 121.005 92.9945C119.043 92.8577 118.391 91.4733 117.126 90.3535C114.919 88.3998 119.532 86.6953 120.543 82.8402C120.589 82.666 120.612 82.4272 120.871 82.4911C121.083 82.544 121.02 82.7634 121.009 82.9196C120.938 83.92 120.412 84.7377 119.904 85.5535C118.886 87.1864 118.299 87.1993 118.903 87.4168C120.636 88.0416 120.144 89.3931 118.688 90.6284C117.95 91.2552 121.535 93.6929 124.365 91.4217C126.11 90.0211 125.985 89.3014 126.994 88.5282L126.994 88.5289Z" fill="#B366FF"/>
<path d="M120.135 70.6154C118.721 70.8922 117.909 70.7619 116.769 72.2637C115.957 73.3338 115.017 74.2787 114.085 73.4558C111.944 71.5641 114.7 70.243 117.522 69.1516C120.151 68.135 122.048 69.3981 124.144 71.4512C124.282 71.5867 124.558 71.7984 124.38 71.9965C124.187 72.2108 124.003 71.921 123.838 71.8049C120.073 69.1496 119.919 68.1318 114.509 71.2692C113.601 71.7952 113.851 72.4451 114.679 73.0886C115.463 73.6978 116.778 69.7673 119.595 70.3159C119.746 70.3456 119.926 70.445 120.135 70.6154Z" fill="#B366FF"/>
<path d="M134.069 89.488C133.254 89.7907 127.003 91.2345 126.928 90.5194C126.897 90.2186 127.244 90.2522 127.433 90.2147C132.354 89.2331 137.215 89.2131 138.914 82.9339C139.867 79.4093 140.727 87.0161 134.069 89.488Z" fill="#B366FF"/>
<path d="M120.468 79.6175C119.351 77.6026 123.412 71.3492 129.208 71.4021C129.515 71.4047 130.056 71.3176 130.07 71.6745C130.097 72.3864 126.529 71.2621 123.06 74.8499C121.937 76.011 121.187 77.9137 120.468 79.6175Z" fill="#B366FF"/>
<path d="M116.822 73.2073C118.402 73.4733 120.752 77.8085 120.029 78.0466C119.544 78.2067 119.215 75.7503 116.757 73.3881C116.651 73.2867 116.584 73.1667 116.822 73.2073Z" fill="#B366FF"/>
<path d="M124.466 95.5194C124.529 94.903 124.826 94.9075 126.226 91.7979C126.378 91.461 126.484 91.1938 126.837 91.2984C127.532 91.5043 125.379 95.5342 124.466 95.5194Z" fill="#B366FF"/>
<path d="M126.896 79.4704C126.951 79.1547 126.954 78.7197 127.489 78.6959C127.872 78.6784 128.139 79.0812 128.132 79.6343C128.118 80.7444 126.886 80.6534 126.895 79.4704H126.896Z" fill="#B366FF"/>
<path d="M120.345 80.6695C120.496 79.4962 121.592 80.0048 121.533 80.9445C121.466 81.9946 120.334 82.032 120.345 80.6695Z" fill="#B366FF"/>
</g>
<path d="M200.602 113.727V102.102L229.75 56.1818H239.773V72.2727H233.841L215.466 101.352V101.898H256.886V113.727H200.602ZM234.114 126V110.182L234.386 105.034V56.1818H248.227V126H234.114Z" fill="#00349D"/>
<defs>
<clipPath id="clip0_4490_27270">
<rect width="113" height="120" fill="white" transform="translate(75 31)"/>
</clipPath>
</defs>
</svg>
