<svg width="40" height="40" viewBox="0 0 40 40" fill="none" xmlns="http://www.w3.org/2000/svg">
<circle cx="20" cy="20" r="20" fill="#F3F3F3"/>
<path d="M12.5262 18.7925L9.19995 24.4925V14C9.19995 12.6763 10.2762 11.6 11.6 11.6H16.0062C16.6437 11.6 17.255 11.8513 17.705 12.3013L18.6987 13.295C19.1487 13.745 19.76 13.9963 20.3975 13.9963H24.8C26.1237 13.9963 27.1999 15.0725 27.1999 16.3963V17.5963H14.6C13.745 17.5963 12.9575 18.05 12.5262 18.7888V18.7925ZM13.5612 19.3963C13.7787 19.025 14.1725 18.8 14.6 18.8H29.6C30.0312 18.8 30.4249 19.0288 30.6387 19.4038C30.8524 19.7788 30.8524 20.2363 30.6349 20.6075L26.4349 27.8075C26.2212 28.175 25.8274 28.4 25.4 28.4H10.4C9.9687 28.4 9.57495 28.1713 9.3612 27.7963C9.14745 27.4213 9.14745 26.9638 9.36495 26.5925L13.565 19.3925L13.5612 19.3963Z" fill="#2D608D"/>
</svg>
