<svg width="50" height="45" viewBox="0 0 50 45" fill="none" xmlns="http://www.w3.org/2000/svg">
<path opacity="0.4" d="M0 2.77778V11.1111V33.3333C0 36.3976 2.49132 38.8889 5.55556 38.8889H25V33.3333H5.55556V13.8889H25V8.33333H5.55556V2.77778C5.55556 1.24132 4.31424 0 2.77778 0C1.24132 0 0 1.24132 0 2.77778Z" fill="#4185EB"/>
<path d="M25 2.77778V16.6667C25 18.2031 26.2413 19.4444 27.7778 19.4444H47.2222C48.7587 19.4444 50 18.2031 50 16.6667V5.55556C50 4.0191 48.7587 2.77778 47.2222 2.77778H38.6545C37.9167 2.77778 37.2135 2.48264 36.6927 1.96181L35.5382 0.815972C35.0174 0.295139 34.3142 0 33.5764 0H27.7778C26.2413 0 25 1.24132 25 2.77778ZM25 27.7778V41.6667C25 43.2031 26.2413 44.4444 27.7778 44.4444H47.2222C48.7587 44.4444 50 43.2031 50 41.6667V30.5556C50 29.0191 48.7587 27.7778 47.2222 27.7778H38.6545C37.9167 27.7778 37.2135 27.4826 36.6927 26.9618L35.5382 25.8073C35.0174 25.2865 34.3142 24.9913 33.5764 24.9913L27.7778 25C26.2413 25 25 26.2413 25 27.7778Z" fill="#0047AB"/>
</svg>
