<svg width="40" height="36" viewBox="0 0 40 36" fill="none" xmlns="http://www.w3.org/2000/svg">
<path opacity="0.4" d="M0 2.22222V8.88889V26.6667C0 29.1181 1.99306 31.1111 4.44444 31.1111H20V26.6667H4.44444V11.1111H20V6.66667H4.44444V2.22222C4.44444 0.993055 3.45139 0 2.22222 0C0.993056 0 0 0.993055 0 2.22222Z" fill="#4185EB"/>
<path d="M20 2.22222V13.3333C20 14.5625 20.9931 15.5556 22.2222 15.5556H37.7778C39.0069 15.5556 40 14.5625 40 13.3333V4.44444C40 3.21528 39.0069 2.22222 37.7778 2.22222H30.9236C30.3333 2.22222 29.7708 1.98611 29.3542 1.56944L28.4306 0.652778C28.0139 0.236111 27.4514 0 26.8611 0H22.2222C20.9931 0 20 0.993055 20 2.22222ZM20 22.2222V33.3333C20 34.5625 20.9931 35.5556 22.2222 35.5556H37.7778C39.0069 35.5556 40 34.5625 40 33.3333V24.4444C40 23.2153 39.0069 22.2222 37.7778 22.2222H30.9236C30.3333 22.2222 29.7708 21.9861 29.3542 21.5694L28.4306 20.6458C28.0139 20.2292 27.4514 19.9931 26.8611 19.9931L22.2222 20C20.9931 20 20 20.9931 20 22.2222Z" fill="#0047AB"/>
</svg>
