<svg width="97" height="85" viewBox="0 0 97 85" fill="none" xmlns="http://www.w3.org/2000/svg">
<path d="M32.8132 61.066C30.2773 61.0824 27.7909 61.1037 25.286 61.1929C25.1894 61.2066 25.1005 61.2531 25.0342 61.3245C24.9678 61.396 24.928 61.488 24.9214 61.5853C24.9148 61.6826 24.9418 61.7792 24.998 61.859C25.0541 61.9387 25.136 61.9967 25.2298 62.0233C27.2327 62.4671 32.5942 62.2956 32.7434 62.3276C32.8309 62.3409 32.9202 62.3358 33.0055 62.3126C33.0909 62.2894 33.1705 62.2485 33.2392 62.1928C33.3078 62.137 33.3641 62.0674 33.4043 61.9886C33.4445 61.9098 33.4678 61.8235 33.4727 61.7352C33.4776 61.6468 33.4639 61.5585 33.4327 61.4757C33.4014 61.3929 33.3531 61.3176 33.291 61.2546C33.2289 61.1916 33.1543 61.1423 33.0721 61.1098C32.9898 61.0773 32.9016 61.0624 32.8132 61.066Z" fill="#B366FF"/>
<path d="M32.344 49.8472C32.4273 49.8585 32.512 49.8532 32.5932 49.8317C32.6745 49.8103 32.7507 49.773 32.8176 49.7221C32.8844 49.6711 32.9406 49.6076 32.9829 49.5349C33.0251 49.4623 33.0527 49.382 33.064 49.2987C33.0752 49.2155 33.07 49.1308 33.0485 49.0495C33.027 48.9683 32.9898 48.892 32.9388 48.8252C32.8879 48.7583 32.8243 48.7021 32.7517 48.6599C32.679 48.6176 32.5988 48.59 32.5155 48.5788C31.5068 48.5352 25.2984 48.4712 24.3284 48.8201C24.2496 48.8461 24.181 48.8962 24.1324 48.9635C24.0838 49.0307 24.0576 49.1116 24.0576 49.1946C24.0576 49.2775 24.0838 49.3584 24.1324 49.4256C24.181 49.4929 24.2496 49.5431 24.3284 49.5691C25.4864 49.9741 30.9864 49.79 32.344 49.8472Z" fill="#B366FF"/>
<path d="M32.5157 68.1611C30.6126 68.0642 27.6009 68.1234 25.6358 68.1611C25.0777 68.1611 25.0844 69.2396 25.6358 69.2581C27.7095 69.3152 30.3665 69.2581 32.4401 69.3356C32.5337 69.3807 32.637 69.4021 32.7408 69.398C32.8446 69.3939 32.9459 69.3644 33.0356 69.312C33.1254 69.2596 33.2009 69.186 33.2555 69.0976C33.3102 69.0093 33.3423 68.9088 33.3491 68.8051C33.3558 68.7014 33.337 68.5977 33.2943 68.5029C33.2516 68.4082 33.1863 68.3254 33.1041 68.2618C33.0219 68.1982 32.9253 68.1558 32.8229 68.1383C32.7205 68.1207 32.6144 68.1286 32.5157 68.1611Z" fill="#B366FF"/>
<path d="M16.2879 43.6202C17.8606 43.6338 25.5845 43.9555 26.6621 43.3857C26.744 43.3268 26.8091 43.2475 26.8511 43.1558C26.8931 43.0641 26.9105 42.963 26.9016 42.8625C26.8927 42.762 26.8578 42.6656 26.8004 42.5827C26.7429 42.4997 26.6649 42.4332 26.5739 42.3896C26.0409 42.1744 17.3684 42.3896 16.193 42.3896C15.3877 42.3702 15.506 43.6134 16.2879 43.6202Z" fill="#B366FF"/>
<path d="M23.3548 28.3572C24.7405 28.5724 29.3626 28.5414 31.5603 28.6479C33.758 28.7545 32.8985 27.6402 32.7405 27.5384C31.8084 26.9425 24.725 27.1644 23.3616 27.4939C22.9526 27.6092 22.9032 28.2875 23.3548 28.3572Z" fill="#B366FF"/>
<path d="M15.9079 21.8131C16.7703 22.1223 23.5553 21.91 25.7685 22.035C26.5349 22.0787 26.5223 20.9507 25.8654 20.7666C24.6735 20.4236 17.4253 20.411 15.9815 20.9188C15.6288 21.0331 15.4825 21.66 15.9079 21.8131Z" fill="#B366FF"/>
<path d="M31.1133 34.1336C28.6724 34.2808 26.2053 34.1772 23.7644 34.2789C23.6833 34.2662 23.6005 34.2709 23.5214 34.2925C23.4422 34.3142 23.3685 34.3523 23.3052 34.4044C23.2418 34.4566 23.1903 34.5215 23.1538 34.595C23.1173 34.6685 23.0969 34.7489 23.0937 34.8309C23.0905 34.9129 23.1047 34.9946 23.1354 35.0707C23.1661 35.1468 23.2125 35.2156 23.2717 35.2724C23.3308 35.3293 23.4013 35.373 23.4786 35.4007C23.5558 35.4283 23.638 35.4394 23.7198 35.433C26.4635 35.6345 29.2177 35.6471 31.9631 35.4708C32.8197 35.4456 34.1191 33.9514 31.1133 34.1336Z" fill="#B366FF"/>
<path d="M32.2299 54.3893C29.9416 54.3193 27.6511 54.3721 25.3684 54.5472C24.8423 54.6296 24.8839 55.5686 25.3684 55.5744C27.6262 55.6257 29.8898 55.619 32.1514 55.619C33.2512 55.6257 33.6573 54.4329 32.2299 54.3893Z" fill="#B366FF"/>
<path d="M11.9881 63.7344C7.67018 66.2703 4.49282 73.2461 7.58781 76.3091C9.95896 73.3662 12.6605 69.7713 15.2797 67.152C14.0433 66.1557 12.9373 65.0074 11.9881 63.7344Z" fill="#B366FF"/>
<path d="M20.1879 70.1638C18.6525 69.5088 17.2091 68.6563 15.8943 67.6279C13.777 70.7287 10.8719 73.9691 8.47559 76.9875C12.7363 79.6697 18.9767 75.0921 20.1879 70.1638Z" fill="#B366FF"/>
<path d="M11.1455 63.3368C11.1455 60.7428 10.4352 61.0112 11.8364 59.3542C12.5147 58.5616 13.3868 58.0228 12.7308 57.5596C12.0747 57.0964 10.346 59.4618 10.1939 60.1759C10.1207 61.2957 10.241 62.4197 10.5495 63.4986C10.6503 63.8688 11.1455 63.6663 11.1455 63.3368Z" fill="#B366FF"/>
<path d="M20.3722 69.0218C20.449 68.1453 20.3254 67.2629 20.0108 66.4413C21.2472 65.6109 22.5467 63.607 22.0079 62.2368C21.9731 62.1602 21.9132 62.0979 21.838 62.0601C21.7628 62.0223 21.677 62.0114 21.5948 62.0292C21.5126 62.0469 21.4389 62.0923 21.3861 62.1578C21.3332 62.2233 21.3044 62.3048 21.3044 62.389C21.3011 63.0083 21.1248 63.6144 20.7954 64.1388C20.466 64.6633 19.9965 65.0852 19.44 65.357C18.9144 64.5772 18.2186 63.9268 17.4051 63.4549C17.4603 62.8708 17.6427 62.3059 17.9395 61.7998C18.2363 61.2938 18.6403 60.8588 19.1232 60.5256C19.3896 60.2775 19.1871 59.6312 18.4003 60.0498C17.3421 60.7208 16.5731 61.7632 16.2443 62.9723C15.051 62.6881 13.796 62.8272 12.6938 63.3657C14.7702 65.8315 17.4016 67.7699 20.3722 69.0218Z" fill="#B366FF"/>
<path d="M3.42136 63.3158C6.77023 63.9495 6.17333 62.6811 8.20242 65.4078C8.25956 65.4673 8.33473 65.5063 8.41626 65.5187C8.4978 65.5312 8.58117 65.5164 8.65345 65.4767C8.72574 65.4369 8.78291 65.3745 8.81611 65.299C8.84931 65.2235 8.85669 65.1391 8.83711 65.059C8.56482 64.3303 7.7528 62.7508 6.93496 62.5929C5.81867 62.3642 4.683 62.2625 3.55508 62.1365C3.47394 62.1196 3.39018 62.1199 3.30914 62.1372C3.22809 62.1546 3.15156 62.1886 3.08443 62.2372C3.01729 62.2858 2.96103 62.3479 2.91923 62.4194C2.87743 62.491 2.85102 62.5705 2.84169 62.6528C2.83235 62.7352 2.84029 62.8186 2.865 62.8977C2.88971 62.9768 2.93065 63.0498 2.9852 63.1122C3.03976 63.1746 3.10672 63.2249 3.18182 63.26C3.25692 63.295 3.33851 63.314 3.42136 63.3158Z" fill="#B366FF"/>
<path d="M16.0466 77.5966C16.4613 78.4687 16.8925 79.3408 17.315 80.2022C16.3829 80.241 15.4575 80.3049 14.5253 80.3175C14.4021 80.3647 14.2967 80.449 14.2236 80.5588C14.1506 80.6686 14.1136 80.7985 14.1177 80.9303C14.1219 81.0621 14.167 81.1894 14.2468 81.2944C14.3266 81.3994 14.4372 81.4769 14.5631 81.5162C16.2375 81.5666 19.0776 81.6867 18.1484 79.613C16.4526 75.8591 15.8528 77.1867 16.0466 77.5966Z" fill="#B366FF"/>
<path d="M6.5096 67.908C5.41589 67.661 4.28855 67.5988 3.1743 67.7239C2.36906 67.9652 2.04541 70.2607 2.04541 70.8441C2.05407 70.9745 2.10872 71.0977 2.19966 71.1916C2.29059 71.2856 2.4119 71.3442 2.54201 71.3571C2.67212 71.37 2.80258 71.3364 2.9102 71.2621C3.01782 71.1879 3.0956 71.0778 3.12972 70.9516C3.29445 70.222 3.43399 69.4797 3.58612 68.7384C4.56869 68.6939 5.55804 68.6619 6.54158 68.5931C6.61565 68.569 6.67975 68.5212 6.72404 68.4571C6.76832 68.393 6.79034 68.3162 6.78671 68.2384C6.78308 68.1605 6.754 68.0861 6.70393 68.0264C6.65387 67.9667 6.5856 67.9251 6.5096 67.908Z" fill="#B366FF"/>
<path d="M22.8322 68.3081C22.739 69.4037 22.705 70.5035 22.7304 71.6027C22.0202 71.844 21.3167 72.1037 20.5986 72.313C20.1926 72.4341 19.7265 73.5814 22.3167 72.751C23.9339 72.2306 23.807 71.8886 23.7876 69.2374C23.7954 67.6744 22.9 67.812 22.8322 68.3081Z" fill="#B366FF"/>
<path d="M20.7384 74.9962C20.0601 74.8789 18.7345 74.4952 18.5892 74.9962C18.3605 75.782 20.5863 75.6299 21.1251 76.0621C21.6038 76.9499 21.9583 77.8994 22.1784 78.8838C22.628 80.3858 23.6561 79.4352 23.2627 78.6677C22.3121 76.8295 22.4187 75.2869 20.7384 74.9962Z" fill="#B366FF"/>
<path d="M67.4045 32.9615C66.8804 34.0712 66.7571 35.3283 67.0557 36.5187C69.5023 34.1552 72.2108 32.0788 75.1284 30.3297C73.9927 29.7651 72.7062 29.5783 71.4569 29.7967C71.1972 28.662 70.1381 26.9943 68.7621 27.2608C68.6948 27.2756 68.6334 27.31 68.5857 27.3596C68.5379 27.4092 68.5059 27.4718 68.4937 27.5396C68.4815 27.6073 68.4896 27.6772 68.517 27.7404C68.5444 27.8035 68.5899 27.8572 68.6477 27.8946C69.1189 28.0676 69.527 28.3786 69.8188 28.7871C70.1106 29.1955 70.2725 29.6825 70.2834 30.1843C69.4239 30.6041 68.664 31.2027 68.0547 31.9401C67.5212 31.7633 67.0733 31.3933 66.7989 30.9028C66.5245 30.4124 66.4436 29.837 66.5721 29.2899C66.6923 28.5922 65.545 28.6998 65.7165 30.4527C65.7621 30.9797 65.9409 31.4864 66.2362 31.9253C66.5315 32.3642 66.9335 32.7207 67.4045 32.9615Z" fill="#B366FF"/>
<path d="M77.0441 30.4183C76.986 30.7729 77.5577 30.989 77.7282 30.6595C78.2724 29.6629 78.4519 28.5078 78.236 27.393C78.0199 26.8165 77.0315 24.8572 76.3338 24.7874C75.8203 24.7176 75.6042 25.2496 76.1875 25.9725C78.0063 28.2555 77.4007 28.2293 77.0441 30.4183Z" fill="#B366FF"/>
<path d="M79.7698 32.9034C81.6729 31.8704 81.8047 31.0012 83.981 31.9518C84.4248 32.1456 84.9762 32.6815 85.4772 32.5865C86.1119 32.4344 85.7437 31.7619 85.1923 31.4325C82.7504 29.9867 81.3551 30.3927 79.295 32.3394C78.9752 32.6185 79.3957 33.1069 79.7698 32.9034Z" fill="#B366FF"/>
<path d="M84.57 35.61C83.9402 35.1419 81.945 35.4074 81.1902 35.547C81.1152 35.5686 81.0493 35.6139 81.0024 35.6762C80.9555 35.7386 80.9302 35.8144 80.9302 35.8924C80.9302 35.9704 80.9555 36.0463 81.0024 36.1086C81.0493 36.1709 81.1152 36.2163 81.1902 36.2379C83.6001 36.5867 83.6572 35.5722 85.5788 37.8745C86.5235 39.016 87.1766 38.0964 86.3394 37.1962C85.7966 36.6173 85.2045 36.0866 84.57 35.61Z" fill="#B366FF"/>
<path d="M66.8627 38.243C65.8714 38.0221 64.2182 38.3002 63.6533 38.1548C63.0884 38.0095 62.1126 36.1693 61.2502 36.2517C60.9391 36.2517 60.5651 36.7149 61.3326 37.5201C62.6708 38.9029 62.7657 39.2769 63.7619 39.3021C64.789 39.3298 65.8156 39.2299 66.8181 39.0046C67.132 38.8709 67.2706 38.3351 66.8627 38.243Z" fill="#B366FF"/>
<path d="M72.6767 44.3234C72.7649 43.9552 72.2329 43.6383 72.043 44.0191C70.4926 46.9804 71.0662 47.304 72.3724 49.9543C73.0633 51.3632 73.8376 50.3225 73.3928 49.6054C71.4315 46.46 71.9296 47.4736 72.6767 44.3234Z" fill="#B366FF"/>
<path d="M67.2971 37.3365C68.8572 41.7745 74.7352 45.637 78.4203 43.5381C76.9804 41.2299 72.1673 35.8588 71.02 34.1523C69.7574 35.1543 68.5278 36.2522 67.2971 37.3365Z" fill="#B366FF"/>
<path d="M68.2486 41.236C67.5064 41.6478 66.1168 42.8087 66.0199 43.6837C65.861 44.8194 65.8845 45.9732 66.0897 47.1014C66.144 47.2306 66.2454 47.3342 66.3734 47.3913C66.5013 47.4484 66.6462 47.4546 66.7786 47.4087C66.911 47.3628 67.0209 47.2682 67.0861 47.1442C67.1512 47.0202 67.1667 46.876 67.1294 46.7409C67.0093 46.2836 66.9715 43.7545 67.2825 43.3979C67.7825 42.8349 68.3029 42.2825 68.7661 41.6866C69.0035 41.3814 68.5209 41.0849 68.2486 41.236Z" fill="#B366FF"/>
<path d="M76.0481 30.8242C75.864 31.0519 72.142 33.3601 71.5713 33.7312C74.5132 35.863 77.2777 39.9454 79.3902 42.805C82.7449 39.6131 80.0878 33.3795 76.0481 30.8242Z" fill="#B366FF"/>
<path d="M93.5878 11.1465C63.4606 11.1465 32.6163 11.2288 2.60336 11.1465C2.0956 11.1465 2.19735 11.9081 2.68572 11.9217C32.9903 12.3529 63.5623 12.1048 93.6953 12.1562C94.3552 12.1736 94.2477 11.1465 93.5878 11.1465Z" fill="#0047AB"/>
<path d="M89.4853 84.205C95.4456 84.113 96.9108 81.5887 96.905 76.7282C96.905 54.5962 96.6317 32.3838 96.778 10.2653C96.8158 4.35443 96.778 0.187722 89.0667 0.118923C62.2874 -0.16015 36.1108 0.156716 9.47095 0.0307459C2.57166 -0.0147972 0.492181 2.63639 0.362334 9.33317C-0.0475533 31.5911 0.00186538 53.6844 0.00186538 75.6245C0.00186538 81.4385 2.42437 84.5015 8.19478 84.5015C34.5885 84.6227 63.6256 84.6014 89.4853 84.205ZM7.68314 83.4046C2.4641 83.361 0.941798 80.2069 0.954395 75.6759C1.01157 53.3791 0.904006 31.1086 1.18889 8.38742C1.27223 2.42128 4.72187 0.879591 9.58529 0.961956C36.4722 1.39316 62.3445 0.804007 89.1171 1.13347C95.7635 1.2168 95.9912 4.68486 95.9214 10.3729C95.6307 32.4022 96.0367 54.7619 95.9214 76.5315C95.8894 80.4686 94.8691 83.05 89.6878 83.1013C64.425 83.3475 7.68314 83.4046 7.68314 83.4046Z" fill="#0047AB"/>
<path d="M7.27725 8.26225C7.51903 8.27644 7.76124 8.24287 7.99004 8.16345C8.21884 8.08403 8.42976 7.96034 8.61076 7.79941C8.79175 7.63848 8.93928 7.44347 9.04491 7.22553C9.15054 7.00759 9.21221 6.77097 9.2264 6.52919C9.24059 6.28742 9.20702 6.04521 9.1276 5.81641C9.04819 5.5876 8.92448 5.37669 8.76355 5.19569C8.60262 5.0147 8.40762 4.86717 8.18968 4.76154C7.97173 4.6559 7.73512 4.59423 7.49334 4.58005C4.39932 4.38818 5.16483 8.31846 7.27725 8.26225ZM7.379 5.5287C7.59209 5.55545 7.78715 5.66189 7.92495 5.82661C8.06275 5.99133 8.13308 6.20212 8.12178 6.41658C8.11049 6.63105 8.01841 6.83328 7.86407 6.98262C7.70973 7.13195 7.50457 7.21732 7.28985 7.22154C7.1731 7.22384 7.05714 7.20205 6.94918 7.15754C6.84123 7.11302 6.74361 7.04674 6.66241 6.96282C6.58122 6.8789 6.51819 6.77915 6.47725 6.66979C6.43632 6.56043 6.41836 6.44381 6.4245 6.3272C6.43065 6.2106 6.46075 6.0965 6.51294 5.99205C6.56514 5.88759 6.6383 5.79501 6.72786 5.72009C6.81742 5.64516 6.92146 5.5895 7.03349 5.55657C7.14552 5.52364 7.26314 5.51415 7.379 5.5287Z" fill="#0047AB"/>
<path d="M13.8915 8.28635C17.1183 8.48984 16.6309 4.37352 13.8082 4.29115C11.2423 4.2146 11.1899 8.1129 13.8915 8.28635ZM13.8343 5.25531C15.2675 5.44135 15.7365 7.38711 13.8847 7.20203C12.033 7.01695 13.0349 5.15162 13.8343 5.25531Z" fill="#0047AB"/>
<path d="M20.7519 8.46388C23.9728 8.20807 23.2887 4.13923 20.5106 4.17702C17.9873 4.21578 17.8226 8.69451 20.7519 8.46388ZM20.5242 5.07819C21.9699 5.06559 22.7752 7.31659 20.6569 7.41736C19.2683 7.48713 19.0271 5.09079 20.5242 5.07819Z" fill="#0047AB"/>
<path d="M59.3957 27.1402C55.2106 27.0433 44.006 26.5055 40.2327 27.3175C39.7889 27.4144 39.8713 28.0927 40.2773 28.1732C41.4314 28.4144 57.6525 28.6577 59.4471 28.2051C59.9984 28.0656 59.9093 27.1518 59.3957 27.1402Z" fill="#0047AB"/>
<path d="M75.9336 61.1173C70.5818 61.1997 49.9731 61.1813 40.4739 61.4594C40.3724 61.474 40.2796 61.5247 40.2125 61.6022C40.1454 61.6797 40.1084 61.7788 40.1084 61.8814C40.1084 61.9839 40.1454 62.083 40.2125 62.1605C40.2796 62.238 40.3724 62.2888 40.4739 62.3034C49.2376 63.0786 65.9461 62.7026 75.7689 62.3034C76.5363 62.2888 76.733 61.1028 75.9336 61.1173Z" fill="#0047AB"/>
<path d="M79.0468 54.4777C66.3645 54.7054 53.6444 54.4777 40.9999 54.7752C40.5368 54.7752 40.4796 55.562 40.9554 55.5998C51.3043 56.3285 67.9304 55.9418 79.1554 55.6967C79.9034 55.6812 79.8337 54.4631 79.0468 54.4777Z" fill="#0047AB"/>
<path d="M40.5121 49.7572C42.9472 50.3919 55.9715 50.2718 58.4832 50.2078C59.2371 50.2078 59.1169 49.045 58.3814 49.045C53.8155 49.045 44.6022 48.3725 40.5431 48.982C40.4499 48.9925 40.3636 49.0361 40.2997 49.1047C40.2358 49.1734 40.1986 49.2626 40.1949 49.3563C40.1911 49.45 40.2211 49.542 40.2793 49.6155C40.3374 49.6891 40.42 49.7393 40.5121 49.7572Z" fill="#0047AB"/>
<path d="M40.8355 35.6434C44.5783 35.8711 48.3311 35.8883 52.0759 35.6947C53.0449 35.6947 52.9131 34.591 52.1204 34.623C50.0914 34.686 42.8306 34.3119 40.7066 34.6734C40.3025 34.7373 40.3461 35.6114 40.8355 35.6434Z" fill="#0047AB"/>
<path d="M67.6902 67.8639C60.4798 68.1546 46.7956 68.1546 40.3275 68.4666C39.8837 68.4666 39.8837 69.1381 40.3275 69.2273C43.0223 69.7854 65.5341 69.1304 67.8471 69.0558C68.6068 69.0306 68.4896 67.8319 67.6902 67.8639Z" fill="#0047AB"/>
</svg>
