<svg width="95" height="80" viewBox="0 0 95 80" fill="none" xmlns="http://www.w3.org/2000/svg">
<path d="M16.7621 50.0745C15.4667 50.0829 14.1966 50.0938 12.917 50.1393C12.8677 50.1463 12.8222 50.1701 12.7883 50.2066C12.7544 50.2431 12.7341 50.2901 12.7307 50.3398C12.7274 50.3895 12.7412 50.4389 12.7699 50.4796C12.7985 50.5203 12.8403 50.55 12.8883 50.5635C13.9114 50.7903 16.6503 50.7026 16.7265 50.719C16.7712 50.7258 16.8168 50.7232 16.8604 50.7113C16.904 50.6994 16.9447 50.6786 16.9797 50.6501C17.0148 50.6216 17.0435 50.5861 17.0641 50.5458C17.0846 50.5056 17.0965 50.4615 17.099 50.4163C17.1015 50.3712 17.0946 50.3261 17.0786 50.2838C17.0626 50.2415 17.038 50.2031 17.0062 50.1709C16.9745 50.1387 16.9364 50.1135 16.8944 50.0969C16.8523 50.0803 16.8073 50.0727 16.7621 50.0745Z" fill="#B366FF"/>
<path d="M16.5225 44.3435C16.5651 44.3492 16.6083 44.3465 16.6498 44.3356C16.6913 44.3246 16.7303 44.3056 16.7644 44.2796C16.7986 44.2535 16.8273 44.2211 16.8489 44.184C16.8705 44.1469 16.8846 44.1059 16.8903 44.0633C16.8961 44.0208 16.8934 43.9775 16.8824 43.936C16.8714 43.8945 16.8524 43.8555 16.8264 43.8214C16.8004 43.7872 16.7679 43.7585 16.7308 43.7369C16.6937 43.7154 16.6527 43.7013 16.6101 43.6955C16.0948 43.6732 12.9234 43.6406 12.4279 43.8188C12.3876 43.8321 12.3526 43.8577 12.3278 43.8921C12.3029 43.9264 12.2896 43.9677 12.2896 44.0101C12.2896 44.0525 12.3029 44.0938 12.3278 44.1281C12.3526 44.1625 12.3876 44.1881 12.4279 44.2014C13.0194 44.4083 15.829 44.3143 16.5225 44.3435Z" fill="#B366FF"/>
<path d="M16.6101 53.6988C15.6379 53.6493 14.0995 53.6795 13.0956 53.6988C12.8105 53.6988 12.8139 54.2498 13.0956 54.2592C14.1549 54.2884 15.5122 54.2592 16.5715 54.2988C16.6193 54.3218 16.6721 54.3328 16.7251 54.3307C16.7781 54.3286 16.8298 54.3135 16.8757 54.2867C16.9215 54.26 16.9601 54.2224 16.988 54.1772C17.0159 54.1321 17.0324 54.0807 17.0358 54.0278C17.0393 53.9748 17.0297 53.9218 17.0078 53.8734C16.986 53.825 16.9526 53.7827 16.9107 53.7503C16.8687 53.7178 16.8194 53.6961 16.767 53.6871C16.7147 53.6782 16.6605 53.6822 16.6101 53.6988Z" fill="#B366FF"/>
<path d="M8.3204 41.1628C9.12378 41.1698 13.0694 41.3341 13.6199 41.0431C13.6617 41.013 13.695 40.9725 13.7164 40.9256C13.7379 40.8788 13.7468 40.8271 13.7422 40.7758C13.7377 40.7245 13.7199 40.6752 13.6905 40.6328C13.6612 40.5905 13.6213 40.5565 13.5748 40.5342C13.3026 40.4243 8.87232 40.5342 8.27189 40.5342C7.86054 40.5243 7.92093 41.1594 8.3204 41.1628Z" fill="#B366FF"/>
<path d="M11.9304 33.3654C12.6382 33.4752 14.9994 33.4594 16.122 33.5139C17.2447 33.5683 16.8056 32.9991 16.7249 32.9471C16.2487 32.6427 12.6303 32.756 11.9338 32.9243C11.7249 32.9832 11.6997 33.3297 11.9304 33.3654Z" fill="#B366FF"/>
<path d="M8.12633 30.0231C8.56688 30.181 12.0329 30.0726 13.1634 30.1365C13.555 30.1587 13.5486 29.5826 13.2129 29.4885C12.6041 29.3133 8.9015 29.3068 8.16395 29.5662C7.98377 29.6246 7.90902 29.9449 8.12633 30.0231Z" fill="#B366FF"/>
<path d="M15.8938 36.3165C14.6469 36.3917 13.3866 36.3387 12.1397 36.3907C12.0983 36.3842 12.056 36.3866 12.0156 36.3977C11.9751 36.4087 11.9375 36.4282 11.9051 36.4548C11.8728 36.4815 11.8464 36.5146 11.8278 36.5522C11.8092 36.5897 11.7987 36.6308 11.7971 36.6727C11.7955 36.7146 11.8027 36.7563 11.8184 36.7952C11.8341 36.8341 11.8578 36.8692 11.888 36.8982C11.9182 36.9273 11.9542 36.9496 11.9937 36.9637C12.0332 36.9779 12.0752 36.9835 12.1169 36.9803C13.5185 37.0832 14.9255 37.0897 16.3279 36.9996C16.7655 36.9867 17.4293 36.2234 15.8938 36.3165Z" fill="#B366FF"/>
<path d="M16.4642 46.6637C15.2952 46.628 14.1252 46.6549 12.9591 46.7444C12.6903 46.7865 12.7116 47.2661 12.9591 47.2691C14.1124 47.2953 15.2687 47.2919 16.4241 47.2919C16.9859 47.2953 17.1933 46.686 16.4642 46.6637Z" fill="#B366FF"/>
<path d="M6.12395 51.4375C3.91823 52.7329 2.29513 56.2964 3.87616 57.8611C5.08742 56.3578 6.46748 54.5213 7.80547 53.1834C7.17383 52.6744 6.60887 52.0878 6.12395 51.4375Z" fill="#B366FF"/>
<path d="M10.3127 54.7222C9.52833 54.3876 8.791 53.9521 8.11931 53.4268C7.03774 55.0108 5.55372 56.666 4.32959 58.208C6.5061 59.5781 9.69391 57.2397 10.3127 54.7222Z" fill="#B366FF"/>
<path d="M5.6935 51.2346C5.6935 49.9095 5.33067 50.0466 6.04644 49.2001C6.39294 48.7952 6.83844 48.52 6.50332 48.2834C6.16821 48.0468 5.28513 49.2551 5.20741 49.6199C5.17 50.1919 5.23146 50.7661 5.38908 51.3172C5.44056 51.5063 5.6935 51.4029 5.6935 51.2346Z" fill="#B366FF"/>
<path d="M10.4068 54.1389C10.446 53.6912 10.3828 53.2404 10.2221 52.8207C10.8537 52.3965 11.5175 51.3728 11.2423 50.6729C11.2245 50.6338 11.1939 50.6019 11.1555 50.5826C11.1171 50.5633 11.0733 50.5577 11.0313 50.5668C10.9893 50.5759 10.9517 50.5991 10.9247 50.6325C10.8977 50.666 10.883 50.7076 10.8829 50.7506C10.8813 51.067 10.7912 51.3766 10.6229 51.6445C10.4547 51.9124 10.2148 52.1279 9.93056 52.2668C9.66203 51.8684 9.30661 51.5362 8.89106 51.2951C8.91925 50.9967 9.01243 50.7082 9.16404 50.4497C9.31566 50.1911 9.52205 49.969 9.7687 49.7987C9.90482 49.672 9.80137 49.3418 9.39943 49.5557C8.85887 49.8984 8.46601 50.431 8.29805 51.0486C7.68847 50.9034 7.04739 50.9745 6.48438 51.2496C7.54505 52.5092 8.88928 53.4994 10.4068 54.1389Z" fill="#B366FF"/>
<path d="M1.74776 51.224C3.45848 51.5477 3.15356 50.8998 4.19009 52.2927C4.21929 52.3231 4.25768 52.343 4.29934 52.3494C4.34099 52.3557 4.38357 52.3482 4.4205 52.3279C4.45743 52.3076 4.48663 52.2757 4.50359 52.2371C4.52055 52.1985 4.52432 52.1555 4.51432 52.1145C4.37522 51.7423 3.96041 50.9354 3.54263 50.8547C2.97239 50.7379 2.39225 50.686 1.81607 50.6216C1.77462 50.613 1.73183 50.6131 1.69044 50.622C1.64904 50.6308 1.60994 50.6482 1.57565 50.673C1.54135 50.6979 1.51261 50.7296 1.49126 50.7661C1.46991 50.8027 1.45642 50.8433 1.45165 50.8854C1.44688 50.9274 1.45093 50.97 1.46356 51.0104C1.47618 51.0508 1.49709 51.0882 1.52496 51.12C1.55283 51.1519 1.58703 51.1776 1.6254 51.1955C1.66376 51.2134 1.70544 51.2231 1.74776 51.224Z" fill="#B366FF"/>
<path d="M8.19716 58.5188C8.40902 58.9643 8.6293 59.4098 8.84512 59.8498C8.36893 59.8696 7.8962 59.9023 7.42001 59.9087C7.35709 59.9328 7.30323 59.9759 7.26592 60.032C7.22861 60.0881 7.20971 60.1544 7.21183 60.2217C7.21395 60.2891 7.237 60.3541 7.27777 60.4077C7.31854 60.4614 7.375 60.501 7.43932 60.521C8.29468 60.5468 9.74552 60.6081 9.27082 59.5488C8.40457 57.6312 8.09816 58.3094 8.19716 58.5188Z" fill="#B366FF"/>
<path d="M3.32539 53.5695C2.76668 53.4433 2.1908 53.4115 1.6216 53.4754C1.21025 53.5987 1.04492 54.7713 1.04492 55.0693C1.04934 55.136 1.07726 55.1989 1.12372 55.2469C1.17017 55.2949 1.23214 55.3248 1.2986 55.3314C1.36507 55.338 1.43171 55.3208 1.48669 55.2829C1.54166 55.2449 1.5814 55.1887 1.59883 55.1243C1.68298 54.7515 1.75426 54.3724 1.83197 53.9937C2.3339 53.9709 2.8393 53.9546 3.34172 53.9194C3.37956 53.9071 3.41231 53.8827 3.43493 53.85C3.45755 53.8172 3.4688 53.778 3.46694 53.7382C3.46509 53.6985 3.45023 53.6604 3.42466 53.6299C3.39908 53.5995 3.36421 53.5782 3.32539 53.5695Z" fill="#B366FF"/>
<path d="M11.6635 53.7739C11.6158 54.3336 11.5985 54.8954 11.6115 55.4569C11.2487 55.5802 10.8893 55.7128 10.5225 55.8198C10.3151 55.8816 10.077 56.4677 11.4001 56.0435C12.2263 55.7777 12.1614 55.6029 12.1515 54.2486C12.1555 53.4502 11.6981 53.5205 11.6635 53.7739Z" fill="#B366FF"/>
<path d="M10.5938 57.1908C10.2473 57.1309 9.57019 56.9348 9.49594 57.1908C9.37912 57.5922 10.5161 57.5145 10.7914 57.7353C11.0359 58.1888 11.217 58.6738 11.3294 59.1767C11.5591 59.9439 12.0843 59.4584 11.8833 59.0663C11.3977 58.1273 11.4522 57.3393 10.5938 57.1908Z" fill="#B366FF"/>
<path d="M34.4325 35.7176C34.1648 36.2845 34.1018 36.9267 34.2543 37.5348C35.5042 36.3274 36.8877 35.2667 38.3782 34.3732C37.798 34.0848 37.1408 33.9894 36.5026 34.1009C36.3699 33.5213 35.8289 32.6694 35.126 32.8055C35.0917 32.8131 35.0603 32.8306 35.0359 32.856C35.0115 32.8813 34.9952 32.9133 34.9889 32.9479C34.9827 32.9825 34.9868 33.0182 35.0008 33.0505C35.0148 33.0828 35.0381 33.1102 35.0676 33.1293C35.3083 33.2177 35.5168 33.3765 35.6658 33.5852C35.8149 33.7938 35.8976 34.0426 35.9032 34.2989C35.4641 34.5134 35.0759 34.8192 34.7647 35.1959C34.4922 35.1056 34.2633 34.9165 34.1232 34.666C33.983 34.4155 33.9417 34.1215 34.0073 33.8421C34.0687 33.4857 33.4826 33.5406 33.5702 34.4361C33.5935 34.7053 33.6849 34.9641 33.8357 35.1883C33.9865 35.4125 34.1919 35.5946 34.4325 35.7176Z" fill="#B366FF"/>
<path d="M39.3569 34.4186C39.3272 34.5998 39.6192 34.7102 39.7064 34.5419C39.9843 34.0328 40.0761 33.4427 39.9657 32.8733C39.8554 32.5787 39.3505 31.5778 38.9941 31.5422C38.7317 31.5066 38.6213 31.7783 38.9193 32.1476C39.8484 33.3138 39.5391 33.3004 39.3569 34.4186Z" fill="#B366FF"/>
<path d="M40.7492 35.688C41.7213 35.1603 41.7887 34.7163 42.9004 35.2019C43.1271 35.3009 43.4088 35.5746 43.6647 35.5261C43.9889 35.4484 43.8008 35.1048 43.5192 34.9365C42.2718 34.198 41.559 34.4054 40.5066 35.3999C40.3433 35.5424 40.5581 35.7919 40.7492 35.688Z" fill="#B366FF"/>
<path d="M43.2014 37.071C42.8797 36.832 41.8605 36.9676 41.4748 37.0389C41.4366 37.0499 41.4029 37.0731 41.379 37.1049C41.355 37.1367 41.342 37.1755 41.342 37.2153C41.342 37.2552 41.355 37.2939 41.379 37.3258C41.4029 37.3576 41.4366 37.3808 41.4748 37.3918C42.7059 37.57 42.7351 37.0517 43.7167 38.2279C44.1993 38.811 44.533 38.3412 44.1053 37.8814C43.828 37.5856 43.5255 37.3145 43.2014 37.071Z" fill="#B366FF"/>
<path d="M34.1558 38.4161C33.6494 38.3032 32.805 38.4453 32.5164 38.371C32.2278 38.2968 31.7293 37.3568 31.2888 37.3988C31.1299 37.3988 30.9388 37.6354 31.3309 38.0468C32.0144 38.7532 32.063 38.9442 32.5718 38.9571C33.0965 38.9712 33.6209 38.9202 34.1331 38.8051C34.2934 38.7368 34.3642 38.4631 34.1558 38.4161Z" fill="#B366FF"/>
<path d="M37.1258 41.5218C37.1709 41.3337 36.8991 41.1719 36.8021 41.3664C36.0101 42.8791 36.3031 43.0445 36.9704 44.3983C37.3233 45.118 37.7188 44.5864 37.4916 44.2201C36.4898 42.6133 36.7442 43.1311 37.1258 41.5218Z" fill="#B366FF"/>
<path d="M34.3777 37.9527C35.1746 40.2198 38.1773 42.1929 40.0598 41.1207C39.3242 39.9417 36.8656 37.1979 36.2795 36.3262C35.6345 36.838 35.0063 37.3988 34.3777 37.9527Z" fill="#B366FF"/>
<path d="M34.8637 39.9446C34.4845 40.155 33.7747 40.748 33.7252 41.195C33.644 41.7751 33.656 42.3645 33.7608 42.9409C33.7886 43.0068 33.8404 43.0598 33.9058 43.0889C33.9711 43.1181 34.0451 43.1213 34.1128 43.0978C34.1804 43.0744 34.2365 43.0261 34.2698 42.9627C34.3031 42.8994 34.311 42.8257 34.292 42.7567C34.2306 42.5231 34.2113 41.2311 34.3702 41.049C34.6256 40.7614 34.8914 40.4792 35.128 40.1748C35.2493 40.0189 35.0028 39.8674 34.8637 39.9446Z" fill="#B366FF"/>
<path d="M38.8479 34.626C38.7539 34.7423 36.8526 35.9214 36.561 36.111C38.0639 37.2 39.4761 39.2854 40.5552 40.7462C42.2689 39.1156 40.9116 35.9313 38.8479 34.626Z" fill="#B366FF"/>
<path d="M60.8398 42.7988C60.9948 42.9426 61.1778 43.0528 61.3774 43.1225C66.6749 35.5381 71.8665 27.8858 76.9521 20.1654C76.786 20.0364 76.6302 19.8946 76.4863 19.7412C71.3675 27.5122 66.1685 35.1634 60.8398 42.7988Z" fill="#B366FF"/>
<path d="M91.3803 1.76929C91.2348 1.59406 90.9348 1.76929 91.0724 1.96729C95.3898 8.13697 92.6634 16.2357 91.9441 22.0643C91.7595 23.5636 92.1421 26.4856 90.8264 27.2727C88.9949 28.3646 87.801 25.5011 87.4154 24.0755C86.5284 20.7911 86.2393 15.8639 83.2886 13.2241C83.1168 13.0682 82.9129 13.3112 83.052 13.48C85.9155 16.9004 86.019 21.2515 86.8521 24.325C87.2793 25.9154 88.5267 28.5364 90.5354 27.9112C92.4332 27.3118 92.2872 24.3967 92.3877 23.4018C92.796 19.3205 93.9395 15.2516 94.0429 11.154C94.1271 7.88155 93.5316 4.35071 91.3803 1.76929Z" fill="#B366FF"/>
<path d="M87.0139 8.35731C87.9628 7.0812 91.5713 1.85945 90.3799 0.34673C88.9869 -1.4125 85.1254 4.04586 84.4225 5.02101C83.0979 6.86093 80.8586 10.2913 81.5981 11.9208C80.9922 12.8504 80.3022 13.9389 79.6963 14.8364C79.7834 15.0384 79.935 15.2058 80.1274 15.3126C80.7752 14.312 81.423 13.3088 82.0708 12.303C83.4578 13.1737 86.3367 9.26762 87.0139 8.35731ZM82.1871 11.6614C81.3288 10.5675 84.1082 6.33276 84.7785 5.41305C85.1314 4.92696 89.3428 -0.741776 90.0101 0.819454C90.5383 2.06339 87.3668 6.97428 86.5763 8.01081C86.0971 8.66223 83.0123 12.7153 82.1871 11.6614Z" fill="#B366FF"/>
<path d="M91.8402 7.79762C91.4793 8.34212 91.1922 8.93166 90.8502 9.48557C90.706 8.49662 90.4796 7.5214 90.1735 6.57002C90.1052 6.35618 89.7617 6.41112 89.8201 6.63783C90.114 7.77231 90.3187 8.92803 90.4324 10.0944C89.5689 11.2173 88.5821 12.2397 87.4906 13.1426C87.3169 12.5858 87.0581 12.0592 86.7234 11.5814C86.6031 11.4161 86.2957 11.5814 86.367 11.7754C86.5937 12.3392 86.8239 12.906 87.0501 13.4728L85.6641 14.4133C85.6329 14.4379 85.6113 14.4727 85.6033 14.5116C85.5953 14.5505 85.6013 14.591 85.6203 14.6259C85.6392 14.6608 85.6699 14.6879 85.7069 14.7023C85.7439 14.7168 85.7849 14.7177 85.8225 14.7048C86.3051 14.4972 86.7637 14.2376 87.1902 13.9307C87.5328 15.2467 87.7548 16.5913 87.8535 17.9476C87.6332 18.0575 87.408 18.1644 87.1902 18.2713C87.157 18.2938 87.1324 18.3268 87.1203 18.365C87.1082 18.4033 87.1093 18.4444 87.1235 18.4819C87.1377 18.5194 87.1641 18.551 87.1985 18.5716C87.2329 18.5922 87.2732 18.6007 87.3129 18.5956C87.5138 18.546 87.7108 18.4822 87.9025 18.4045C88.0158 19.59 88.1257 20.7805 88.3267 21.9512C88.1876 21.9804 88.048 22.0066 87.9059 22.0294C87.7639 22.0521 87.4684 22.46 88.4049 22.3759C88.5989 23.5039 88.9626 24.596 89.4835 25.6151C89.5899 25.8131 89.8795 25.6473 89.7874 25.4468C89.3478 24.4451 89.0336 23.3928 88.8519 22.314L90.1923 21.7829C90.1458 22.5056 90.1458 23.2307 90.1923 23.9534C90.1923 24.1539 90.5166 24.1153 90.5166 23.9336C90.6071 23.108 90.6433 22.2754 90.6854 21.4428C91.9808 20.4449 91.3328 20.2701 91.1383 20.4092C90.9899 20.5215 90.8513 20.6462 90.724 20.782L91.0477 16.0201C91.3979 15.6168 91.6862 15.1637 91.9031 14.6756C91.9936 14.4653 91.6793 14.3519 91.5595 14.5202C91.3942 14.744 91.2353 14.9771 91.0833 15.2038C91.1579 13.5757 91.1157 11.9442 90.9571 10.3221C91.4154 9.6465 91.7948 8.92054 92.0877 8.15847C92.2614 7.59021 91.8877 7.72585 91.8402 7.79762ZM90.224 21.1988C89.7795 21.4956 89.2877 21.7147 88.7697 21.8467C88.5816 20.6384 88.491 19.4108 88.3806 18.1837C89.1557 17.7548 89.8685 17.2218 90.4992 16.5997C90.4062 18.1345 90.3144 19.6676 90.224 21.1988ZM90.5448 15.9092C89.9159 16.6215 89.1724 17.2238 88.345 17.6912C88.2362 16.3096 87.9989 14.9411 87.6362 13.6035C88.7134 12.7985 89.6746 11.8491 90.4928 10.782C90.6092 12.4878 90.6234 14.1991 90.5354 15.9067L90.5448 15.9092Z" fill="#B366FF"/>
<path d="M54.4584 51.9758C54.4344 52.025 54.4287 52.0812 54.4423 52.1343C54.456 52.1873 54.4881 52.2338 54.5328 52.2653C54.5776 52.2969 54.6322 52.3115 54.6867 52.3065C54.7413 52.3015 54.7923 52.2773 54.8306 52.2381C55.9033 50.9685 56.9784 49.3488 57.963 47.9618C57.77 47.8904 57.5864 47.796 57.416 47.6807C56.4186 49.0993 55.3528 50.4933 54.4584 51.9758Z" fill="#B366FF"/>
<path d="M47.8079 24.5742C32.4178 24.5742 16.6615 24.6163 1.32985 24.5742C1.07047 24.5742 1.12245 24.9633 1.37193 24.9702C16.8526 25.1905 32.4698 25.0638 47.8628 25.09C48.1999 25.0989 48.145 24.5742 47.8079 24.5742Z" fill="#0047AB"/>
<path d="M45.7122 61.8948C48.757 61.8477 49.5054 60.5583 49.5024 58.0753C49.5024 46.7695 49.3628 35.4226 49.4376 24.1238C49.4569 21.1043 49.4376 18.9758 45.4984 18.9406C31.8186 18.7981 18.4466 18.9599 4.83809 18.8956C1.31369 18.8723 0.251423 20.2266 0.185093 23.6476C-0.0242919 35.0177 0.000952901 46.3037 0.000952901 57.5115C0.000952901 60.4815 1.23845 62.0462 4.18618 62.0462C17.669 62.1081 32.5022 62.0972 45.7122 61.8948ZM3.92482 61.4859C1.25875 61.4636 0.481103 59.8524 0.487538 57.5378C0.516743 46.1478 0.461798 34.7712 0.607328 23.1645C0.649898 20.1168 2.4121 19.3292 4.8965 19.3713C18.6313 19.5916 31.8478 19.2906 45.5241 19.4589C48.9193 19.5015 49.0357 21.2731 49 24.1787C48.8515 35.4321 49.0589 46.8542 49 57.9748C48.9837 59.986 48.4624 61.3047 45.8157 61.331C32.9105 61.4567 3.92482 61.4859 3.92482 61.4859Z" fill="#0047AB"/>
<path d="M3.71739 23.1003C3.84089 23.1075 3.96462 23.0904 4.0815 23.0498C4.19838 23.0093 4.30613 22.9461 4.39858 22.8639C4.49104 22.7816 4.5664 22.682 4.62037 22.5707C4.67433 22.4594 4.70583 22.3385 4.71308 22.215C4.72033 22.0915 4.70318 21.9678 4.66261 21.8509C4.62204 21.734 4.55885 21.6262 4.47664 21.5338C4.39443 21.4413 4.29482 21.366 4.18348 21.312C4.07215 21.258 3.95128 21.2265 3.82777 21.2193C2.24724 21.1213 2.63829 23.129 3.71739 23.1003ZM3.76936 21.7039C3.87821 21.7176 3.97786 21.7719 4.04825 21.8561C4.11864 21.9402 4.15457 22.0479 4.1488 22.1575C4.14303 22.267 4.09599 22.3703 4.01715 22.4466C3.93831 22.5229 3.83351 22.5665 3.72382 22.5687C3.66418 22.5698 3.60494 22.5587 3.5498 22.536C3.49465 22.5132 3.44478 22.4794 3.4033 22.4365C3.36183 22.3936 3.32963 22.3427 3.30872 22.2868C3.28781 22.2309 3.27863 22.1714 3.28177 22.1118C3.28491 22.0522 3.30029 21.994 3.32695 21.9406C3.35361 21.8872 3.39098 21.8399 3.43674 21.8017C3.48249 21.7634 3.53563 21.735 3.59286 21.7181C3.65009 21.7013 3.71017 21.6965 3.76936 21.7039Z" fill="#0047AB"/>
<path d="M7.09627 23.1127C8.74462 23.2167 8.49563 21.1139 7.0537 21.0719C5.74294 21.0328 5.71621 23.0241 7.09627 23.1127ZM7.06706 21.5644C7.79917 21.6594 8.03875 22.6534 7.0928 22.5588C6.14686 22.4643 6.65869 21.5114 7.06706 21.5644Z" fill="#0047AB"/>
<path d="M10.6008 23.2037C12.2462 23.073 11.8967 20.9945 10.4776 21.0138C9.18858 21.0336 9.10443 23.3215 10.6008 23.2037ZM10.4845 21.4742C11.223 21.4677 11.6344 22.6176 10.5523 22.6691C9.84297 22.7047 9.71972 21.4806 10.4845 21.4742Z" fill="#0047AB"/>
<path d="M30.3413 32.7443C28.2034 32.6948 22.4797 32.4201 20.5522 32.8349C20.3255 32.8844 20.3676 33.2309 20.575 33.272C21.1645 33.3953 29.4508 33.5195 30.3676 33.2884C30.6492 33.2171 30.6037 32.7503 30.3413 32.7443Z" fill="#0047AB"/>
<path d="M38.7895 50.1007C36.0556 50.1427 25.528 50.1333 20.6755 50.2754C20.6237 50.2829 20.5762 50.3088 20.5419 50.3484C20.5076 50.388 20.4888 50.4386 20.4888 50.491C20.4888 50.5433 20.5076 50.594 20.5419 50.6336C20.5762 50.6732 20.6237 50.6991 20.6755 50.7065C25.1523 51.1025 33.6876 50.9105 38.7054 50.7065C39.0974 50.6991 39.1979 50.0932 38.7895 50.1007Z" fill="#0047AB"/>
<path d="M40.3799 46.7091C33.9013 46.8254 27.4035 46.7091 20.9442 46.861C20.7076 46.861 20.6784 47.263 20.9215 47.2823C26.2081 47.6545 34.7013 47.457 40.4353 47.3318C40.8175 47.3238 40.7818 46.7016 40.3799 46.7091Z" fill="#0047AB"/>
<path d="M20.6949 44.298C21.9388 44.6222 28.5921 44.5608 29.8752 44.5282C30.2603 44.5282 30.1989 43.9342 29.8232 43.9342C27.4908 43.9342 22.7843 43.5906 20.7107 43.902C20.6631 43.9074 20.619 43.9296 20.5864 43.9647C20.5538 43.9997 20.5348 44.0453 20.5329 44.0932C20.531 44.1411 20.5462 44.188 20.576 44.2256C20.6057 44.2632 20.6479 44.2888 20.6949 44.298Z" fill="#0047AB"/>
<path d="M20.8602 37.0878C22.7722 37.2042 24.6892 37.213 26.6022 37.1141C27.0972 37.1141 27.0299 36.5503 26.625 36.5666C25.5884 36.5988 21.8794 36.4077 20.7944 36.5923C20.5879 36.625 20.6102 37.0715 20.8602 37.0878Z" fill="#0047AB"/>
<path d="M34.5785 53.5472C30.8952 53.6957 23.9048 53.6957 20.6007 53.8551C20.374 53.8551 20.374 54.1981 20.6007 54.2437C21.9773 54.5288 33.4771 54.1942 34.6587 54.156C35.0468 54.1432 34.9869 53.5309 34.5785 53.5472Z" fill="#0047AB"/>
<path d="M60.1334 10.6905C59.9321 10.7269 59.7434 10.8138 59.5848 10.9429C59.4263 11.0721 59.303 11.2393 59.2266 11.429C59.2243 11.4818 59.239 11.534 59.2685 11.5779C59.298 11.6218 59.3409 11.655 59.3907 11.6728C59.4405 11.6906 59.4947 11.6919 59.5453 11.6766C59.596 11.6614 59.6404 11.6303 59.672 11.5879C59.7336 11.4801 59.817 11.3864 59.9169 11.3128C60.0168 11.2391 60.131 11.1872 60.2522 11.1602C60.6908 11.0924 60.5442 10.6162 60.1334 10.6905Z" fill="#0047AB"/>
<path d="M58.258 13.8172C58.0249 14.925 59.644 14.9156 59.8455 14.1736C59.9069 13.9533 59.6806 13.8498 59.5737 13.9855C59.2945 14.3582 58.4352 14.4359 58.5431 13.8399C58.5788 13.6573 58.312 13.6281 58.258 13.8172Z" fill="#0047AB"/>
<path d="M57.1764 11.3736C56.8848 11.4479 56.9205 11.7266 57.2086 11.7785C57.4761 11.8034 57.7389 11.8655 57.9892 11.9632C58.2288 12.0444 58.3649 11.7493 58.2679 11.581C58.1086 11.4761 57.9302 11.4038 57.7429 11.3682C57.5555 11.3326 57.363 11.3344 57.1764 11.3736Z" fill="#0047AB"/>
<path d="M60.0007 15.2671C59.8027 15.3478 59.8616 15.6106 60.1561 15.5715C60.6556 15.5067 61.5421 14.8008 61.1506 14.091C61.0184 13.8484 60.6581 14.0415 60.7912 14.3825C60.9595 14.8166 60.2695 15.1567 60.0007 15.2671Z" fill="#0047AB"/>
<path d="M59.839 12.2774C59.5792 12.3892 59.7549 13.0451 60.0266 12.9931C60.2984 12.9412 60.1202 12.1561 59.839 12.2774Z" fill="#0047AB"/>
<path d="M57.6333 12.6954C57.4744 12.831 57.6684 13.5215 57.9214 13.3205C58.0768 13.2008 57.9436 12.4315 57.6333 12.6954Z" fill="#0047AB"/>
<path d="M77.257 19.7602C77.4085 19.887 77.6327 19.6612 77.5045 19.5127C77.0417 18.9928 76.8 18.3128 76.8308 17.6174C77.2194 17.313 76.3061 16.7076 76.3645 17.9253C76.3764 18.2766 76.4621 18.6215 76.6158 18.9376C76.7696 19.2537 76.988 19.534 77.257 19.7602Z" fill="#0047AB"/>
<path d="M79.3 15.9284C79.6079 16.1551 79.7569 15.8378 79.6079 15.7046C79.1317 15.2052 79.1624 14.432 79.3109 14.4028C79.3672 14.3963 79.4186 14.3679 79.454 14.3236C79.4894 14.2794 79.506 14.223 79.5 14.1667C79.4599 13.8167 78.5941 13.7538 78.7698 14.8948C78.8164 15.2919 79.0047 15.6589 79.3 15.9284Z" fill="#0047AB"/>
<path d="M78.148 15.6697C78.1273 15.5536 78.1298 15.4346 78.1552 15.3195C78.1807 15.2044 78.2287 15.0955 78.2965 14.999C78.5489 14.4743 77.8847 14.2565 77.7164 15.2712C77.6005 15.9771 78.1866 16.337 78.148 15.6697Z" fill="#0047AB"/>
<path d="M77.4546 17.2688C77.61 17.1698 77.4872 17.0213 77.4348 16.7797C77.2922 16.1318 77.759 15.7689 77.3897 15.6556C76.7452 15.4507 76.9883 17.5702 77.4546 17.2688Z" fill="#0047AB"/>
<path d="M80.1754 20.4535C80.1763 20.5016 80.195 20.5476 80.2279 20.5827C80.2608 20.6179 80.3056 20.6395 80.3535 20.6436C80.4014 20.6477 80.4492 20.6338 80.4875 20.6047C80.5258 20.5756 80.552 20.5334 80.561 20.4861C80.713 19.9743 80.6546 19.7342 80.8848 18.9051C81.3966 17.033 81.9213 16.7271 81.0466 14.5743C81.0279 14.5335 80.9948 14.5009 80.9538 14.4827C80.9127 14.4644 80.8663 14.4618 80.8235 14.4753C80.7806 14.4888 80.7441 14.5174 80.7208 14.5559C80.6976 14.5944 80.6892 14.64 80.6972 14.6842C80.9625 15.8762 81.2283 16.4207 80.807 17.6676C80.5373 18.4388 80.0749 19.6471 80.1754 20.4535Z" fill="#0047AB"/>
<path d="M61.9541 43.278C61.8818 43.6275 61.8862 43.8413 61.0051 43.4468C60.5515 43.2101 60.129 42.918 59.7474 42.5771C59.5791 42.4603 59.4073 42.7098 59.537 42.8523C60.0874 43.4547 62.2288 45.1392 62.452 43.3379C62.4788 43.0607 62.0115 43.0023 61.9541 43.278Z" fill="#0047AB"/>
<path d="M58.0348 41.464C57.8759 41.464 57.2215 41.9986 59.45 41.8724C59.8296 41.8496 60.3217 41.7591 60.5776 42.112C60.617 42.1592 60.673 42.1894 60.7341 42.1964C60.7952 42.2035 60.8566 42.1867 60.9057 42.1497C60.9548 42.1127 60.9878 42.0583 60.9978 41.9976C61.0079 41.937 60.9942 41.8748 60.9597 41.8239C60.5419 41.0923 59.298 41.5838 58.0348 41.464Z" fill="#0047AB"/>
<path d="M60.7201 46.323C60.2924 46.323 60.5716 47.0581 61.2319 46.6175C61.3774 46.5185 61.5556 46.2774 61.4101 46.1413C61.2646 46.0052 60.9017 46.323 60.7201 46.323Z" fill="#0047AB"/>
<path d="M56.0879 45.0985C55.9681 44.9782 55.7052 45.0821 55.8028 45.2673C56.4507 46.4949 58.799 48.6229 60.3667 47.5893C60.5968 47.4373 60.3667 47.0255 60.1192 47.1651C58.65 47.9843 56.9373 45.9494 56.0879 45.0985Z" fill="#0047AB"/>
<path d="M61.876 45.416C62.272 45.2095 62.4328 44.7908 62.1611 44.6938C61.8146 44.5705 61.9052 45.1214 61.3933 45.1214C60.9924 45.1244 61.2458 45.7451 61.876 45.416Z" fill="#0047AB"/>
<path d="M54.5459 44.8391C54.7008 44.9381 54.9473 45.0272 55.0834 44.7614C55.6472 43.6927 56.4284 42.1701 57.7267 41.0915C57.8792 40.9653 58.2287 40.6638 58.1158 40.3723C58.003 40.0807 54.1702 36.5014 51.7957 32.2543C53.4409 30.5614 55.1707 28.9527 56.9783 27.4344C57.205 27.2335 56.8976 26.8221 56.6546 27.0097C54.8583 28.4265 53.1931 30.0018 51.6788 31.7167C51.1838 32.2963 51.3358 32.3646 51.6204 33.074C52.5471 35.3871 55.9324 38.7754 57.5678 40.4534C56.4223 41.571 55.4903 42.8881 54.8176 44.3402C53.1109 43.2586 51.8343 41.9726 50.3508 40.9004C50.1889 40.7836 49.9394 40.994 50.0884 41.1593C51.4336 42.5469 52.9286 43.7811 54.5459 44.8391Z" fill="#0047AB"/>
<path d="M50.3636 22.1333C52.6698 20.3968 55.0705 19.2128 57.6619 19.1633C57.8015 21.1071 59.0419 22.2249 60.9501 22.4352C62.6331 22.6233 64.1637 21.6838 64.2538 19.9409C64.2538 19.7954 63.9756 19.685 63.93 19.8503C62.7812 23.347 58.4192 21.5002 58.2578 19.5944C58.197 18.8519 58.2192 18.6227 57.5911 18.6227C55.2487 18.5673 52.0253 19.9182 50.1403 21.862C50.0334 21.9848 50.227 22.2323 50.3636 22.1333Z" fill="#0047AB"/>
<path d="M64.387 19.5757C67.2917 20.7994 70.1528 22.52 72.0773 25.0599C72.2976 25.3514 72.7995 25.0792 72.5792 24.7747C70.9012 22.4482 67.2991 19.8247 64.481 19.2159C64.4363 19.2112 64.3913 19.2226 64.3543 19.2482C64.3173 19.2738 64.2907 19.3118 64.2793 19.3554C64.2679 19.3989 64.2725 19.4451 64.2923 19.4855C64.3121 19.526 64.3457 19.558 64.387 19.5757Z" fill="#0047AB"/>
<path d="M66.7323 24.3439C66.7079 24.3109 66.6753 24.2849 66.6378 24.2685C66.6002 24.2521 66.559 24.2459 66.5183 24.2505C66.4776 24.255 66.4388 24.2702 66.4058 24.2945C66.3728 24.3188 66.3468 24.3514 66.3303 24.3889C66.3303 24.3889 66.755 26.9545 66.5348 32.9732C66.5348 33.187 66.8585 33.1806 66.9006 32.9732C66.992 32.3461 67.0493 31.7146 67.0723 31.0813C68.044 31.9822 68.3875 31.4669 68.1059 31.2466C67.7513 31.0041 67.4136 30.7379 67.0951 30.4497C67.1109 29.6107 67.0981 24.9428 66.7323 24.3439Z" fill="#0047AB"/>
<path d="M73.6567 28.4584C74.3497 25.9551 75.714 23.7158 77.0777 21.5284C78.1071 21.9099 79.1974 22.101 80.2952 22.0922C79.8683 24.8703 79.2564 27.6169 78.4637 30.3136C76.7559 35.8527 74.3057 34.9666 69.3933 32.4124C69.3507 32.3928 69.3024 32.3898 69.2577 32.4039C69.213 32.4181 69.1752 32.4485 69.1518 32.489C69.1283 32.5296 69.1208 32.5775 69.1308 32.6233C69.1408 32.6691 69.1675 32.7095 69.2057 32.7366C72.8722 35.1621 76.9802 36.7239 78.7028 31.4407C79.7349 28.2987 80.4396 25.0583 80.8055 21.7714C80.8113 21.7409 80.8099 21.7094 80.8013 21.6796C80.7927 21.6498 80.7772 21.6223 80.756 21.5996C80.7349 21.5769 80.7086 21.5594 80.6795 21.5487C80.6504 21.5379 80.6191 21.5342 80.5882 21.5378C79.4411 21.6467 78.2844 21.4825 77.2128 21.0586C76.9084 20.9596 76.7916 20.9938 76.6624 21.214C75.3259 23.5108 73.8246 25.772 73.2835 28.4089C73.2112 28.6559 73.5924 28.6945 73.6567 28.4584Z" fill="#0047AB"/>
<path d="M53.2273 44.9657C53.5678 45.0013 53.6421 44.4736 53.299 44.438C52.4402 44.3439 50.6874 44.1905 50.0043 43.8747C49.8004 43.7806 48.6703 44.491 53.2273 44.9657Z" fill="#0047AB"/>
<path d="M65.3814 43.1943C64.9537 43.421 64.3914 43.5472 63.1138 43.6893C62.9777 43.6893 62.5663 44.1462 63.7618 44.1135C64.2216 44.0977 65.6537 43.9353 65.8056 43.4433C66.3793 41.2852 66.7001 39.0677 66.7615 36.8355C66.7808 36.5113 66.316 36.5113 66.2947 36.8548C66.2169 38.9945 65.9107 41.1197 65.3814 43.1943Z" fill="#0047AB"/>
<path d="M90.6062 78.4341C63.9752 78.3015 36.9561 78.2173 10.3226 78.2985C9.98208 78.2985 9.95287 78.8296 10.3028 78.8361C36.9561 79.2019 63.95 79.0435 90.5805 79.1148C90.6704 79.1177 90.7579 79.0849 90.8238 79.0235C90.8897 78.9622 90.9285 78.8772 90.9319 78.7873C90.9353 78.6973 90.903 78.6096 90.8419 78.5435C90.7809 78.4773 90.6961 78.438 90.6062 78.4341Z" fill="#0047AB"/>
<path d="M78.9347 74.2852C79.445 74.606 82.8709 75.843 83.8456 76.3098C84.5554 76.6528 84.0931 76.7756 83.5802 76.8048C81.1864 76.9478 78.7857 76.9864 76.3889 76.9379C75.0766 76.9117 75.1123 77.0478 75.0054 76.1608C74.9481 75.5137 74.9557 74.8625 75.0281 74.2169C75.0346 74.1865 75.035 74.1551 75.0293 74.1246C75.0236 74.0941 75.0118 74.065 74.9947 74.039C74.9776 74.0131 74.9556 73.9908 74.9298 73.9735C74.904 73.9561 74.875 73.9441 74.8445 73.9381C74.814 73.9321 74.7826 73.9322 74.7522 73.9384C74.7218 73.9447 74.6929 73.9569 74.6672 73.9744C74.6415 73.992 74.6196 74.0144 74.6027 74.0405C74.5858 74.0665 74.5743 74.0957 74.5688 74.1263C74.3898 74.783 74.3394 75.4681 74.4203 76.1439C74.5559 77.6443 75.0143 77.4918 76.1948 77.5176C77.8145 77.5537 82.4373 77.5408 83.856 77.3626C85.2746 77.1844 85.2034 76.2578 83.7005 75.6197C83.114 75.3722 79.6871 74.0001 79.0876 73.8803C78.7891 73.8313 78.6961 74.1347 78.9347 74.2852Z" fill="#0047AB"/>
<path d="M35.6904 68.5088C35.9236 68.4172 35.7617 68.1073 35.5513 68.1301C34.6767 68.2172 33.5496 68.687 33.5496 69.7171C33.5496 71.6802 37.466 76.4842 39.2282 77.4203C39.7009 77.6732 40.433 77.8163 40.731 77.2356C41.029 76.655 40.4073 76.0476 40.0831 75.616C39.055 74.315 38.5595 72.6719 38.6971 71.0194C38.6971 70.7407 38.3926 70.6234 38.3214 70.9204C37.9229 72.5727 38.6 74.6621 39.6623 75.9961C39.8677 76.2072 40.0482 76.441 40.2004 76.6931C40.3721 77.0589 40.0771 77.1431 39.7791 77.0525C38.1323 76.559 34.1559 71.3402 34.096 69.7918C34.0634 68.9751 35.1123 68.7365 35.6904 68.5088Z" fill="#0047AB"/>
<path d="M58.8381 19.3555C59.097 19.398 59.1618 18.7882 59.2915 18.3254C60.7884 18.7852 62.0091 17.5334 62.7565 16.3815C62.7738 16.3425 62.7766 16.2987 62.7644 16.2578C62.7522 16.217 62.7257 16.1818 62.6899 16.1588C62.654 16.1357 62.6111 16.1262 62.5688 16.132C62.5266 16.1378 62.4878 16.1585 62.4595 16.1904C61.7373 17.1621 60.5741 18.458 59.2202 17.8363C57.3833 16.9948 56.7096 12.6853 56.6868 10.6737C56.6765 10.6387 56.6552 10.6081 56.626 10.5863C56.5968 10.5645 56.5614 10.5527 56.525 10.5527C56.4886 10.5527 56.4531 10.5645 56.4239 10.5863C56.3948 10.6081 56.3734 10.6387 56.3631 10.6737C56.2597 12.5235 57.0338 17.1849 58.8876 18.1793C58.7896 18.6362 58.5466 19.3074 58.8381 19.3555Z" fill="#0047AB"/>
<path d="M56.0586 9.99992C57.2634 10.2039 59.1875 9.95784 61.2412 9.40592C61.4813 10.5494 61.9248 11.3493 62.6668 11.6735C62.7767 11.723 62.9257 11.7413 62.9584 11.5889C62.9903 11.4276 63.0626 11.277 63.1686 11.1513C63.2745 11.0256 63.4107 10.9289 63.5642 10.8701C64.5844 10.5459 64.7983 12.1269 64.3706 12.7422C64.0855 13.1471 63.7766 12.9239 63.8132 13.3545C64.0041 15.3177 63.9179 17.2979 63.5573 19.2371C63.5217 19.4638 63.8622 19.4574 63.93 19.2762C64.3285 18.1907 64.3805 14.5856 64.1988 13.4649C65.1255 13.209 65.2839 11.5795 64.7369 10.8731C65.9803 10.436 66.1333 8.38226 64.6458 8.12931C65.8338 7.08635 64.5844 5.45037 63.2989 5.90181C63.5217 4.28217 61.1897 3.65055 60.7071 5.16327C60.1403 3.54363 57.5812 4.15595 57.649 5.65827C55.9774 4.81677 55.2265 6.92795 56.065 7.64372C54.6488 7.81004 54.8508 9.79598 56.0586 9.99992Z" fill="#0047AB"/>
<path d="M61.8407 51.3637C61.3432 51.6523 60.9127 52.0433 60.5775 52.5106C63.1267 54.1659 69.136 58.3412 69.7845 59.3129C70.4329 60.2846 73.7623 72.3611 74.1405 73.3363C75.8771 73.3361 77.6107 73.1909 79.3231 72.9022C78.8925 68.61 77.4505 57.7482 76.2541 55.4098C75.0577 53.0715 66.6784 45.6915 65.5621 44.4248C64.6723 44.6678 63.7536 44.7888 62.8312 44.7847C62.3555 46.4464 60.9591 49.0575 58.4099 48.2734C57.1981 50.1455 55.2914 52.6631 54.9726 52.8086C54.6538 52.9542 53.7772 52.6106 53.8227 52.1057C53.8682 51.6008 56.6764 47.7002 56.8323 47.47C56.1575 46.9242 55.5812 46.2667 55.1285 45.5262C53.4231 45.575 51.7169 45.4613 50.033 45.1866C50.1107 47.872 50.1424 56.981 50.033 58.7041C49.7637 62.9002 48.7806 62.6111 42.061 62.6111C41.0176 63.3269 37.5743 66.0573 36.2527 67.2562C37.1138 68.5834 38.1936 69.755 39.4464 70.7212C42.362 69.4025 52.3362 63.3516 53.7158 61.7414C54.9597 60.2935 58.698 54.5599 59.9256 52.7561C61.4843 50.4856 62.1615 51.1464 61.8407 51.3637Z" fill="#0047AB"/>
</svg>
