<svg xmlns="http://www.w3.org/2000/svg" fill="none" viewBox="-0.5 -0.5 100 100" id="Bug-Found--Streamline-Brooklyn.svg" height="100" width="100"><desc>Bug Found Streamline Illustration: https://streamlinehq.com</desc><g id="bug-found--work-job-office-company-bug-found"><g id="table"><g id="vector"><path fill="#0047ab" d="M5.2390799999999995 64.35693c-0.43313985 -0.1485 -0.36482984999999996 -0.428175 -0.018314999999999998 -0.5445 0.759231 -0.25443 24.6260025 -0.3465 47.31111 -0.34352999999999995v1.086525c-22.5316575 0.09603 -46.348632 0.12028499999999999 -47.292795 -0.198495Z" stroke-width="1"></path><path fill="#0047ab" d="M93.22681499999999 63.66393c0.377685 0.20047500000000001 0.318285 0.62172 -0.580635 0.6568649999999999 0.00297 0 -8.960985 0.067815 -21.149865 0.1386l0.866745 -0.96327c11.95524 0.03366 20.725649999999998 0.094545 20.863755 0.167805Z" stroke-width="1"></path><path fill="#0047ab" d="M56.925 64.53612v-1.065735c4.06791 0.00297 8.04573 0.008415 11.787434999999999 0.01683l0.6499349999999999 0.9840599999999999c-3.9213899999999997 0.022275 -8.125425 0.04455 -12.437370000000001 0.064845Z" stroke-width="1"></path></g></g><g id="mouse pad"><path id="Subtract" fill="#0047ab" fill-rule="evenodd" d="M69.18119999999999 77.052195c-2.584395 0.00198 -5.87763 -0.00396 -10.066815 -0.01188 -4.652505 -0.00891 -10.410394499999999 -0.019305 -17.528445 -0.023265 -17.3433645 -0.011385 -20.146103999999998 0.09999000000000001 -20.240649 -0.35342999999999997 -0.018612 -0.089595 0.068112 -0.20097 0.169389 -0.33957000000000004 7.0670655 -9.653985 7.1249805 -9.653985 7.48341 -9.6525l0.02475 0c30.76128 -0.255915 33.193215 -0.187605 36.501795 -0.094545 1.167705 0.032670000000000005 2.444805 0.068805 5.1138449999999995 0.094545l0.02475 0c0.20987999999999998 -0.00099 0.316305 -0.00099 1.778535 1.924065 -0.28017 -0.06633 -0.558855 -0.11979 -0.834075 -0.160875 -0.7519049999999999 -1.02564 -0.88506 -1.16622 -1.034055 -1.185525 -0.02673 -0.003465 -0.053954999999999996 -0.00297 -0.08563499999999999 -0.00297H29.176785c-0.031778999999999995 0 -0.0592515 -0.00099 -0.086229 0.002475 -0.315909 0.039105 -0.562914 0.63558 -6.840306 9.11394h45.418724999999995c0.20195999999999997 0.10493999999999999 0.414315 0.208395 0.637065 0.30987 0.27967499999999995 0.128205 0.57222 0.25542 0.87516 0.37966500000000003Z" clip-rule="evenodd" stroke-width="1"></path></g><g id="computer"><path id="Subtract_2" fill="#0047ab" fill-rule="evenodd" d="M81.08298 15.037803c0.8914949999999999 0.41352300000000003 0.85635 2.8247175 1.2771000000000001 38.884032 0.004455 0.37323 0.010395 0.7192350000000001 0.01584 1.04049 0.050984999999999996 2.90367 0.06633 3.754575 -1.56915 3.77982 -0.341055 0.00594 -0.79596 0.01782 -1.48104 0.036629999999999996 -1.46025 0.039105 -3.9639599999999997 0.10593 -8.630325 0.198495 -0.327195 -0.41877 -0.6435 -0.8217 -0.94941 -1.210275 9.164925 -0.140085 11.018205 0.10593 11.430045 -0.5514300000000001 0.109395 -0.17423999999999998 0.11731499999999999 -0.41184 0.13365000000000002 -0.737055v-0.00198c0.06633 -0.945945 0.05148 -1.896345 -0.045045 -2.839815 -0.00792 -0.06336 0.008415 -0.13464 0.024255000000000002 -0.20493 0.028215 -0.12276 0.05544 -0.24255 -0.048510000000000005 -0.309375 -0.02772 -0.01782 -5.23611 0.064845 -12.65418 0.18216 -0.769725 0.01188 -1.562715 0.02475 -2.3764950000000002 0.03762 -1.17711 -1.4483700000000002 -2.09583 -2.550735 -2.80665 -3.40065 7.81506 -0.06336 13.873365 -0.09801 14.99058 -0.09108 0.09999000000000001 0.00099 0.17523 0.00198 0.23166 -0.03069 0.268785 -0.15543 0.094545 -1.07811 0.01881 -6.453711 -0.089595 -6.34788 -0.152955 -19.71486 -0.11879999999999999 -21.7206 0.00099 -0.07613099999999999 0.03069 -0.1359765 0.016335000000000002 -0.182358 -0.073755 -0.2402235 -1.32264 -0.120384 -13.826834999999999 -0.037422 -5.553405 0.036432 -6.291945 0.1467675 -6.82803 -0.1325115 -0.133155 -0.069597 -0.25443 -0.1634985 -0.434115 -0.28873350000000003 19.69803 -0.109791 21.069675 -0.0599445 21.090465 -0.2046825 0.00297 -0.0210375 -0.022275 -0.046134 -0.024255000000000002 -0.0764775 -0.03861 -0.6053355 -0.021779999999999997 -1.048113 -0.0099 -1.3659525000000001 0.02079 -0.555489 0.02772 -0.7293825 -0.29897999999999997 -0.7224525 -9.661904999999999 0.2066625 -56.201656500000006 -0.2343825 -57.8554515 -0.25007399999999996 -0.029799 -0.0002475 -0.045045 -0.00039600000000000003 -0.045243 -0.00039600000000000003 -0.505494 -0.0053955 -0.5053949999999999 -0.0035145000000000003 -0.486486 0.5050485l0.0004455 0.011731499999999999c0.12612600000000002 3.768138 0.210078 12.513451499999999 0.28160549999999995 19.966617 0.0298485 3.1061745 0.057519 5.987916 0.08514 8.191458 0.03564 2.752101 -0.07266600000000001 3.3807509999999996 0.12840300000000002 3.503511 0.058855500000000005 0.036135 0.1442925 0.028710000000000003 0.26764649999999995 0.01881 2.8902555 -0.23413499999999998 22.450824 -0.46233 38.066985 -0.59994 0.12028499999999999 0.17374499999999998 0.266805 0.387585 0.44649 0.65142 0.42273 0.6192449999999999 1.032075 1.5112349999999999 1.9270349999999998 2.7903149999999997 -17.1625905 0.267795 -39.5066925 0.594495 -42.6829095 0.44451 -0.259875 -0.012375 -0.31086 0.06831000000000001 -0.3069 0.303435 0.008315999999999999 1.0607849999999999 0.0793485 2.120085 0.21284999999999998 3.172455 0.0504405 0.367785 0.080586 0.64944 0.2178495 0.86229 0.6267195 0.971685 3.486978 0.503415 20.711295 0.16137 13.16799 -0.26136000000000004 19.974239999999998 -0.381645 22.55418 -0.427185 0.771705 -0.01386 1.16523 -0.02079 1.237995 -0.02277 0.419265 -0.01188 0.82863 -0.023265 1.22859 -0.03366 0.27522 0.38214 0.563805 0.780615 0.865755 1.197405 -1.0593000000000001 0.018314999999999998 -2.19087 0.037125 -3.400155 0.056925 -4.125825000000001 0.06633 -4.77576 0.028710000000000003 -4.8312 0.19206 -0.01287 0.039105 0.007424999999999999 0.0891 0.02277 0.15444 1.1122649999999998 4.756455 0.768735 5.84001 1.09593 6.109785 0.10395 0.08613 0.27621 0.089595 0.5841 0.10296 0.75339 -0.01584 1.5023250000000001 0.12078 2.20176 0.40194 1.1325599999999998 0.53262 2.145825 2.02356 0.7999200000000001 2.095335 -0.47420999999999996 0.02574 -9.497565 0.188595 -11.03256 0.216315 -0.12375 0.002475 -0.19899 0.00396 -0.21681 0.00396 -10.152846 0.17523 -12.1450725 0.334125 -12.3102045 -0.14107499999999998 -0.039996 -0.11533500000000001 0.027373500000000002 -0.267795 0.11187 -0.46678499999999995 0.1426095 -0.3366 0.3601125 -0.63657 0.6359265 -0.8766449999999999 0.2758635 -0.24007499999999998 0.602811 -0.414315 0.956043 -0.509355 1.4424795 -0.439065 2.182356 -0.42471 2.5696440000000003 -0.41778 0.3302145 0.006435 0.4040685 0.00792 0.438471 -0.280665 0.6214725 -5.226705 1.1234520000000001 -6.08553 0.9759915 -6.2172 -0.034551 -0.031185 -0.10484099999999999 -0.021779999999999997 -0.2176515 -0.0198 0.010395 0 -23.819895000000002 0.57321 -25.02126 0.059399999999999994 -1.5030675 -0.642015 -1.5037605 -0.747945 -1.6008795 -15.810696 -0.0039105 -0.6079095 -0.008019 -1.240173 -0.0123255 -1.8978300000000001 0 -0.0003465 -0.0002475 -0.0141075 -0.0005939999999999999 -0.040788 -0.015048 -1.0410345 -0.31348349999999997 -21.704463 -0.09098099999999999 -25.451712l0 -0.0004455c0.10296 -1.7410139999999998 0.11602799999999999 -1.9627245 20.1707055 -1.6459245 3.40857 0.053658 10.154330999999999 0.0402435 17.3606895 0.025938 12.1374 -0.024057 25.581105 -0.050787 26.591894999999997 0.23591700000000002 0.08563499999999999 0.024255000000000002 0.16434 0.044649 0.23661 0.078309ZM55.410795 66.3696c0.04554 -0.046035 0.07524 -0.104445 0.08563499999999999 -0.1683v-0.00198c-0.059399999999999994 -1.0330650000000001 -0.17671499999999998 -2.06217 -0.35095499999999996 -3.0823650000000002 -0.03564 -0.2277 -0.06831000000000001 -0.44005500000000003 -0.099 -0.63756 -0.321255 -2.0864249999999998 -0.38907 -2.525985 -0.891 -2.48094 -0.59202 0.05445 -0.6900299999999999 0.66825 -0.6083550000000001 1.2573 0.26631 1.728045 0.72666 3.419955 1.372635 5.044545 0.03069 0.05643 0.078705 0.10196999999999999 0.13662000000000002 0.130185 0.05841 0.02772 0.12375 0.037125 0.18711 0.026234999999999998s0.12177 -0.04158 0.16731000000000001 -0.08711999999999999Z" clip-rule="evenodd" stroke-width="1"></path><path id="vector_2" fill="#0047ab" d="M42.3120555 21.1138785c-0.1546875 0.1522125 -0.33947099999999997 0.270468 -0.54252 0.34719300000000003 -0.2029995 0.076725 -0.419859 0.110187 -0.63657 0.09830699999999999 -11.23155 0.027225 -17.41113 0.12078 -19.3842 0.06732 -0.946935 -0.02574 -0.9202049999999999 -0.353925 -0.0099 -0.39055500000000004 2.18493 -0.08811 9.440145000000001 -0.021285 20.57319 -0.122265Z" stroke-width="1"></path><path id="Subtract_3" fill="#0047ab" fill-rule="evenodd" d="M61.941825 48.182260500000005c9.185220000000001 -0.0962775 16.264709999999997 -0.1716165 4.7232899999999995 -0.0843975 -0.00891 -0.005148 -0.01683 -0.0104445 -0.02475 -0.015741 -0.005444999999999999 -0.003861 -0.011385 -0.007722 -0.017325 -0.011484 8.22888 -0.0841005 9.42183 0.010197 9.544094999999999 -0.307692 0.02673 -0.06944850000000001 0.002475 -0.15854849999999998 -0.010889999999999999 -0.273438l0.198 -12.355694999999999c0.001485 -0.1013265 0.072765 -0.18696149999999997 0.059895 -0.2572515 -0.048015 -0.2612115 -1.2523499999999999 -0.3109095 -11.464695 -0.1681515 -0.00099 0.183645 -0.005444999999999999 0.3671415 -0.01287 0.5504895000000001 9.491625 -0.15642 10.717245 -0.16503299999999999 10.83555 0.19240649999999998 0.02772 0.08400149999999999 -0.00594 0.188298 -0.007424999999999999 0.31561199999999995 -0.136125 10.2290265 0.04158 11.494098000000001 -0.297495 11.652498000000001 -0.048015 0.0226215 -0.107415 0.022671 -0.17919 0.023067 -2.089395 0.0108405 -7.36758 0.060587999999999996 -13.814955 0.1264725 0.11583 0.1660725 0.26977500000000004 0.365904 0.468765 0.6133050000000001Zm-5.87763 0.061677c-0.090585 -0.09761399999999999 -0.178695 -0.17097299999999999 -0.27027 -0.200772 -0.119295 -0.038807999999999995 -0.320265 0.0344025 -0.65637 0.15706350000000002 -0.048015 0.0174735 -0.09850500000000001 0.035887499999999996 -0.151965 0.055143 0.35689499999999996 -0.003762 0.71676 -0.0075734999999999995 1.0786049999999998 -0.0114345Zm-10.8005535 0.121869c-0.551727 -0.17166599999999999 -1.0908315 -0.37422 -1.6146405 -0.606969 -10.911087 0.12018599999999999 -20.457261000000003 0.2321055 -20.889396 0.2484405 -0.035244 0.001287 -0.06628049999999999 0.003465 -0.0936045 -0.0055934999999999995 -0.24636149999999998 -0.08172449999999999 -0.18923849999999998 -1.0786545 -0.1954755 -11.9110365 0 -0.0909315 -0.000891 -0.156519 0.0281655 -0.203544 0.11330549999999999 -0.183348 0.6820605 -0.0852885 3.5358344999999995 -0.113256 3.2684849999999996 -0.0319275 6.3225855 -0.064152 9.176409 -0.0961785 -0.015246000000000001 -0.170082 -0.0275715 -0.339768 -0.0369765 -0.508959 -3.8506544999999996 0.059202 -8.059243500000001 0.12320550000000001 -12.658882499999999 0.1918125l-0.014949 0.00019800000000000002c-0.5296500000000001 0.008167500000000001 -0.534501 0.008217 -0.534996 0.5418270000000001 0 0.010395 0.06138 12.158685 0.06138 12.14334 0 0.074547 -0.0000495 0.1374615 0.022968 0.1904265 0.203544 0.468171 2.2109175 0.1521135 22.007502000000002 0.1521135 0.00029699999999999996 -0.0042075 0.438669 -0.0120285 1.2066615 -0.0226215Z" clip-rule="evenodd" stroke-width="1"></path><path id="Subtract_4" fill="#0047ab" fill-rule="evenodd" d="M64.659375 31.673168999999998c4.8906 -0.0240075 8.177895 -0.042916499999999996 8.19324 -0.0474705 2.689335 -0.020493 3.3298650000000003 0.07053749999999999 3.4902450000000003 -0.16503299999999999 0.055935 -0.0829125 0.052965 -0.2063655 0.05841 -0.38936699999999996 0.07227 -2.405205 0.07177499999999999 -4.809419999999999 0.056925 -7.21215 -0.002475 -0.4078305 -0.14553 -0.405603 -0.940995 -0.393129 -0.16236 0.002574 -0.35194499999999995 0.005544 -0.572715 0.005544 0.078705 0.0804375 0.10395 0.1802295 0.12771 0.27130950000000004 0.035144999999999996 0.138204 0.06534000000000001 0.2563605 0.26829000000000003 0.2563605 0.06336 0 0.13365000000000002 -0.009503999999999999 0.20393999999999998 -0.019057499999999998 0.17226 -0.023462999999999998 0.346995 -0.047124000000000006 0.42867 0.06855750000000001 0.00099 0.0014355 0.00198 0.002772 0.00297 0.004157999999999999 0.038114999999999996 0.0562815 0.016335000000000002 0.15330149999999998 -0.111375 6.4348019999999995 -0.010889999999999999 0.5573699999999999 -0.016335000000000002 0.5642999999999999 -0.547965 0.56529 -3.3882749999999997 0.008217 -7.03989 0.0210375 -10.78407 0.0369765 0.046035 0.1936935 0.08811 0.3881295 0.12672 0.583209Zm-29.286081 0.117216c0.031234500000000002 -0.177606 0.065637 -0.3541725 0.1032075 -0.5296995 -6.920892 0.0522225 -11.866833000000002 0.10073249999999999 -12.7287765 0.12790800000000002 -0.072567 0.002277 -0.1282545 0.0040095 -0.1709235 -0.018661499999999998 -0.2265615 -0.120483 -0.086724 -0.9298575 -0.1641915 -6.0069735 -0.0046035 -0.296703 0.0137115 -0.29650499999999996 0.808137 -0.287595 0.312246 0.0035145000000000003 0.744381 0.008315999999999999 1.3421429999999999 -0.00297 5.2439805 -0.098802 9.916632 -0.185526 14.0804235 -0.262548 0.1654785 -0.1962675 0.33600599999999997 -0.388278 0.5113844999999999 -0.575685 -6.6749265 0.1506285 -12.728479499999999 0.2938815 -16.665363 0.399663 -0.1281555 0.0034154999999999997 -0.225225 0.0043560000000000005 -0.29858399999999996 0.04653 -0.31967100000000004 0.1837935 -0.1890405 1.150875 -0.217206 6.5201400000000005 -0.00297 0.56826 0 0.57816 0.54747 0.5910299999999999 0.9996524999999999 0.023067 6.1742835 0.017721 12.852279000000001 -0.0011385ZM60.409800000000004 23.771731499999998c4.982175 -0.10484099999999999 9.38322 -0.19488149999999999 12.477465 -0.25561799999999996 -0.00891 0.035838 -0.017325 0.069795 -0.030195 0.10196999999999999 -0.15741 0.3963465 -0.980595 0.528264 -11.854755 0.7638839999999999 -0.19107 -0.208593 -0.388575 -0.412137 -0.592515 -0.6102359999999999Z" clip-rule="evenodd" stroke-width="1"></path><path id="vector_3" fill="#0047ab" d="M49.930155 57.337830000000004c-0.15939 -0.00396 -0.3168 -0.0396 -0.4623795 -0.104445 -0.145728 -0.064845 -0.277299 -0.157905 -0.3871395 -0.273735 -0.1098405 -0.11583 -0.19577250000000002 -0.251955 -0.2529945 -0.40095000000000003 -0.0571725 -0.148995 -0.084447 -0.307395 -0.080289 -0.46678499999999995 0.004157999999999999 -0.159885 0.039699 -0.3168 0.104544 -0.46233 0.0648945 -0.146025 0.1578555 -0.277695 0.273537 -0.387585 0.115731 -0.109395 0.251955 -0.195525 0.4008015 -0.252945 0.148995 -0.056925 0.30789 -0.08415 0.46728 -0.08019 1.565685 0.02673 1.572615 2.45025 -0.06336 2.428965Z" stroke-width="1"></path><path id="vector_4" fill="#0047ab" d="M76.93686 19.197189c0.16681500000000002 0.011929499999999999 0.32274 0.08711999999999999 0.436095 0.2102265 0.113355 0.12310650000000001 0.175725 0.284823 0.17374499999999998 0.4521825 -0.001485 0.16731000000000001 -0.06732 0.3276405 -0.18315 0.44822249999999997 -0.116325 0.12058200000000001 -0.273735 0.192357 -0.441045 0.20062349999999998 -0.845955 -0.00198 -0.77814 -1.3023449999999999 0.014355000000000001 -1.311255Z" stroke-width="1"></path><path id="vector_5" fill="#0047ab" d="M74.998935 19.342719c0.16632 0.0049995 0.32521500000000003 0.070983 0.44599500000000003 0.1854765 0.12078 0.11444399999999999 0.195525 0.269379 0.209385 0.43525349999999996 -0.012375 0.15409350000000002 -0.080685 0.298287 -0.192555 0.405306 -0.111375 0.107019 -0.25839 0.169389 -0.41283 0.175329 -0.08019 0.0054945 -0.160875 -0.0050985 -0.23661 -0.031185 -0.07622999999999999 -0.0260865 -0.146025 -0.067122 -0.20592 -0.1207305 -0.059895 -0.053608499999999996 -0.108405 -0.1186515 -0.14256 -0.1913175 -0.03465 -0.07266600000000001 -0.053954999999999996 -0.15147 -0.057420000000000006 -0.231759 -0.00297 -0.080289 0.0099 -0.1604295 0.03762 -0.235719 0.028215 -0.07524 0.07128 -0.144144 0.12672 -0.2025045 0.054945 -0.05841 0.121275 -0.105138 0.19503 -0.1374615 0.07325999999999999 -0.0323235 0.152955 -0.049549499999999996 0.233145 -0.050688000000000004Z" stroke-width="1"></path></g><g id="mouse"><path id="vector_6" fill="#0047ab" d="M76.91805 70.811235c2.370555 1.89189 3.204135 7.213635 -1.0746449999999999 7.575975 -3.77685 0.31977 -8.88426 -1.84338 -10.671705000000001 -3.9708900000000003 -3.6461699999999997 -4.339665 4.953465 -9.02682 11.74635 -3.6050850000000003Zm0.774675 6.12414c0.62469 -0.636075 1.0454400000000001 -2.02455 0.453915 -2.890305 -1.8715950000000001 -2.73933 -4.993065 -3.6912149999999997 -8.308079999999999 -3.81942 -0.064845 -0.00495 -0.129195 0.008415 -0.186615 0.039105 -0.057420000000000006 0.030195 -0.104445 0.07622999999999999 -0.13662000000000002 0.13266 -0.3465 0.45441000000000004 -1.35135 0.6103350000000001 -1.7438850000000001 0.20047500000000001 -0.475695 -0.495 -0.95733 -0.11187 -1.782 -0.014355000000000001 -0.579645 0.06831000000000001 -0.813285 0.486585 -1.02861 0.9405 -0.037125 0.062865 -0.0495 0.13761 -0.03465 0.20889 0.014849999999999999 0.07177499999999999 0.055935 0.135135 0.11533500000000001 0.177705 2.103255 2.05326 3.90753 2.406195 6.765165 2.2769999999999997 2.53638 -0.111375 4.7534849999999995 0.45837 5.886045 2.747745Zm-11.51469 -6.735465c1.366695 -0.198 1.2508650000000001 -0.1485 1.367685 -0.27027 0.20097 -0.24156 0.48213 -0.40292999999999995 0.792495 -0.453915 0.30987 -0.05148 0.6281549999999999 0.011385 0.89595 0.175725 1.01277 0.7756649999999999 4.37877 -0.5816250000000001 8.615969999999999 3.326895 -0.679635 -2.76507 -8.14968 -5.7801149999999994 -11.672099999999999 -2.778435Z" stroke-width="1"></path></g><g id="magnifier"><path id="vector_7" fill="#b366ff" d="M49.698 19.622839499999998c14.01444 -0.08316 19.746045 16.199865 11.270655 24.930675 -0.41085 0.42322499999999996 0.8499150000000001 1.05732 0.36927 1.89585 -0.323235 0.56331 -0.109395 0.8568450000000001 0.25245 1.27809 2.224035 2.5868205 4.27878 5.3127855 6.435 7.953610500000001 5.775659999999999 7.06761 5.6043899999999995 6.7503150000000005 4.862385 7.78833 -0.7776449999999999 1.089 -1.77507 1.881 -3.1076099999999998 1.78992 -0.594 -0.041085 -11.522609999999998 -16.0686405 -11.853765 -15.9661755 -1.24443 0.38407050000000004 -1.62459 -1.0820699999999999 -2.13543 -1.2498749999999998 -0.00891 -0.00297 -7.245315 2.9516355 -13.88475 -1.209285 -4.74606 -2.9769300000000003 -7.553205 -8.419455 -6.41718 -15.433110000000001 1.114245 -6.8755500000000005 8.101665 -12.11067 14.208974999999999 -11.77803Zm0.28214999999999996 2.223045c-1.7055225 -0.027126 -3.398274 0.29803949999999996 -4.9723245 0.955251 -1.5740505 0.6571619999999999 -2.995542 1.6322130000000001 -4.175424 2.8640205 -1.1798819999999999 1.2318075000000002 -2.092761 2.6939385000000002 -2.6815634999999998 4.294817999999999 -0.5888025 1.600929 -0.8408070000000001 3.306105 -0.7402230000000001 5.0088555 0.68013 12.134925 15.704369999999999 15.5795805 22.466070000000002 7.635375000000001 7.12998 -8.37738 0.5593499999999999 -20.653875 -9.895545 -20.75832h-0.00099Zm20.1168 42.6055905c0.9553499999999999 -0.012375 2.7878399999999997 -1.562715 2.16513 -2.29482 -1.5345 -1.80477 -10.11186 -12.6744255 -11.39985 -14.433160500000001 -0.3465 -0.474705 -0.338085 0.20690999999999998 -1.9304999999999999 1.10979 -0.578655 0.328185 -0.27819000000000005 0.235125 2.521035 4.1049855 8.441235 11.667645 8.21799 11.602305 8.645175 11.513205h-0.00099Zm-13.64418 -16.7225355c0.891 0.71775 1.012275 0.91674 1.36026 0.65439 0.48213 -0.36432 1.21176 -0.33957000000000004 2.437875 -1.7622 0.396 -0.45787500000000003 0.37521 -0.62766 0.028710000000000003 -1.103355 -0.316305 -0.43362 -0.133155 0.37224 -3.826845 2.211165Z" stroke-width="1"></path><path id="vector_8" fill="#b366ff" d="M70.419195 63.32634c-0.396 0.047025 -5.6925 -6.952275 -5.92119 -7.25076 -0.12672 -0.165825 -0.235125 -0.333135 -0.020295 -0.511335 0.23710499999999998 -0.198 0.354915 0.00297 0.47322 0.15543 5.586075 7.19829 5.151465 7.436385 5.926635 6.90525 0.177705 -0.110385 0.335115 -0.249975 0.46629 -0.413325 0.114345 -0.15543 0.28611 -0.112365 0.22572 0.12177 -0.10790999999999999 0.23958 -0.266805 0.45243 -0.4653 0.6237 -0.19899 0.17176499999999997 -0.43263 0.297495 -0.6850799999999999 0.36927Z" stroke-width="1"></path><path id="vector_9" fill="#b366ff" d="M59.661854999999996 49.1891895c0.27076500000000003 0.032670000000000005 0.17720999999999998 -0.04257 2.85813 3.3659505 1.5755849999999998 2.001285 1.744875 2.10573 1.407285 2.3849099999999996 -0.286605 0.23710499999999998 -0.15345 0.313335 -4.158 -5.026725 -0.22720500000000002 -0.30195 -0.475695 -0.6538455 -0.107415 -0.7241355Z" stroke-width="1"></path></g><g id="bugs"><path id="f" fill="#b366ff" d="M74.12328 28.854936c-0.09504 0.1485 0.28214999999999996 0.26730000000000004 0.408375 0.572715 -0.09504 0.012177 -0.19107 0.0043560000000000005 -0.282645 -0.0229185 -0.09207 -0.0272745 -0.17671499999999998 -0.07340849999999999 -0.24948 -0.1354815 -0.076725 -0.0342045 -0.16038 -0.050886 -0.24453 -0.048806999999999996 -0.08415 0.0020295 -0.16632 0.02277 -0.24156 0.060687 -0.07524 0.037917 -0.14057999999999998 0.09207 -0.19206 0.158499 -0.051975 0.066429 -0.08811 0.1435005 -0.10593 0.225621 -0.002475 0.184437 -0.07722 0.36050849999999995 -0.2079 0.490545 -0.015345 -0.032670000000000005 -0.044055 -0.06336 -0.03762 -0.08563499999999999 0.202455 -0.75042 -0.5514300000000001 -0.8415 -0.8632799999999999 -1.2375 -0.12177 -0.15345 -0.28115999999999997 0.18414 -0.10642499999999999 0.50193 0.18414 0.33462000000000003 0.159885 0.74844 -0.043065 0.76725 -0.17968499999999998 0.01683 -0.07722 -0.198 -0.116325 -0.30393 -0.0891 -0.24056999999999998 -0.16533 -0.484605 -0.24453 -0.7291350000000001 -0.157905 -0.49005 0.195525 -1.01277 -0.33759 -0.87813 -0.693 0.17423999999999998 -1.09791 -0.31977 -1.627065 -0.878625 -0.21087 -0.22275 0.005444999999999999 -0.35095499999999996 0.18018 -0.288585 0.277695 0.1607265 0.54252 0.3427875 0.792 0.5445 0.43362 0.2772 0.42471 -0.251955 0.1881 -0.352935 -0.716265 -0.305415 -0.698445 -1.1384999999999998 -1.15335 -1.318185 -0.21384 -0.08365500000000001 -0.110385 -0.28017 0.082665 -0.2475 0.40491 0.0693 0.5073749999999999 0.29997 0.976635 0.9207000000000001 0.022275 -1.4355 1.319175 -2.237895 2.60568 -1.30284 -0.198 -1.7775450000000002 0.433125 -1.54737 0.3465 -1.29789 -0.2475 0.73755 0.28512 1.230075 0.09306 1.7325 -0.099 0.25542 0.24453 0.59895 0.359865 0.08563499999999999 0.032670000000000005 -0.145035 -0.05841 -1.3008600000000001 0.37124999999999997 -1.15434 0.1485 0.0495 0.04455 0.178695 0.043065 0.2772 -0.02277 1.18503 0.09405 1.2483899999999999 -0.23413499999999998 1.666665 -0.45243 0.575685 -0.009405 0.45936000000000005 0.452925 1.20186 0.113355 0.230769 0.25641 0.445896 0.425205 0.6400349999999999 0.30096 0.28611 -0.17671499999999998 0.396 -0.5445 -0.15741 -0.6692400000000001 -1.01277 -0.19107 0.119295 -0.493515 0.5935050000000001Z" stroke-width="1"></path><path id="g" fill="#b366ff" d="M28.0619955 45.9141705c-1.449855 0.962775 -2.80863 0.188595 -2.9759399999999996 -1.14642 -0.0099 -0.081675 0.029699999999999997 -0.19503 -0.057915 -0.236115 -0.11484000000000001 -0.052965 -0.16929000000000002 0.06237 -0.23215499999999997 0.133155 -0.27868499999999996 0.31284 -1.1568150000000001 0.8865449999999999 -1.2573 0.49995 -0.082665 -0.31927500000000003 0.33759 0.040095 1.0395 -0.95733 0.14929199999999998 -0.24304499999999998 0.37748699999999996 -0.4274325 0.64647 -0.5222249999999999 0.396 -0.36283499999999996 0.10642499999999999 -0.60687 -0.24354 -0.380655 -0.61578 0.398475 -0.865755 0.66429 -1.15731 0.59004 -0.1485 -0.037125 -0.2475 -0.183645 -0.09009 -0.25146 0.64053 -0.27918 0.7424999999999999 -1.094445 1.95327 -1.011285 0.0745965 0.0102465 0.15057900000000002 0.002673 0.221661 -0.0220275 0.071082 -0.02475 0.13533299999999998 -0.065934 0.187506 -0.12028499999999999 0.0521235 -0.0543015 0.090684 -0.1201365 0.11246400000000001 -0.19220849999999998 0.0218295 -0.072072 0.0262845 -0.14825249999999998 0.012969 -0.222354 -0.075735 -0.479655 0.396 -1.1068200000000001 0.44253 -1.622115 0.01881 -0.21879 0.198 -0.21087 0.255915 -0.009405 0.183645 0.6435 -0.381645 1.150875 -0.13711500000000001 1.29096 0.114345 0.06534000000000001 0.1881 -0.08316 0.265815 -0.15345 0.819225 -0.74646 0.768735 -0.09603 0.8415 -0.761805 0.014849999999999999 -0.131175 0.02475 -0.27571500000000004 0.17423999999999998 -0.27967499999999995 0.14948999999999998 -0.00396 0.116325 0.15543 0.13068000000000002 0.256905 -0.0032175 0.12379949999999999 0.028017 0.24601499999999998 0.0903375 0.35303399999999996 0.06232050000000001 0.1069695 0.153153 0.194535 0.2623995 0.25279650000000004 0.1092465 0.058311 0.2326005 0.0849915 0.35615250000000004 0.077121 0.1236015 -0.0078705 0.2425005 -0.049995000000000005 0.34348049999999997 -0.1216215 0.43163999999999997 -0.222255 0.50094 -0.036629999999999996 0.453915 -0.013365 -0.7291350000000001 0.36432 -0.41035499999999997 1.0706849999999999 -0.5346000000000001 1.6335 -0.038114999999999996 0.17077499999999998 0.23215499999999997 0.17176499999999997 0.32521500000000003 0.0495 0.33066 -0.43758 0.37026 -0.780615 0.83358 -0.8058599999999999 0.152955 -0.008415 0.25245 0.0891 0.10493999999999999 0.21384 -0.484605 0.41035499999999997 -0.65439 1.1122649999999998 -1.30185 1.378575 -0.18612 0.07622999999999999 -0.180675 0.268785 -0.016335000000000002 0.386595 0.693 0.495 0.5004449999999999 1.20879 0.39303 2.079 -0.013365 0.107415 -0.005444999999999999 0.25344 -0.14256 0.267795 -0.42322499999999996 0.045045 -0.210375 -0.699435 -0.32076 -1.319175 -0.079695 -0.4455 -0.4455 -0.22720500000000002 -0.40491 0.02574 0.1485 0.8964449999999999 -0.42273 1.264725 -0.449955 2.0913749999999998 -0.008415 0.2475 -0.19206 0.24156 -0.28363499999999997 0.055935 -0.17028 -0.348975 -0.06831000000000001 -0.550935 0.1584 -1.48698Z" stroke-width="1"></path><path id="vector_10" fill="#b366ff" d="M54.655919999999995 31.802660999999997c1.317195 1.55727 1.100385 1.77507 1.52955 1.8315000000000001 1.869615 0.23562 3.106125 1.8468449999999998 4.685175 1.6335 0.37323 -0.0495 0.49202999999999997 0.2079 0.12078 0.443025 -1.3760999999999999 0.870705 -2.734875 -0.594 -4.11345 -0.8499150000000001 -0.2475 -0.046035 -0.338085 0.032670000000000005 -0.241065 0.31086 0.42075 1.21176 0.7568549999999999 3.091275 -0.040095 4.28373 -0.7187399999999999 1.07613 -3.069 -3.5833049999999997 -4.05504 -2.7918 -0.953865 0.76626 1.24047 2.9180249999999996 1.957725 3.89565 0.310365 0.42322499999999996 0.30491999999999997 0.42966 -0.130185 0.68409 -2.134935 1.24938 -3.6352800000000003 0.4455 -5.166315 -0.40639499999999995 0.06435 0.95832 0.670725 1.3973849999999999 1.0043549999999999 2.730915 0.33363000000000004 1.3335299999999999 -0.780615 2.11365 -0.660825 1.27908 0.055935 -0.7571025 -0.147708 -1.51074 -0.577665 -2.1364199999999998 -1.460745 -2.7423 -0.7380450000000001 -2.643795 -1.2107700000000001 -3.0798900000000002 -0.99 -0.912285 -0.934065 -1.36422 -1.3365 -1.317195 -0.8712 0.099 0.41877 3.402135 -1.196415 4.40154 -0.259875 0.16038 -0.45342 -0.032175 -0.326205 -0.23958 0.970695 -1.584 -0.308385 -3.75804 0.6830999999999999 -5.665275 0.039500999999999994 -0.063855 0.0640035 -0.13582799999999998 0.071577 -0.210573 0.0075734999999999995 -0.0746955 -0.0019305 -0.150183 -0.027819 -0.22067099999999998 -0.025938 -0.070488 -0.067518 -0.13414500000000001 -0.12167099999999999 -0.186219 -0.054153 -0.0520245 -0.1194435 -0.0910305 -0.19087199999999999 -0.114147 -1.169685 -0.374715 -2.0087099999999998 -1.2196799999999999 -2.91357 -1.971585 -1.287 -1.067715 -1.858725 -0.513315 -1.869615 -0.945945 -0.01188 -0.46332 1.2206700000000001 -0.420255 1.779525 -0.09504 0.91278 0.531135 2.732895 2.35026 2.75814 1.281555 0.01386 -0.5915250000000001 0.454905 -0.811305 5.346 -4.963365 0.082665 -0.0684585 0.1782 -0.11969099999999999 0.280665 -0.15052949999999998 0.10296 -0.030888 0.21087 -0.040788 0.317295 -0.0291555 0.813285 0.053954999999999996 0.08811 -1.05336 -0.396 -1.710225s-1.0647449999999998 -1.3365 -0.980595 -2.27007c0.08415 -0.9335699999999999 0.578655 -0.89892 0.6103350000000001 -0.21087 0.06633 1.438965 2.1285 2.57004 2.495295 4.60746 0.039105 0.3027915 0.181665 0.582714 0.40391999999999995 0.7921980000000001 0.22176 0.2095335 0.50985 0.33570900000000004 0.814275 0.357192 0.914265 0.147213 1.818135 0.353232 2.70567 0.61677 1.1632500000000001 0.30393 1.645875 -0.3465 1.8315000000000001 -0.006435 0.18562499999999998 0.340065 -0.7424999999999999 1.03059 -2.241855 0.77022 -0.521235 -0.1636965 -1.05633 -0.28017 -1.598355 -0.347985Zm-6.523605 3.14424c-0.0416295 -0.079596 -0.098901 -0.1500345 -0.1683495 -0.207009 -0.06944850000000001 -0.057024 -0.149688 -0.099396 -0.23591700000000002 -0.12469050000000001 -0.086229 -0.0252945 -0.1766655 -0.0329175 -0.265914 -0.0224235 -0.089199 0.010494 -0.175428 0.0388575 -0.25344 0.08340750000000001 -0.0780615 0.04455 -0.1462725 0.1043955 -0.200673 0.175923 -0.054351 0.0715275 -0.093753 0.15330149999999998 -0.1157805 0.24037199999999997 -0.0220275 0.08711999999999999 -0.0262845 0.17775449999999998 -0.0125235 0.2665575 0.0138105 0.088803 0.045342 0.1738935 0.09281249999999999 0.250173 0.521235 1.034055 1.376595 1.8003149999999999 2.1641399999999997 2.6190450000000003 0.205425 0.214335 1.172655 0.346995 -1.0043549999999999 -3.2813549999999996Z" stroke-width="1"></path><path id="vector_11" fill="#b366ff" d="M49.4925255 28.1217915c0.9459945 0.55539 -0.7776449999999999 1.7493299999999998 -4.04712 4.43025 -0.71676 0.5880599999999999 -1.1092950000000001 0.4356 -1.42956 -0.168795 -1.63944 -3.0957299999999996 1.7027999999999999 -6.476085 5.47668 -4.261455Z" stroke-width="1"></path><path id="vector_12" fill="#b366ff" d="M46.9591155 26.0497215c-0.0108405 0.39204 -0.1399365 0.771606 -0.37026 1.089 -0.09405 0.10593 -0.18513 0.211365 -0.33561 0.1386 -0.46430999999999994 -0.22423500000000002 0.43163999999999997 -0.985545 -0.62073 -2.29482 -0.667755 -0.83358 1.066725 -0.558855 1.3266 1.06722Z" stroke-width="1"></path><path id="vector_13" fill="#b366ff" d="M42.93927 29.626245c-1.305315 -0.004455 -1.95327 -1.540935 -1.6335 -1.698345 0.252945 -0.12375 0.82566 1.110285 2.182455 1.110285 0.254925 0 0.190575 0.218295 0.099 0.358875 -0.1485 0.23759999999999998 -0.40391999999999995 0.23017500000000002 -0.647955 0.229185Z" stroke-width="1"></path></g></g></svg>