<svg xmlns="http://www.w3.org/2000/svg" fill="none" viewBox="-0.5 -0.5 65 65" id="Security-Shield--Streamline-Brooklyn.svg" height="65" width="65"><desc>Security Shield Streamline Illustration: https://streamlinehq.com</desc><g id="security-shield--security-crime-security-shield"><g id="details"><path id="vector" fill="#b366ff" d="M7.578880000000001 32.6624c-0.66432 3.7568 0.6464 10.82112 2.0063999999999997 14.10752 0.5971200000000001 1.4428800000000002 0.968 1.68576 1.2704000000000002 2.0694399999999997 0.08864000000000001 0.11231999999999999 -0.01056 0.19264 -0.11776 0.13504 -3.4512 -1.85248 -5.33184 -12.22112 -4.3568 -15.905280000000001 0.33504 -1.2665600000000001 1.23168 -0.99968 1.19776 -0.40671999999999997Z" stroke-width="1"></path><path id="vector_2" fill="#b366ff" d="M59.38016 37.05248c0.10112 2.5263999999999998 -5.59264 12.9616 -7.79136 12.43776 -1.30944 -0.31168 1.5817599999999998 -0.71104 7.321280000000001 -11.83712 0.32384 -0.6275200000000001 0.35840000000000005 -0.62208 0.47008000000000005 -0.6006400000000001Z" stroke-width="1"></path><path id="vector_3" fill="#b366ff" d="M61.794560000000004 41.46048c-0.33728 1.71936 -0.58272 3.26912 -2.09824 5.72 -0.88288 1.42784 -2.0291200000000003 2.96 -3.4569600000000005 3.84352 -0.33248 0.20576 -0.7244799999999999 0.3312 -0.94848 0.01024 -0.2224 -0.31872 -0.01856 -0.59072 0.78848 -1.4243199999999998 4.8784 -5.0387200000000005 5.68608 -9.45856 5.7152 -8.14944Z" stroke-width="1"></path><path id="vector_4" fill="#b366ff" d="M2.69632 37.51936c0.8348800000000001 0.00608 0.12992 1.31552 1.48032 6.514880000000001 0.50592 1.9472 1.0848 2.84224 1.3136 3.3500799999999997 0.04928 0.10944000000000001 -0.0752 0.20288 -0.16128 0.12 -2.67392 -2.5776 -4.4288 -9.99808 -2.6326400000000003 -9.98496Z" stroke-width="1"></path><path id="vector_5" fill="#b366ff" d="M60.3168 11.982080000000002c-0.8345600000000001 -1.8249600000000001 -2.51648 -4.1008 -3.85536 -5.5955200000000005 -0.2432 -0.27136 -0.7635200000000001 -0.5894400000000001 -0.49056 -1.0150400000000002 0.14400000000000002 -0.22432 0.376 -0.22912 0.61504 -0.17664000000000002 0.92416 0.20320000000000002 2.05824 1.87808 2.5984 2.7107200000000002 1.6784000000000001 2.5856 1.65952 5.229439999999999 1.13184 4.07616l0.00064 0.00032Z" stroke-width="1"></path><path id="vector_6" fill="#b366ff" d="M62.0432 7.76864c-0.02496 0.17248000000000002 0.07072 0.35968000000000006 -0.08736000000000001 0.40384000000000003 -0.15808 0.044160000000000005 -0.19104 -0.1552 -0.25088 -0.26464 -0.85152 -1.55872 -1.9443199999999998 -2.2864 -2.4758400000000003 -3.1430399999999996 -0.28928000000000004 -0.46624000000000004 0.06304 -1.00096 0.54464 -0.90208 0.5763199999999999 0.1184 2.0112 1.6889599999999998 2.26944 3.90592Z" stroke-width="1"></path><path id="vector_7" fill="#b366ff" d="M9.94592 10.1968c-0.12192 0.69824 -0.92288 1.5219200000000002 -1.5033600000000003 3.15008 -0.58144 1.6307200000000002 -0.55776 1.5663999999999998 -0.6524800000000001 1.6950399999999999 -0.19488 0.26528 -1.52 0.52864 0.43840000000000007 -3.02944 0.2384 -0.43296 1.07456 -1.8054400000000002 1.71744 -1.8156800000000002Z" stroke-width="1"></path><path id="vector_8" fill="#b366ff" d="M8.41216 8.71552c-0.10816 0.55424 -0.61088 0.61472 -2.3638399999999997 3.6044799999999997 -0.41152 0.70176 -1.30784 -0.28672000000000003 0.11008 -1.9196799999999998 0.6483199999999999 -0.74688 1.9033600000000002 -1.78464 2.25376 -1.6847999999999999Z" stroke-width="1"></path></g><g id="shield"><path id="vector_9" fill="#b366ff" d="M11.19968 36.92288c0.09344 -1.12864 0.16512000000000002 -2.2064 0.22111999999999998 -3.2332799999999997 -0.04064 -0.55776 -0.06432 -1.12096 -0.07072 -1.6896000000000002 0.18688 -4.0652800000000004 -0.032 -9.063360000000001 0.2688 -12.376320000000002 0.52128 -5.7424 0.20512 -5.41536 1.95552 -6.4579200000000005 1.50208 -0.8944 3.528 -1.9731200000000002 5.77984 -3.04 0.05568 -0.11648 0.11327999999999999 -0.23296 0.17312000000000002 -0.34880000000000005 0.11136 -0.21664000000000003 0.22719999999999999 -0.42752 0.34752000000000005 -0.6326400000000001 -1.2176 0.57024 -2.5100800000000003 1.2086400000000002 -3.8787200000000004 1.92256 -2.0899199999999998 1.09056 -4.39552 2.17952 -4.51968 3.50272 -0.46016 4.90752 -0.66592 6.39296 -0.688 8.91584 -0.0288 3.3136 -0.21056000000000002 7.56352 -0.07552 10.208 -0.07647999999999999 0.00768 0.06752 1.33024 0.48607999999999996 3.22976l0.00064 -0.00032Z" stroke-width="1"></path><path id="vector_10" fill="#b366ff" d="M56.3328 13.567680000000001c-0.06048 -1.82208 -0.056319999999999995 -3.63392 -1.4921600000000002 -4.54656 -1.15904 -0.73696 -12.95552 -3.5708800000000003 -19.20672 -4.22656 -0.33952 -0.03552 -0.67744 -0.08192 -1.00864 -0.16128 -0.28992 -0.06976 -1.0688 -0.05696 -2.34016 0.16672 0.34496000000000004 0.17984000000000003 0.68416 0.38336 1.01152 0.6089600000000001 0.36704000000000003 -0.04256 0.72064 -0.07072 1.05888 -0.08288000000000001 4.3228800000000005 0.17728000000000002 15.50752 2.81152 18.65344 3.66752 0.34368000000000004 0.09344 0.29824 0.09472 0.33248 0.37888 0.20736000000000002 1.71168 0.29024 9.903680000000001 -0.09087999999999999 14.77888 -0.46848 5.99456 -1.24608 15.294400000000001 -10.993599999999999 25.34048 -4.08 4.2048000000000005 -11.628191999999999 8.66304 -13.240032000000001 9.1232 -0.71616 0.20448 -1.28992 -0.09792000000000001 -2.7302400000000002 -1.12928 -4.6784 -3.34976 -8.63744 -7.43456 -11.302080000000002 -12.163520000000002 -0.40031999999999995 -0.11008 -0.7260800000000001 -0.22784 -1.00512 -0.34880000000000005 0.136 0.26239999999999997 0.27648 0.52032 0.42208 0.7728 -0.14688 0.017920000000000002 2.2217599999999997 3.62656 5.3148800000000005 7.012160000000001 3.4464 3.77216 7.052480000000001 5.773440000000001 8.03104 6.439360000000001 1.1478400000000002 0.7808 2.75424 1.06944 3.6396800000000002 0.9136 2.378912 -0.41824 7.2589120000000005 -3.8211200000000005 10.171872 -5.87744 9.06816 -6.40064 15.004159999999999 -18.34784 14.67264 -31.21664 -0.03744 -1.4480000000000002 0.19872 -6.482880000000001 0.10048 -9.44928l0.00064 -0.00032Z" stroke-width="1"></path><path id="vector_11" fill="#b366ff" d="M25.445120000000003 10.97344c1.3705600000000002 -0.53664 3.07392 -1.14464 4.83392 -1.60192 -0.28064 -0.20672000000000001 -0.60416 -0.3632 -0.9766400000000001 -0.45792000000000005 -1.90176 0.53056 -3.49056 1.15552 -4.1488 1.49248 -0.09504 0.03552 -0.19168 0.07104 -0.28992 0.10688 -0.27744 0.29728000000000004 -0.53504 0.624 -0.77184 0.97344 0.75936 -0.27488 1.27328 -0.46624000000000004 1.35328 -0.51296Z" stroke-width="1"></path><path id="vector_12" fill="#b366ff" d="M13.19168 18.888c0.128 -0.10912000000000001 0.27584000000000003 -0.2048 0.44095999999999996 -0.29024 0.04 -1.2592 0.0736 -2.0736000000000003 0.07936 -2.10976 0.10304 -0.67008 0.28608 -0.9740800000000001 1.50528 -1.6752000000000002 0.3456 -0.19872 1.51392 -0.6534399999999999 2.9443200000000003 -1.18368 0.06272 -0.27456 0.1328 -0.55552 0.21152 -0.84096 -2.84224 1.0608 -5.2128 2.17344 -5.228479999999999 3.1996800000000003 -0.01248 0.8048000000000001 -0.07552 1.8547200000000001 -0.14976 3.0896 0.062400000000000004 -0.06784 0.128 -0.13119999999999998 0.1968 -0.18975999999999998v0.00032Z" stroke-width="1"></path><path id="vector_13" fill="#b366ff" d="M43.781760000000006 9.44928c-1.88864 -0.65536 -5.60736 -1.1776 -7.02048 -1.32672 -0.31232 -0.0576 -0.64 -0.096 -0.9798399999999999 -0.11776 0.1392 0.23392 0.26496 0.47584000000000004 0.37568 0.72544 0.22752 0.02752 0.44896 0.06368 0.6636799999999999 0.11008 6.168959999999999 0.5382399999999999 9.91488 2.27936 10.41856 2.3372800000000002 2.1769600000000002 0.53696 2.73408 2.05952 2.52928 7.68 -0.00832 0.22784 -0.56064 7.2703999999999995 -0.61728 7.86144 -0.77984 8.14528 -2.11744 10.431040000000001 -4.06944 13.147840000000002 -3.05952 4.2592 -5.62272 8.42048 -15.05728 13.52064 -1.07776 0.58272 -1.8710400000000003 0.6876800000000001 -2.84736 0.48512 -0.1504 -0.03136 -1.7792 -0.82592 -2.42112 -1.38208 -3.12256 -2.70496 -4.98592 -4.18688 -6.5465599999999995 -6.37824 -0.06848 -0.09632 -0.13632 -0.19424 -0.20352 -0.29344000000000003 -0.34848 -0.032639999999999995 -0.6707200000000001 -0.06848 -0.96896 -0.10688 0.7664 1.19168 1.6624 2.2956800000000004 2.70848 3.2816000000000005 4.451840000000001 4.1958400000000005 6.500800000000001 7.21696 10.71296 4.893120000000001 4.57632 -2.5251200000000003 9.29024 -5.79904 12.438720000000002 -9.97088 6.00736 -7.96096 6.367999999999999 -9.14592 7.35776 -23.5248 0.72736 -10.564480000000001 -0.3376 -8.8128 -6.47328 -10.94144v-0.00032Z" stroke-width="1"></path></g><g id="lock"><path id="vector_14" fill="#0047ab" d="M12.4496 43.741760000000006c-2.3056 -1.10912 -0.5894400000000001 -4.5232 -0.50976 -14.41024 0.01248 -1.53856 0.12672 -5.51456 0.33311999999999997 -6.99968 0.22848 -1.64384 0.08032 -2.2752000000000003 1.14368 -3.17984 0.7558400000000001 -0.64288 2.34624 -0.7852800000000001 4.3984 -1.13952 0.40608 -0.07008 -0.36607999999999996 -12.616959999999999 10.47328 -13.79776 0.47168 -0.05152 3.05984 0.20992000000000002 4.77952 1.4464 1.7228800000000002 1.23872 2.37952 2.1059200000000002 2.9193599999999997 3.5676799999999997 0.99744 2.7017599999999997 0.95392 7.42016 0.9027200000000001 7.67168 -0.032 0.15648 0.06656 0.18047999999999997 0.18847999999999998 0.19328 1.11488 0.11584 1.40192 0.46240000000000003 1.95488 0.87776 4.8806400000000005 3.6672000000000002 2.7296 1.80128 3.29632 15.31616 0.06784 1.6182400000000001 -0.11488 6.128959999999999 -0.28608 7.61824 -0.50176 4.365760000000001 -2.55552 4.22784 -7.928640000000001 4.4912 -19.89408 0.9747199999999999 -19.69312 -0.7072 -21.66464 -1.6556800000000003l-0.00064 0.00032Zm25.3248 -13.87392c0.017920000000000002 -1.7568000000000001 0.22848 -5.07232 0.05056 -9.7584 -0.032 -0.8396800000000001 -0.64416 -2.21824 -1.40352 -2.3680000000000003 -1.84064 -0.36256 -11.62592 0.10752 -13.40928 0.2528 -2.00704 0.16352 -3.5059199999999997 0.51616 -4.54528 0.65312 -3.57728 0.47200000000000003 -5.064 0.5376 -5.5004800000000005 2.1872000000000003 -0.42688000000000004 1.6128 -0.48479999999999995 6.79808 -0.6358400000000001 13.91264 -0.2048 9.6384 -3.1334400000000002 8.58304 9.38016 8.354880000000001 1.5504 -0.028159999999999998 12.92 -0.29632000000000003 15.30592 -1.0031999999999999 1.2483199999999999 -0.36991999999999997 0.70048 -6.657920000000001 0.75776 -12.23104Zm-0.07264000000000001 -11.926079999999999c0.57152 0.53952 0.8057599999999999 1.20544 0.8153600000000001 1.9689599999999998 0.02752 2.21536 0.0512 4.43104 -0.020800000000000003 6.64704 -0.42688000000000004 13.126400000000002 0.57568 12.01568 -0.71616 15.7056 -0.168 0.48 -0.50912 0.72672 -0.9920000000000001 0.7958400000000001 -4.54432 0.6512000000000001 -18.40192 0.7392000000000001 -22.99296 0.7392000000000001 0.8617600000000001 0.43104 1.8019200000000002 0.9504000000000001 3.3350400000000002 0.9664 3.53664 0.0368 7.442240000000001 0.51616 16.53056 0.06304 1.93408 -0.09632 6.581440000000001 -0.17664000000000002 7.32448 -1.9382400000000002 0.9424 -2.23328 0.38880000000000003 -11.74176 0.5049600000000001 -19.36768 0.0256 -1.6812799999999999 0.14592000000000002 -2.4300800000000002 -0.33792 -2.90048 -0.6729600000000001 -0.65376 -2.8582400000000003 -2.53696 -3.45056 -2.6796800000000003Zm-1.39584 -0.88064c-0.17056000000000002 -2.9788799999999998 -0.05536 -5.7740800000000005 -1.5177600000000002 -8.81344 -0.6988800000000001 -1.4528 -4.85184 -4.8751999999999995 -9.59744 -2.69056 -3.78368 1.74176 -5.657279999999999 6.00512 -5.92096 7.43808 -0.00128 0.007039999999999999 -0.94368 4.55072 -0.7184 4.88192 0.11008 0.02016 0.00416 0.018240000000000003 2.8416 -0.4144 0.20032 -0.0304 0.0672 -0.17888 0.09504 -0.8784000000000001 0.05344 -1.344 0.50208 -3.6496 1.29344 -4.72896 0.60192 -0.82112 0.7440000000000001 -1.83776 2.85408 -3.25056 1.07712 -0.72128 2.8582400000000003 -1.0432 4.48224 -0.46912 1.0544 0.3728 2.37216 1.8268799999999998 2.7206400000000004 3.94592 0.16224 0.98592 0.39328 4.19392 0.38592 4.53888 -0.0128 0.58176 -0.017920000000000002 0.12736 3.08224 0.44l-0.00064 0.00064Zm-14.3456 0.31584c1.5913599999999999 -0.07136 1.7331200000000002 -0.2256 6.8521600000000005 -0.3776 3.79424 -0.11263999999999999 3.7884800000000003 0.17056000000000002 3.7664 -0.38784 -0.17408 -4.4134400000000005 -0.46784 -5.67584 -1.47424 -6.929600000000001 -0.7830400000000001 -0.97536 -2.0624000000000002 -1.33216 -3.1638400000000004 -1.1888 -1.9840000000000002 0.25824 -2.93248 1.19776 -4.0112000000000005 2.6208 -1.5478399999999999 2.04224 -2.08928 5.51232 -1.9696 6.2633600000000005l0.00032 -0.00032Z" stroke-width="1"></path><path id="vector_15" fill="#0047ab" d="M21.93824 33.60736c0.038079999999999996 -2.0096000000000003 0.14976 -1.9638399999999998 -0.1024 -2.1088 -1.8719999999999999 -1.07488 -2.17184 -3.56704 -0.5536 -4.96576 2.0601599999999998 -1.78048 5.02176 -0.8083199999999999 5.74848 1.3136 0.50368 1.47008 -0.25632 2.9718400000000003 -1.39648 3.60096 -0.17472000000000001 0.09632 -0.22784 0.21952000000000002 -0.22304 0.41088 0.03072 1.1942400000000002 -0.08288000000000001 2.38464 -0.11424 3.57728 -0.01728 0.65728 -0.22591999999999998 1.40896 -0.8832 1.4201599999999999 -2.46624 0.041920000000000006 -2.5388800000000002 0.10176 -2.47552 -3.24832Z" stroke-width="1"></path></g></g></svg>