<svg xmlns="http://www.w3.org/2000/svg" fill="none" viewBox="-0.5 -0.5 100 100" id="Security-Shield--Streamline-Brooklyn.svg" height="100" width="100"><desc>Security Shield Streamline Illustration: https://streamlinehq.com</desc><g id="security-shield--security-crime-security-shield"><g id="details"><path id="vector" fill="#b366ff" d="M11.72358 50.524649999999994c-1.02762 5.8113 0.9999 16.73892 3.1036499999999996 21.82257 0.92367 2.231955 1.497375 2.60766 1.9651500000000002 3.2011649999999996 0.13711500000000001 0.17374499999999998 -0.016335000000000002 0.29799 -0.18216 0.20889 -5.338575 -2.8655549999999996 -8.247689999999999 -18.904545000000002 -6.739425 -24.60348 0.518265 -1.9592100000000001 1.9052550000000001 -1.54638 1.852785 -0.629145Z" stroke-width="1"></path><path id="vector_2" fill="#b366ff" d="M91.853685 57.315555c0.15642 3.908025 -8.651115 20.049975 -12.052259999999999 19.23966 -2.02554 -0.48213 2.4467849999999998 -1.09989 11.325105 -18.310545 0.50094 -0.970695 0.5544 -0.9622799999999999 0.727155 -0.929115Z" stroke-width="1"></path><path id="vector_3" fill="#b366ff" d="M95.58846 64.13418c-0.52173 2.659635 -0.901395 5.05692 -3.245715 8.848125 -1.365705 2.20869 -3.138795 4.57875 -5.347485000000001 5.945444999999999 -0.514305 0.318285 -1.12068 0.5123249999999999 -1.46718 0.01584 -0.34402499999999997 -0.49302 -0.028710000000000003 -0.9137700000000001 1.2196799999999999 -2.203245 7.546275 -7.79427 8.795654999999998 -14.63121 8.8407 -12.606164999999999Z" stroke-width="1"></path><path id="vector_4" fill="#b366ff" d="M4.17087 58.03776c1.291455 0.009405 0.20097 2.034945 2.28987 10.077705 0.7825949999999999 3.012075 1.67805 4.39659 2.031975 5.182155 0.07622999999999999 0.16929000000000002 -0.116325 0.31383 -0.24948 0.18562499999999998 -4.13622 -3.987225 -6.8508 -15.46578 -4.0723650000000005 -15.445485Z" stroke-width="1"></path><path id="vector_5" fill="#b366ff" d="M93.30255000000001 18.53478c-1.29096 -2.822985 -3.89268 -6.343425 -5.96376 -8.65557 -0.3762 -0.41975999999999997 -1.18107 -0.91179 -0.7588349999999999 -1.57014 0.22275 -0.346995 0.5816250000000001 -0.35441999999999996 0.95139 -0.27324000000000004 1.42956 0.314325 3.18384 2.9051549999999997 4.019399999999999 4.193145 2.596275 3.9996 2.5670699999999997 8.08929 1.750815 6.3053099999999995l0.00099 0.000495Z" stroke-width="1"></path><path id="vector_6" fill="#b366ff" d="M95.973075 12.017115c-0.03861 0.266805 0.109395 0.5563800000000001 -0.135135 0.62469 -0.24453 0.06831000000000001 -0.29551499999999997 -0.24007499999999998 -0.38808000000000004 -0.409365 -1.317195 -2.4111450000000003 -3.0076199999999997 -3.5367749999999996 -3.829815 -4.86189 -0.44748 -0.721215 0.097515 -1.54836 0.84249 -1.395405 0.8914949999999999 0.18315 3.111075 2.6126099999999997 3.5105399999999998 6.04197Z" stroke-width="1"></path><path id="vector_7" fill="#b366ff" d="M15.385095 15.773174999999998c-0.188595 1.08009 -1.4275799999999998 2.35422 -2.32551 4.87278 -0.899415 2.52252 -0.862785 2.423025 -1.0093050000000001 2.6220149999999998 -0.301455 0.41035499999999997 -2.35125 0.8177399999999999 0.67815 -4.686165 0.368775 -0.669735 1.66221 -2.79279 2.656665 -2.80863Z" stroke-width="1"></path><path id="vector_8" fill="#b366ff" d="M13.01256 13.48182c-0.16731000000000001 0.85734 -0.944955 0.950895 -3.6565649999999996 5.575679999999999 -0.63657 1.085535 -2.023065 -0.44352 0.17028 -2.969505 1.00287 -1.15533 2.9442600000000003 -2.760615 3.486285 -2.606175Z" stroke-width="1"></path></g><g id="shield"><path id="vector_9" fill="#b366ff" d="M17.324505000000002 57.11508c0.14454 -1.745865 0.25542 -3.4130249999999998 0.342045 -5.00148 -0.062865 -0.862785 -0.099495 -1.733985 -0.109395 -2.6136 0.28908 -6.28848 -0.0495 -14.019885 0.4158 -19.14462 0.806355 -8.882775 0.317295 -8.376885 3.0249449999999998 -9.989595 2.32353 -1.383525 5.457375 -3.0521700000000003 8.94069 -4.7025 0.08613 -0.18018 0.17523 -0.36036 0.267795 -0.5395500000000001 0.17226 -0.335115 0.35145 -0.66132 0.53757 -0.978615 -1.883475 0.88209 -3.88278 1.869615 -5.999895 2.97396 -3.2328449999999997 1.68696 -6.799320000000001 3.371445 -6.99138 5.41827 -0.7118099999999999 7.5913200000000005 -1.030095 9.88911 -1.06425 13.79169 -0.04455 5.125725 -0.32571 11.699819999999999 -0.11682 15.7905 -0.118305 0.01188 0.104445 2.057715 0.7519049999999999 4.996035l0.00099 -0.000495Z" stroke-width="1"></path><path id="vector_10" fill="#b366ff" d="M87.1398 20.987505c-0.093555 -2.81853 -0.08711999999999999 -5.62122 -2.308185 -7.03296 -1.7928899999999999 -1.139985 -20.04057 -5.5237050000000005 -29.710395000000002 -6.53796 -0.525195 -0.054945 -1.047915 -0.12672 -1.56024 -0.24948 -0.44847000000000004 -0.10790999999999999 -1.6533 -0.08811 -3.619935 0.257895 0.53361 0.27819000000000005 1.0583099999999999 0.5930099999999999 1.564695 0.941985 0.567765 -0.065835 1.1147399999999998 -0.109395 1.637955 -0.128205 6.686955 0.27423000000000003 23.988194999999997 4.349069999999999 28.85454 5.673195 0.53163 0.14454 0.46134000000000003 0.14651999999999998 0.514305 0.5860799999999999 0.32076 2.647755 0.448965 15.319755 -0.14057999999999998 22.861079999999998 -0.72468 9.272835 -1.92753 23.658525 -17.005724999999998 39.198555 -6.31125 6.504300000000001 -17.9873595 13.40064 -20.480674500000003 14.11245 -1.10781 0.316305 -1.995345 -0.15147 -4.22334 -1.746855 -7.2368999999999994 -5.18166 -13.361040000000001 -11.500335 -17.482905000000002 -18.815445 -0.6192449999999999 -0.17028 -1.1231550000000001 -0.35244 -1.554795 -0.5395500000000001 0.210375 0.4059 0.42768 0.80487 0.652905 1.195425 -0.22720500000000002 0.02772 3.436785 5.609835 8.221455 10.846935 5.33115 5.83506 10.909305 8.93079 12.423015000000001 9.960885000000001 1.775565 1.2078 4.260465 1.65429 5.63013 1.413225 3.6798794999999997 -0.646965 11.2286295 -5.910795 15.7346145 -9.091665 14.02731 -9.90099 23.20956 -28.381815000000003 22.69674 -48.28824 -0.057915 -2.239875 0.307395 -10.028205 0.15543 -14.616855l0.00099 -0.000495Z" stroke-width="1"></path><path id="vector_11" fill="#b366ff" d="M39.360420000000005 16.97454c2.120085 -0.830115 4.75497 -1.770615 7.47747 -2.47797 -0.434115 -0.31977 -0.93456 -0.561825 -1.51074 -0.708345 -2.941785 0.8207099999999999 -5.3994599999999995 1.7874450000000002 -6.417675 2.30868 -0.14701499999999998 0.054945 -0.29650499999999996 0.10989 -0.44847000000000004 0.16533 -0.429165 0.459855 -0.8276399999999999 0.9652499999999999 -1.19394 1.50579 1.174635 -0.425205 1.969605 -0.721215 2.093355 -0.793485Z" stroke-width="1"></path><path id="vector_12" fill="#b366ff" d="M20.40588 29.217375c0.198 -0.168795 0.42669 -0.3168 0.68211 -0.448965 0.061875 -1.947825 0.11385 -3.2076000000000002 0.12276 -3.263535 0.15939 -1.03653 0.44253 -1.50678 2.32848 -2.5913250000000003 0.5346000000000001 -0.307395 2.3418449999999997 -1.0107899999999999 4.554495 -1.831005 0.09702000000000001 -0.42471 0.205425 -0.85932 0.327195 -1.3008600000000001 -4.39659 1.640925 -8.06355 3.36204 -8.087805 4.949505 -0.019305 1.244925 -0.11682 2.86902 -0.23166 4.779224999999999 0.096525 -0.10493999999999999 0.198 -0.20295 0.304425 -0.293535v0.000495Z" stroke-width="1"></path><path id="vector_13" fill="#b366ff" d="M67.72491000000001 14.616855c-2.92149 -1.01376 -8.673885 -1.8216 -10.859805 -2.05227 -0.48312 -0.0891 -0.99 -0.1485 -1.51569 -0.18216 0.215325 0.36184499999999997 0.40986 0.7360650000000001 0.5811299999999999 1.1221649999999999 0.35194499999999995 0.04257 0.694485 0.09850500000000001 1.02663 0.17028 9.54261 0.8325899999999999 15.33708 3.525885 16.11621 3.6154800000000002 3.367485 0.83061 4.22928 3.18582 3.91248 11.879999999999999 -0.01287 0.35244 -0.86724 11.2464 -0.954855 12.160665 -1.2063149999999998 12.599730000000001 -3.275415 16.135515 -6.2949150000000005 20.338065 -4.732695 6.58845 -8.697645000000001 13.02543 -23.29173 20.914740000000002 -1.66716 0.901395 -2.8942650000000003 1.063755 -4.40451 0.75042 -0.23265 -0.048510000000000005 -2.7521999999999998 -1.277595 -3.74517 -2.137905 -4.830209999999999 -4.184234999999999 -7.712594999999999 -6.476579999999999 -10.12671 -9.86634 -0.10593 -0.148995 -0.21087 -0.300465 -0.31482 -0.453915 -0.539055 -0.05048999999999999 -1.03752 -0.10593 -1.49886 -0.16533 1.185525 1.84338 2.5715250000000003 3.55113 4.18968 5.076225 6.88644 6.49044 10.055925 11.163735 16.57161 7.569045 7.078995 -3.9060449999999998 14.37084 -8.97039 19.241145 -15.423705 9.292635 -12.31461 9.850499999999998 -14.147594999999999 11.381535 -36.389925 1.125135 -16.34193 -0.5222249999999999 -13.632299999999999 -10.013354999999999 -16.92504v-0.000495Z" stroke-width="1"></path></g><g id="lock"><path id="vector_14" fill="#0047ab" d="M19.257975000000002 67.66303500000001c-3.566475 -1.71567 -0.91179 -6.996824999999999 -0.788535 -22.29084 0.019305 -2.37996 0.19602 -8.530335000000001 0.515295 -10.82763 0.35342999999999997 -2.5428149999999996 0.124245 -3.51945 1.7691299999999999 -4.9188149999999995 1.16919 -0.994455 3.62934 -1.21473 6.803775 -1.762695 0.6281549999999999 -0.108405 -0.5662799999999999 -19.516859999999998 16.200855 -21.343410000000002 0.72963 -0.079695 4.73319 0.32472 7.39332 2.2373999999999996 2.66508 1.916145 3.6808199999999998 3.2575950000000002 4.515885 5.518755 1.542915 4.179285 1.475595 11.47806 1.396395 11.86713 -0.0495 0.242055 0.10296 0.27918 0.291555 0.29897999999999997 1.72458 0.17919 2.1685950000000003 0.715275 3.023955 1.357785 7.54974 5.672700000000001 4.22235 2.786355 5.098995 23.692185 0.10493999999999999 2.503215 -0.177705 9.480735 -0.44253 11.784464999999999 -0.7761600000000001 6.753285 -3.95307 6.53994 -12.264615000000001 6.947325 -30.773654999999998 1.5077699999999998 -30.462795 -1.09395 -33.51249 -2.5611300000000004l-0.00099 0.000495Zm39.1743 -21.46122c0.02772 -2.71755 0.35342999999999997 -7.846245000000001 0.07821 -15.095025 -0.0495 -1.29888 -0.996435 -3.43134 -2.17107 -3.6630000000000003 -2.8472399999999998 -0.560835 -17.983845000000002 0.16632 -20.74248 0.39105 -3.1046400000000003 0.252945 -5.42322 0.798435 -7.0309800000000005 1.010295 -5.533605 0.730125 -7.833374999999999 0.8316 -8.508555 3.383325 -0.6603300000000001 2.4948 -0.749925 10.51578 -0.983565 21.521114999999998 -0.3168 14.9094 -4.84704 13.27689 14.509934999999999 12.923955000000001 2.398275 -0.043559999999999995 19.985625 -0.45837 23.676345 -1.5518249999999998 1.9309949999999998 -0.57222 1.083555 -10.29897 1.1721599999999999 -18.91989Zm-0.112365 -18.448155c0.88407 0.8345699999999999 1.2464099999999998 1.864665 1.26126 3.0457349999999996 0.04257 3.426885 0.0792 6.854265 -0.032175 10.282139999999998 -0.6603300000000001 20.3049 0.890505 18.586755 -1.10781 24.2946 -0.259875 0.7424999999999999 -0.7875449999999999 1.124145 -1.5345 1.231065 -7.029495 1.007325 -28.46547 1.14345 -35.567235 1.14345 1.333035 0.6667649999999999 2.787345 1.47015 5.15889 1.4949 5.47074 0.056925 11.512215000000001 0.798435 25.570710000000002 0.097515 2.99178 -0.148995 10.180665 -0.27324000000000004 11.330055 -2.998215 1.4577749999999998 -3.454605 0.601425 -18.163034999999997 0.7811100000000001 -29.95938 0.0396 -2.6007299999999995 0.22572 -3.75903 -0.5227200000000001 -4.48668 -1.040985 -1.011285 -4.42134 -3.92436 -5.337585 -4.14513Zm-2.15919 -1.36224c-0.263835 -4.607955 -0.08563499999999999 -8.93178 -2.347785 -13.63329 -1.08108 -2.2473 -7.505190000000001 -7.541325 -14.84604 -4.16196 -5.85288 2.694285 -8.751104999999999 9.289169999999999 -9.158985 11.50578 -0.00198 0.010889999999999999 -1.459755 7.039395 -1.111275 7.55172 0.17028 0.031185 0.006435 0.028215 4.3956 -0.641025 0.30987 -0.047025 0.10395 -0.27670500000000003 0.14701499999999998 -1.358775 0.082665 -2.079 0.776655 -5.645474999999999 2.00079 -7.31511 0.931095 -1.2701699999999998 1.150875 -2.842785 4.414905 -5.02821 1.66617 -1.1157299999999999 4.42134 -1.6137 6.933465 -0.7256699999999999 1.631025 0.576675 3.669435 2.825955 4.20849 6.103845 0.250965 1.5250949999999999 0.6083550000000001 6.48747 0.59697 7.0210799999999995 -0.0198 0.89991 -0.02772 0.19701000000000002 4.76784 0.680625l-0.00099 0.00099Zm-22.190849999999998 0.48856499999999997c2.461635 -0.110385 2.68092 -0.348975 10.599435 -0.5841 5.869215 -0.17423999999999998 5.860305 0.263835 5.82615 -0.59994 -0.26928 -6.82704 -0.7236899999999999 -8.779815 -2.280465 -10.719225 -1.211265 -1.50876 -3.190275 -2.0606850000000003 -4.894065 -1.838925 -3.069 0.399465 -4.53618 1.852785 -6.204825 4.05405 -2.3943149999999997 3.15909 -3.231855 8.526869999999999 -3.046725 9.688635l0.000495 -0.000495Z" stroke-width="1"></path><path id="vector_15" fill="#0047ab" d="M33.935715 51.986385c0.058905 -3.1086 0.23166 -3.0378149999999997 -0.1584 -3.26205 -2.8957499999999996 -1.6627049999999999 -3.359565 -5.517765 -0.85635 -7.6814100000000005 3.18681 -2.75418 7.768034999999999 -1.25037 8.89218 2.031975 0.77913 2.27403 -0.39649500000000004 4.597065000000001 -2.16018 5.570235 -0.27027 0.148995 -0.35244 0.33957000000000004 -0.34501499999999996 0.63558 0.04752 1.84734 -0.128205 3.68874 -0.17671499999999998 5.533605 -0.02673 1.01673 -0.34947 2.1794849999999997 -1.3661999999999999 2.1968099999999997 -3.814965 0.064845 -3.92733 0.15741 -3.82932 -5.024745Z" stroke-width="1"></path></g></g></svg>