<svg width="98" height="85" viewBox="0 0 98 85" fill="none" xmlns="http://www.w3.org/2000/svg">
<path d="M9.13099 43.4963C8.05046 49.168 10.1824 59.8331 12.3945 64.7946C13.3657 66.973 13.9689 67.3396 14.4608 67.9189C14.605 68.0885 14.4436 68.2097 14.2693 68.1228C8.65579 65.326 5.59687 49.6723 7.1828 44.1103C7.72775 42.1981 9.18617 42.6011 9.13099 43.4963Z" fill="#B366FF"/>
<path d="M93.3878 50.1261C93.5522 53.9402 84.2911 69.6944 80.7149 68.9036C78.585 68.433 83.2876 67.8301 92.6231 51.0329C93.1499 50.0855 93.2061 50.0937 93.3878 50.1261Z" fill="#B366FF"/>
<path d="M97.3149 56.7799C96.7663 59.3757 96.3671 61.7154 93.902 65.4155C92.466 67.5711 90.6016 69.8843 88.2792 71.2181C87.7384 71.5288 87.1008 71.7181 86.7364 71.2336C86.3747 70.7524 86.7062 70.3418 88.0189 69.0833C95.9538 61.4762 97.2675 54.8035 97.3149 56.7799Z" fill="#B366FF"/>
<path d="M1.18964 50.8301C2.5476 50.8393 1.40096 52.8162 3.59743 60.6657C4.42033 63.6054 5.36189 64.9567 5.73404 65.7234C5.8142 65.8886 5.61173 66.0297 5.47172 65.9046C1.1225 62.0131 -1.73187 50.8103 1.18964 50.8301Z" fill="#B366FF"/>
<path d="M94.9111 12.2755C93.5536 9.52036 90.8179 6.08448 88.6402 3.82788C88.2446 3.4182 87.3983 2.93799 87.8423 2.29546C88.0765 1.9568 88.4539 1.94955 88.8427 2.02878C90.3458 2.33555 92.1905 4.86415 93.069 6.1212C95.799 10.0247 95.7693 14.0167 94.9111 12.2755Z" fill="#B366FF"/>
<path d="M97.7189 5.91484C97.6783 6.17524 97.8339 6.45786 97.5768 6.52453C97.3197 6.5912 97.266 6.29022 97.1687 6.125C95.7837 3.77177 94.0062 2.67318 93.1417 1.3799C92.6712 0.676007 93.2442 -0.131269 94.0276 0.018012C94.965 0.196762 97.2988 2.56786 97.7189 5.91484Z" fill="#B366FF"/>
<path d="M12.9813 9.58105C12.783 10.6352 11.4802 11.8787 10.536 14.3368C9.59028 16.7987 9.6288 16.7016 9.47473 16.8958C9.15776 17.2963 7.00241 17.6939 10.1878 12.3222C10.5756 11.6686 11.9356 9.59651 12.9813 9.58105Z" fill="#B366FF"/>
<path d="M10.4865 7.3441C10.3106 8.18084 9.49288 8.27215 6.64164 12.7858C5.97229 13.8453 4.5144 12.353 6.82069 9.88767C7.8752 8.76009 9.91656 7.19337 10.4865 7.3441Z" fill="#B366FF"/>
<path d="M15.0206 49.9309C15.1726 48.227 15.2892 46.5999 15.3803 45.0496C15.3142 44.2075 15.2757 43.3573 15.2653 42.4988C15.5692 36.3613 15.2132 28.8157 15.7025 23.814C16.5503 15.1446 16.0361 15.6384 18.8832 14.0644C21.3264 12.7141 24.6216 11.0855 28.2843 9.47486C28.3748 9.29901 28.4685 9.12316 28.5659 8.94827C28.747 8.62121 28.9354 8.30284 29.1311 7.99316C27.1506 8.85406 25.0484 9.81787 22.8223 10.8957C19.4229 12.5421 15.6728 14.1861 15.4709 16.1838C14.7224 23.5928 14.3877 25.8354 14.3518 29.6442C14.305 34.6468 14.0093 41.063 14.229 45.0554C14.1046 45.067 14.3398 47.0632 15.0206 49.9309Z" fill="#B366FF"/>
<path d="M88.431 14.671C88.3326 11.9202 88.3394 9.1848 86.0039 7.80697C84.1187 6.69437 64.9314 2.41595 54.7636 1.42606C54.2114 1.37244 53.6617 1.30238 53.123 1.18257C52.6515 1.07726 51.3846 1.09658 49.3167 1.43427C49.8778 1.70578 50.4295 2.01304 50.9619 2.35363C51.5589 2.28938 52.1341 2.24686 52.6842 2.22851C59.7155 2.49615 77.9077 6.4731 83.0247 7.76542C83.5837 7.90649 83.5098 7.90842 83.5654 8.33742C83.9027 10.9216 84.0375 23.2892 83.4176 30.6493C82.6556 39.6994 81.3908 53.7396 65.5362 68.9063C58.8999 75.2544 46.6226 81.985 44.0009 82.6797C42.836 82.9884 41.9028 82.5319 39.56 80.9748C31.9505 75.9177 25.511 69.7508 21.1769 62.6114C20.5257 62.4452 19.9959 62.2674 19.542 62.0848C19.7632 62.4809 19.9917 62.8703 20.2285 63.2515C19.9896 63.2786 23.8423 68.7266 28.8733 73.8379C34.479 79.5328 40.3444 82.5541 41.9361 83.5595C43.8031 84.7383 46.4159 85.174 47.8561 84.9388C51.7255 84.3073 59.663 79.17 64.401 76.0655C79.1506 66.4023 88.8057 48.3655 88.2665 28.9372C88.2056 26.7511 88.5908 19.1494 88.431 14.671Z" fill="#B366FF"/>
<path d="M38.1911 10.7533C40.4204 9.94316 43.191 9.02525 46.0537 8.33488C45.5972 8.0228 45.071 7.78656 44.4651 7.64355C41.3719 8.44455 38.7876 9.38806 37.717 9.89678C37.5624 9.9504 37.4052 10.004 37.2454 10.0581C36.7941 10.5069 36.3752 11.0002 35.99 11.5278C37.2251 11.1128 38.061 10.8239 38.1911 10.7533Z" fill="#B366FF"/>
<path d="M18.2605 22.7032C18.4687 22.5384 18.7092 22.394 18.9778 22.265C19.0428 20.364 19.0975 19.1344 19.1068 19.0799C19.2744 18.0682 19.5722 17.6093 21.5552 16.5508C22.1174 16.2508 24.0177 15.5643 26.3443 14.7638C26.4463 14.3492 26.5603 13.9251 26.6883 13.4941C22.0653 15.0956 18.2095 16.7754 18.184 18.3248C18.1637 19.5398 18.0612 21.1249 17.9404 22.9892C18.0419 22.8868 18.1486 22.7916 18.2605 22.7032Z" fill="#B366FF"/>
<path d="M68.0164 8.45322C64.9445 7.46381 58.8958 6.67537 56.5973 6.45024C56.0894 6.36329 55.5564 6.30531 55.0036 6.27246C55.23 6.62561 55.4346 6.99084 55.6147 7.36767C55.9847 7.40922 56.3449 7.46381 56.6942 7.53386C66.7282 8.34645 72.821 10.975 73.6403 11.0625C77.1812 11.8731 78.0873 14.1718 77.7542 22.6571C77.7407 23.0011 76.8423 33.6334 76.7502 34.5257C75.4818 46.8227 73.3061 50.2736 70.1311 54.3752C65.1547 60.8054 60.9856 67.0877 45.64 74.7875C43.887 75.6673 42.5967 75.8257 41.0087 75.5199C40.764 75.4726 38.1147 74.273 37.0706 73.4334C31.9917 69.3496 28.9609 67.1124 26.4225 63.804C26.3111 63.6586 26.2007 63.5108 26.0914 63.361C25.5246 63.3117 25.0005 63.2576 24.5154 63.1997C25.762 64.9988 27.2193 66.6655 28.9208 68.1539C36.1619 74.4885 39.4946 79.0495 46.3458 75.5412C53.7893 71.729 61.4566 66.7863 66.5777 60.488C76.3489 48.4692 76.9355 46.6802 78.5454 24.9722C79.7284 9.0228 77.9963 11.6669 68.0164 8.45322Z" fill="#B366FF"/>
<path d="M17.0538 60.2238C13.3036 58.5493 16.095 53.395 16.2246 38.4684C16.2449 36.1456 16.4307 30.143 16.7664 27.9009C17.1381 25.4191 16.8971 24.466 18.6267 23.1002C19.8561 22.1296 22.4429 21.9147 25.7808 21.3799C26.4413 21.2741 25.1854 2.33182 42.8159 0.549147C43.5831 0.471367 47.7929 0.866067 50.59 2.7328C53.3923 4.60292 54.4603 5.91214 55.3384 8.11899C56.9608 12.1979 56.89 19.3213 56.8067 19.7011C56.7547 19.9373 56.915 19.9735 57.1133 19.9928C58.9267 20.1677 59.3935 20.6909 60.2929 21.318C68.2315 26.8544 64.7327 24.0374 65.6545 44.4411C65.7649 46.8842 65.4677 53.6941 65.1892 55.9425C64.3731 62.5335 61.0326 62.3253 52.293 62.7229C19.9347 64.1945 20.2605 61.6557 17.0538 60.2238ZM58.2453 39.2781C58.2745 36.6258 58.617 31.6203 58.3276 24.5457C58.2755 23.278 57.2798 21.1968 56.0447 20.9707C53.0509 20.4233 37.1348 21.133 34.2341 21.3523C30.9696 21.5992 28.5316 22.1316 26.8411 22.3383C21.0225 23.0509 18.6043 23.15 17.8944 25.6404C17.2 28.0753 17.1058 35.9036 16.8601 46.6445C16.527 61.1958 11.7635 59.6025 32.1173 59.258C34.639 59.2155 53.132 58.8107 57.0128 57.7435C59.0433 57.185 58.1522 47.6919 58.2453 39.2781ZM58.1272 21.2731C59.0568 22.0876 59.4378 23.093 59.4534 24.2457C59.4982 27.5902 59.5367 30.9353 59.4196 34.2808C58.7252 54.098 60.3559 52.4211 58.2547 57.9918C57.9815 58.7165 57.4266 59.089 56.6412 59.1933C49.2497 60.1764 26.7099 60.3093 19.2424 60.3093C20.6441 60.96 22.1733 61.7441 24.667 61.7683C30.4194 61.8238 36.772 62.5475 51.5544 61.8634C54.7003 61.718 62.2594 61.5968 63.4679 58.9373C65.0008 55.5656 64.1003 41.2105 64.2893 29.6975C64.3309 27.1593 64.5266 26.0288 63.7396 25.3186C62.645 24.3317 59.0906 21.4886 58.1272 21.2731ZM55.8568 19.9436C55.5794 15.4463 55.7668 11.2263 53.3881 6.63777C52.2514 4.44446 45.4965 -0.722396 37.7776 2.57579C31.6233 5.20535 28.5758 11.6418 28.147 13.8052C28.1449 13.8158 26.612 20.6755 26.9785 21.1755C27.1575 21.2059 26.9852 21.203 31.6004 20.5499C31.9262 20.504 31.7097 20.2798 31.755 19.2237C31.8419 17.1947 32.5717 13.7139 33.8588 12.0843C34.8379 10.8447 35.069 9.30985 38.5011 7.17692C40.253 6.088 43.1501 5.60199 45.7916 6.46869C47.5066 7.03151 49.65 9.22676 50.2168 12.4259C50.4807 13.9144 50.8565 18.7575 50.8445 19.2783C50.8237 20.1566 50.8143 19.4716 55.8568 19.9436ZM32.5232 20.4204C35.1116 20.3127 35.3422 20.0798 43.6685 19.8503C49.8399 19.6803 49.8306 20.1078 49.7947 19.2648C49.5115 12.6018 49.0337 10.6959 47.3968 8.80307C46.1231 7.33055 44.0422 6.79189 42.2507 7.00832C39.0236 7.39819 37.4809 8.8166 35.7263 10.965C33.2087 14.0482 32.3286 19.2865 32.5232 20.4204Z" fill="#0047AB"/>
<path d="M32.4875 44.9236C32.5495 41.8897 32.7311 41.9588 32.321 41.7399C29.2761 40.1171 28.7884 36.3547 31.4205 34.243C34.7715 31.555 39.5886 33.0227 40.7706 36.2262C41.5899 38.4456 40.3537 40.7128 38.4992 41.6626C38.215 41.808 38.1286 41.994 38.1364 42.2829C38.1864 44.0859 38.0016 45.8831 37.9506 47.6836C37.9225 48.6759 37.5831 49.8107 36.5141 49.8276C32.5026 49.8909 32.3845 49.9813 32.4875 44.9236Z" fill="#0047AB"/>
</svg>
