<svg xmlns="http://www.w3.org/2000/svg" fill="none" viewBox="-0.5 -0.5 65 65" id="Bug-Found--Streamline-Brooklyn.svg" height="65" width="65"><desc>Bug Found Streamline Illustration: https://streamlinehq.com</desc><g id="bug-found--work-job-office-company-bug-found"><g id="table"><g id="vector"><path fill="#0047ab" d="M3.38688 41.60448c-0.2800096 -0.096 -0.2358496 -0.2768 -0.01184 -0.35200000000000004 0.49081600000000003 -0.16448000000000002 15.919839999999999 -0.22399999999999998 30.584960000000002 -0.22208v0.7023999999999999c-14.565920000000002 0.06208 -29.962752000000002 0.07776 -30.57312 -0.12832000000000002Z" stroke-width="1"></path><path fill="#0047ab" d="M60.26784 41.15648c0.24416000000000002 0.12960000000000002 0.20576 0.40192 -0.37536 0.42464 0.00192 0 -5.792960000000001 0.043840000000000004 -13.67264 0.08960000000000001l0.5603199999999999 -0.62272c7.72864 0.02176 13.398399999999999 0.06112 13.487680000000001 0.10848000000000001Z" stroke-width="1"></path><path fill="#0047ab" d="M36.800000000000004 41.72032v-0.68896c2.62976 0.00192 5.201280000000001 0.00544 7.620159999999999 0.01088l0.42016 0.6361600000000001c-2.53504 0.0144 -5.2528 0.0288 -8.040320000000001 0.041920000000000006Z" stroke-width="1"></path></g></g><g id="mouse pad"><path id="Subtract" fill="#0047ab" fill-rule="evenodd" d="M44.7232 49.81152c-1.67072 0.00128 -3.7996800000000004 -0.00256 -6.50784 -0.00768 -3.0076799999999997 -0.0057599999999999995 -6.729952 -0.01248 -11.331520000000001 -0.01504 -11.211872000000001 -0.00736 -13.023743999999999 0.06464 -13.084864 -0.22848 -0.012032000000000001 -0.05792 0.044032 -0.12992 0.109504 -0.21952000000000002 4.568608 -6.24096 4.606048 -6.24096 4.83776 -6.24l0.016 0c19.88608 -0.16544 21.45824 -0.12128 23.59712 -0.06112 0.75488 0.02112 1.58048 0.044480000000000006 3.30592 0.06112l0.016 0c0.13568 -0.00064 0.20448 -0.00064 1.1497600000000001 1.24384 -0.18111999999999998 -0.04288 -0.36128 -0.07744 -0.5392 -0.10400000000000001 -0.48607999999999996 -0.6630400000000001 -0.57216 -0.7539199999999999 -0.66848 -0.7664 -0.01728 -0.0022400000000000002 -0.03488 -0.00192 -0.05536 -0.00192H18.86176c-0.020544 0 -0.038304 -0.00064 -0.055744 0.0016 -0.204224 0.02528 -0.363904 0.41088 -4.422016 5.89184h29.3616c0.13055999999999998 0.06784 0.26784 0.13472 0.41184 0.20032 0.1808 0.08288000000000001 0.36991999999999997 0.16512000000000002 0.56576 0.24544000000000002Z" clip-rule="evenodd" stroke-width="1"></path></g><g id="computer"><path id="Subtract_2" fill="#0047ab" fill-rule="evenodd" d="M52.417280000000005 9.721408c0.5763199999999999 0.267328 0.5536 1.8260800000000001 0.8256 25.137152 0.0028799999999999997 0.24128 0.00672 0.46496000000000004 0.01024 0.67264 0.032959999999999996 1.87712 0.04288 2.4272 -1.0144 2.44352 -0.22047999999999998 0.00384 -0.51456 0.011519999999999999 -0.9574400000000001 0.02368 -0.9440000000000001 0.02528 -2.56256 0.06848 -5.579199999999999 0.12832000000000002 -0.21152 -0.27072 -0.41600000000000004 -0.5312 -0.61376 -0.7824 5.9248 -0.09055999999999999 7.12288 0.06848 7.38912 -0.35648 0.07072 -0.11263999999999999 0.07584 -0.26624 0.0864 -0.47648v-0.00128c0.04288 -0.6115200000000001 0.03328 -1.2259200000000001 -0.02912 -1.8358400000000001 -0.00512 -0.04096 0.00544 -0.08704 0.01568 -0.13248 0.018240000000000003 -0.07936 0.035840000000000004 -0.1568 -0.03136 -0.2 -0.017920000000000002 -0.011519999999999999 -3.38496 0.041920000000000006 -8.18048 0.11776 -0.4976 0.00768 -1.01024 0.016 -1.5363200000000001 0.02432 -0.7609600000000001 -0.93632 -1.35488 -1.64896 -1.8144 -2.1984 5.05216 -0.04096 8.96864 -0.06336 9.69088 -0.05888 0.06464 0.00064 0.11327999999999999 0.00128 0.14976 -0.01984 0.17376000000000003 -0.10048 0.06112 -0.69696 0.01216 -4.172096000000001 -0.05792 -4.10368 -0.09888 -12.74496 -0.0768 -14.0416 0.00064 -0.049215999999999996 0.01984 -0.087904 0.01056 -0.117888 -0.04768 -0.15529600000000002 -0.85504 -0.077824 -8.93856 -0.024192 -3.59008 0.023552 -4.06752 0.09487999999999999 -4.41408 -0.085664 -0.08608 -0.044992000000000004 -0.16448000000000002 -0.105696 -0.28064 -0.18665600000000002 12.734079999999999 -0.070976 13.6208 -0.038752 13.63424 -0.13232 0.00192 -0.013600000000000001 -0.0144 -0.029824000000000003 -0.01568 -0.04944 -0.02496 -0.39132800000000006 -0.014079999999999999 -0.677568 -0.0064 -0.88304 0.01344 -0.35910400000000003 0.017920000000000002 -0.47152 -0.19328 -0.46704 -6.246079999999999 0.1336 -36.332384000000005 -0.15152 -37.401504 -0.161664 -0.019264 -0.00016 -0.02912 -0.00025600000000000004 -0.029248 -0.00025600000000000004 -0.326784 -0.003488 -0.32671999999999995 -0.002272 -0.314496 0.326496l0.000288 0.007584c0.08153600000000001 2.435968 0.135808 8.089504 0.182048 12.907712 0.019296 2.008032 0.037184 3.870976 0.05504 5.295488000000001 0.023039999999999998 1.779136 -0.046976000000000004 2.185536 0.08300800000000001 2.264896 0.038048000000000005 0.02336 0.09328 0.01856 0.17302399999999998 0.01216 1.8684479999999999 -0.15136 14.513664000000002 -0.29888000000000003 24.608960000000003 -0.38784 0.07776 0.11231999999999999 0.17248000000000002 0.25056 0.28864 0.42112000000000005 0.27328 0.40031999999999995 0.6672 0.97696 1.24576 1.8038399999999999 -11.095008 0.17312000000000002 -25.53968 0.38432000000000005 -27.592992 0.28736 -0.168 -0.008 -0.20096 0.044160000000000005 -0.1984 0.19616 0.005376 0.6857599999999999 0.051296 1.3705600000000002 0.1376 2.05088 0.032608000000000005 0.23776 0.052096 0.41984000000000005 0.140832 0.55744 0.405152 0.62816 2.254208 0.32543999999999995 13.38912 0.10432000000000001 8.512640000000001 -0.16896 12.91264 -0.24672000000000002 14.58048 -0.27616 0.49888 -0.008960000000000001 0.7532800000000001 -0.01344 0.80032 -0.01472 0.27104 -0.00768 0.53568 -0.01504 0.7942400000000001 -0.02176 0.17792000000000002 0.24704 0.36448 0.50464 0.5596800000000001 0.77408 -0.6848000000000001 0.01184 -1.41632 0.024 -2.19808 0.0368 -2.6672000000000002 0.04288 -3.08736 0.01856 -3.1232 0.12416 -0.00832 0.02528 0.0048 0.0576 0.01472 0.09984 0.71904 3.0748800000000003 0.49696 3.77536 0.70848 3.94976 0.0672 0.05568 0.17856000000000002 0.05792 0.3776 0.06656 0.48704000000000003 -0.01024 0.9712000000000001 0.07808 1.4233600000000002 0.25984 0.7321599999999999 0.34432 1.3872 1.30816 0.51712 1.35456 -0.30656 0.01664 -6.13984 0.12192 -7.13216 0.13984 -0.08 0.0016 -0.12864 0.00256 -0.14016 0.00256 -6.563456 0.11327999999999999 -7.85136 0.21600000000000003 -7.958112 -0.09119999999999999 -0.025856 -0.07456 0.017696 -0.17312000000000002 0.07232000000000001 -0.30176 0.09219200000000001 -0.21760000000000002 0.2328 -0.41152 0.41110399999999997 -0.56672 0.17833600000000002 -0.1552 0.389696 -0.26784 0.618048 -0.32927999999999996 0.932512 -0.28384000000000004 1.410816 -0.27456 1.6611840000000002 -0.27008 0.21347200000000002 0.00416 0.261216 0.00512 0.28345600000000004 -0.18144 0.40176 -3.3788799999999997 0.726272 -3.9340800000000002 0.6309440000000001 -4.0192000000000005 -0.022336 -0.02016 -0.067776 -0.014079999999999999 -0.140704 -0.0128 0.00672 0 -15.39872 0.37056 -16.17536 0.0384 -0.9716800000000001 -0.41503999999999996 -0.972128 -0.48352 -1.034912 -10.221056 -0.0025280000000000003 -0.392992 -0.005184 -0.801728 -0.007968 -1.22688 0 -0.000224 -0.00016 -0.009120000000000001 -0.00038399999999999996 -0.026368000000000003 -0.009728 -0.672992 -0.202656 -14.031168000000001 -0.058816 -16.453632l0 -0.000288c0.06656 -1.125504 0.075008 -1.268832 13.039648 -1.064032 2.20352 0.034688 6.5644160000000005 0.026016 11.223072 0.016768 7.8464 -0.015552 16.537280000000003 -0.032832 17.19072 0.152512 0.05536 0.01568 0.10624 0.028864 0.15295999999999998 0.050624ZM35.82112 42.90560000000001c0.02944 -0.02976 0.04864 -0.06752 0.05536 -0.10880000000000001v-0.00128c-0.0384 -0.6678400000000001 -0.11424 -1.33312 -0.22688 -1.9926400000000002 -0.023039999999999998 -0.1472 -0.044160000000000005 -0.28448 -0.064 -0.41216 -0.20768 -1.3488 -0.25152 -1.63296 -0.5760000000000001 -1.60384 -0.38272 0.0352 -0.44608 0.43200000000000005 -0.39328 0.8128000000000001 0.17216 1.1171200000000001 0.46976 2.21088 0.88736 3.2611200000000005 0.01984 0.036480000000000005 0.05088 0.06591999999999999 0.08832000000000001 0.08416 0.03776 0.017920000000000002 0.08 0.024 0.12096 0.01696s0.07872 -0.02688 0.10816 -0.056319999999999995Z" clip-rule="evenodd" stroke-width="1"></path><path id="vector_2" fill="#0047ab" d="M27.353248 13.649376c-0.1 0.0984 -0.21945599999999998 0.174848 -0.35072000000000003 0.224448 -0.13123200000000002 0.0496 -0.271424 0.071232 -0.41152 0.063552 -7.260800000000001 0.0176 -11.25568 0.07808 -12.531199999999998 0.04352 -0.61216 -0.01664 -0.59488 -0.2288 -0.0064 -0.25248000000000004 1.41248 -0.05696 6.102720000000001 -0.01376 13.29984 -0.07904Z" stroke-width="1"></path><path id="Subtract_3" fill="#0047ab" fill-rule="evenodd" d="M40.043200000000006 31.148128000000003c5.93792 -0.062240000000000004 10.51456 -0.110944 3.05344 -0.054560000000000004 -0.0057599999999999995 -0.003328 -0.01088 -0.006752 -0.016 -0.010176000000000001 -0.0035199999999999997 -0.002496 -0.00736 -0.004992 -0.011200000000000002 -0.007424 5.31968 -0.054368 6.090879999999999 0.006592000000000001 6.169919999999999 -0.198912 0.01728 -0.044896000000000005 0.0016 -0.10249599999999999 -0.007039999999999999 -0.176768l0.128 -7.98752c0.00096 -0.06550399999999999 0.04704 -0.120864 0.03872 -0.166304 -0.03104 -0.168864 -0.8096 -0.200992 -7.41152 -0.10870400000000001 -0.00064 0.11872 -0.0035199999999999997 0.237344 -0.00832 0.355872 6.136 -0.10112 6.92832 -0.10668799999999999 7.0048 0.124384 0.017920000000000002 0.054304 -0.00384 0.121728 -0.0048 0.204032 -0.08800000000000001 6.612704 0.02688 7.430528000000001 -0.19232 7.532928000000001 -0.03104 0.014624 -0.06944 0.014656 -0.11584 0.014912000000000002 -1.3507200000000001 0.007008 -4.76288 0.039168 -8.93088 0.08176 0.07488 0.10736000000000001 0.17440000000000003 0.236544 0.30304 0.39648000000000005Zm-3.7996800000000004 0.039872000000000005c-0.05856 -0.063104 -0.11552 -0.110528 -0.17472000000000001 -0.12979200000000002 -0.07712 -0.025088 -0.20704 0.022240000000000003 -0.42432000000000003 0.10153600000000002 -0.03104 0.011295999999999999 -0.06368 0.0232 -0.09824 0.035648 0.23072 -0.002432 0.46336 -0.004896 0.69728 -0.007392Zm-6.982176 0.078784c-0.35667200000000004 -0.110976 -0.705184 -0.24192 -1.0438079999999998 -0.392384 -7.053632 0.077696 -13.224896000000001 0.150048 -13.504256 0.160608 -0.022784 0.000832 -0.042848 0.0022400000000000002 -0.060511999999999996 -0.003616 -0.159264 -0.052832 -0.122336 -0.697312 -0.12636799999999998 -7.700064 0 -0.058784 -0.000576 -0.101184 0.018208 -0.131584 0.073248 -0.11852800000000001 0.440928 -0.055136000000000004 2.285792 -0.073216 2.11296 -0.020640000000000002 4.087328 -0.041472 5.932224 -0.062176 -0.009856 -0.10995200000000001 -0.017824 -0.219648 -0.023904 -0.329024 -2.489312 0.038272 -5.210016 0.07964800000000001 -8.18352 0.12400000000000001l-0.009664 0.00012800000000000002c-0.34240000000000004 0.00528 -0.345536 0.005312 -0.345856 0.35027200000000003 0 0.00672 0.03968 7.86016 0.03968 7.85024 0 0.048192000000000006 -0.00003200000000000001 0.088864 0.014848 0.123104 0.131584 0.302656 1.42928 0.098336 14.227072000000001 0.098336 0.00019199999999999998 -0.00272 0.283584 -0.007776 0.780064 -0.014624Z" clip-rule="evenodd" stroke-width="1"></path><path id="Subtract_4" fill="#0047ab" fill-rule="evenodd" d="M41.800000000000004 20.475583999999998c3.1616000000000004 -0.01552 5.286720000000001 -0.027744 5.29664 -0.030688 1.7385599999999999 -0.013248 2.1526400000000003 0.045599999999999995 2.25632 -0.10668799999999999 0.036160000000000005 -0.0536 0.03424 -0.133408 0.03776 -0.251712 0.04672 -1.55488 0.0464 -3.10912 0.0368 -4.6624 -0.0016 -0.263648 -0.09408 -0.262208 -0.60832 -0.25414400000000004 -0.10496000000000001 0.001664 -0.22752 0.003584 -0.37024 0.003584 0.05088 0.052000000000000005 0.0672 0.11651199999999999 0.08256000000000001 0.17539200000000002 0.022719999999999997 0.089344 0.04224 0.16572800000000001 0.17344 0.16572800000000001 0.04096 0 0.0864 -0.006143999999999999 0.13183999999999998 -0.01232 0.11136 -0.015168 0.22432 -0.030464 0.27712 0.044320000000000005 0.00064 0.000928 0.00128 0.001792 0.00192 0.002688 0.02464 0.036384 0.01056 0.099104 -0.07200000000000001 4.159872 -0.007039999999999999 0.36032 -0.01056 0.36479999999999996 -0.35424 0.36544 -2.1904 0.005312 -4.5510399999999995 0.013600000000000001 -6.971520000000001 0.023904 0.02976 0.125216 0.05696 0.250912 0.08192 0.37702399999999997Zm-18.932416 0.07577600000000001c0.020192 -0.114816 0.042432 -0.22896000000000002 0.06672 -0.342432 -4.474112 0.03376 -7.671488000000001 0.06512 -8.228704 0.08268800000000001 -0.046912 0.001472 -0.082912 0.002592 -0.110496 -0.012064 -0.146464 -0.077888 -0.056064 -0.60112 -0.106144 -3.8832960000000005 -0.002976 -0.191808 0.008864 -0.19168 0.522432 -0.18592 0.201856 0.002272 0.48121600000000003 0.005376 0.867648 -0.00192 3.390048 -0.063872 6.4107520000000005 -0.11993600000000001 9.102496 -0.169728 0.106976 -0.12688000000000002 0.217216 -0.251008 0.330592 -0.37216 -4.315104 0.097376 -8.228512 0.18998400000000001 -10.773568000000001 0.258368 -0.082848 0.002208 -0.1456 0.0028160000000000004 -0.193024 0.03008 -0.206656 0.118816 -0.12220800000000001 0.7440000000000001 -0.140416 4.21504 -0.00192 0.36735999999999996 0 0.37376 0.35392 0.38208 0.6462399999999999 0.014912000000000002 3.991456 0.011456 8.308544000000001 -0.000736ZM39.052800000000005 15.367583999999999c3.2208 -0.067776 6.06592 -0.125984 8.06624 -0.165248 -0.0057599999999999995 0.023168 -0.011200000000000002 0.04511999999999999 -0.01952 0.06591999999999999 -0.10176 0.256224 -0.63392 0.341504 -7.66368 0.493824 -0.12352 -0.134848 -0.25120000000000003 -0.266432 -0.38304000000000005 -0.39449599999999996Z" clip-rule="evenodd" stroke-width="1"></path><path id="vector_3" fill="#0047ab" d="M32.27808 37.066880000000005c-0.10304 -0.00256 -0.2048 -0.0256 -0.298912 -0.06752 -0.094208 -0.041920000000000006 -0.179264 -0.10208 -0.250272 -0.17696 -0.071008 -0.07488 -0.12656 -0.16288 -0.163552 -0.25920000000000004 -0.03696 -0.09632 -0.054592 -0.19872 -0.051904000000000006 -0.30176 0.002688 -0.10336000000000001 0.025664 -0.2048 0.067584 -0.29888000000000003 0.041951999999999996 -0.0944 0.10204800000000001 -0.17952 0.176832 -0.25056 0.07481600000000001 -0.07072 0.16288 -0.1264 0.259104 -0.16352 0.09632 -0.0368 0.19904 -0.054400000000000004 0.30208 -0.051840000000000004 1.01216 0.01728 1.01664 1.584 -0.04096 1.57024Z" stroke-width="1"></path><path id="vector_4" fill="#0047ab" d="M49.73696 12.410304000000002c0.10784 0.007712 0.20864000000000002 0.056319999999999995 0.28192 0.135904 0.07328 0.079584 0.11359999999999999 0.18412800000000001 0.11231999999999999 0.29232 -0.00096 0.10816 -0.04352 0.21180800000000002 -0.1184 0.28976 -0.0752 0.07795200000000001 -0.17696 0.124352 -0.28512 0.129696 -0.54688 -0.00128 -0.50304 -0.84192 0.00928 -0.84768Z" stroke-width="1"></path><path id="vector_5" fill="#0047ab" d="M48.48416 12.504384c0.10752 0.003232 0.21024 0.045888 0.28832 0.119904 0.07808 0.073984 0.1264 0.17414400000000002 0.13536 0.281376 -0.008 0.09961600000000001 -0.052160000000000005 0.192832 -0.12448000000000001 0.26201599999999997 -0.07200000000000001 0.06918400000000001 -0.16704000000000002 0.109504 -0.26688 0.113344 -0.051840000000000004 0.003552 -0.10400000000000001 -0.0032960000000000003 -0.15295999999999998 -0.02016 -0.04928 -0.016864 -0.0944 -0.043392 -0.13312 -0.078048 -0.03872 -0.034656 -0.07008 -0.076704 -0.09215999999999999 -0.12368000000000001 -0.022400000000000003 -0.046976000000000004 -0.03488 -0.09792000000000001 -0.03712 -0.149824 -0.00192 -0.051904000000000006 0.0064 -0.103712 0.02432 -0.15238400000000002 0.018240000000000003 -0.04864 0.046079999999999996 -0.093184 0.08192 -0.130912 0.03552 -0.03776 0.0784 -0.067968 0.12608 -0.088864 0.04736 -0.020895999999999998 0.09888 -0.032032 0.15072 -0.032768000000000005Z" stroke-width="1"></path></g><g id="mouse"><path id="vector_6" fill="#0047ab" d="M49.724799999999995 45.77696c1.5324799999999998 1.2230400000000001 2.07136 4.66336 -0.69472 4.8976 -2.4416 0.20672000000000001 -5.74336 -1.19168 -6.89888 -2.56704 -2.35712 -2.80544 3.2022399999999998 -5.835520000000001 7.5936 -2.33056Zm0.5008 3.95904c0.40384000000000003 -0.4112 0.67584 -1.3088 0.29344000000000003 -1.8684800000000001 -1.20992 -1.77088 -3.22784 -2.38624 -5.37088 -2.46912 -0.041920000000000006 -0.0032 -0.08352000000000001 0.00544 -0.12064 0.02528 -0.03712 0.01952 -0.06752 0.04928 -0.08832000000000001 0.08576 -0.22399999999999998 0.29376 -0.8736 0.39456 -1.1273600000000001 0.12960000000000002 -0.30752 -0.32 -0.61888 -0.07232000000000001 -1.1520000000000001 -0.00928 -0.37472 0.044160000000000005 -0.52576 0.31456 -0.66496 0.608 -0.024 0.04064 -0.032 0.08896000000000001 -0.022400000000000003 0.13504 0.0096 0.0464 0.036160000000000005 0.08736000000000001 0.07456 0.11488 1.35968 1.3273599999999999 2.52608 1.55552 4.37344 1.472 1.63968 -0.07200000000000001 3.07296 0.29632000000000003 3.80512 1.7763200000000001Zm-7.443840000000001 -4.35424c0.8835200000000001 -0.128 0.80864 -0.096 0.88416 -0.17472000000000001 0.12992 -0.15616 0.31168 -0.26048 0.51232 -0.29344000000000003 0.20032 -0.03328 0.40608 0.00736 0.5792 0.11359999999999999 0.65472 0.50144 2.83072 -0.376 5.56992 2.15072 -0.43936000000000003 -1.7875200000000002 -5.268479999999999 -3.73664 -7.545599999999999 -1.7961600000000002Z" stroke-width="1"></path></g><g id="magnifier"><path id="vector_7" fill="#b366ff" d="M32.128 12.685472c9.059840000000001 -0.05376 12.76512 10.472639999999998 7.286079999999999 16.1168 -0.2656 0.2736 0.54944 0.68352 0.23872000000000002 1.2256 -0.20896 0.36416 -0.07072 0.5539200000000001 0.1632 0.82624 1.4377600000000001 1.672288 2.76608 3.4345280000000002 4.16 5.1417280000000005 3.7337599999999997 4.568960000000001 3.6230399999999996 4.363840000000001 3.1433600000000004 5.03488 -0.50272 0.7040000000000001 -1.1475199999999999 1.216 -2.00896 1.1571200000000001 -0.384 -0.02656 -7.44896 -10.387808 -7.66304 -10.321568 -0.80448 0.248288 -1.05024 -0.69952 -1.3804800000000002 -0.8079999999999999 -0.0057599999999999995 -0.00192 -4.68384 1.908128 -8.976 -0.78176 -3.0681599999999998 -1.9244800000000002 -4.88288 -5.442880000000001 -4.14848 -9.97696 0.72032 -4.4448 5.23744 -7.8291200000000005 9.185599999999999 -7.61408Zm0.18239999999999998 1.43712c-1.10256 -0.017536 -2.196864 0.19267199999999998 -3.214432 0.617536 -1.017568 0.424832 -1.936512 1.055168 -2.699264 1.851488 -0.762752 0.79632 -1.352896 1.7415360000000002 -1.733536 2.776448 -0.38064000000000003 1.034944 -0.543552 2.13728 -0.478528 3.238048 0.43968000000000007 7.8448 10.15232 10.071648 14.523520000000001 4.936 4.60928 -5.41568 0.3616 -13.352 -6.39712 -13.41952h-0.00064Zm13.004800000000001 27.543008c0.6176 -0.008 1.8022399999999998 -1.01024 1.3996799999999998 -1.4835200000000002 -0.9920000000000001 -1.16672 -6.5369600000000005 -8.193568 -7.3696 -9.330528000000001 -0.22399999999999998 -0.30688 -0.21856000000000003 0.13376 -1.248 0.71744 -0.37408 0.21216000000000002 -0.17984000000000003 0.152 1.62976 2.653728 5.4569600000000005 7.542720000000001 5.31264 7.5004800000000005 5.5888 7.442880000000001h-0.00064Zm-8.82048 -10.810528c0.5760000000000001 0.46399999999999997 0.6544 0.5926400000000001 0.8793600000000001 0.42304 0.31168 -0.23552 0.7833600000000001 -0.21952000000000002 1.576 -1.1392 0.256 -0.29600000000000004 0.24256 -0.40576 0.01856 -0.71328 -0.20448 -0.28032 -0.08608 0.24064 -2.47392 1.4294399999999998Z" stroke-width="1"></path><path id="vector_8" fill="#b366ff" d="M45.52352 40.93824c-0.256 0.0304 -3.68 -4.4944 -3.82784 -4.68736 -0.08192 -0.1072 -0.152 -0.21536000000000002 -0.013120000000000001 -0.33055999999999996 0.15328 -0.128 0.22944 0.00192 0.30591999999999997 0.10048 3.6112 4.65344 3.33024 4.80736 3.83136 4.4639999999999995 0.11488 -0.07136 0.21664000000000003 -0.1616 0.30144 -0.2672 0.07392 -0.10048 0.18495999999999999 -0.07264000000000001 0.14592000000000002 0.07872 -0.06976 0.15488 -0.17248000000000002 0.29248 -0.3008 0.4032 -0.12864 0.11104 -0.27968 0.19232 -0.44288 0.23872000000000002Z" stroke-width="1"></path><path id="vector_9" fill="#b366ff" d="M38.56928 31.799072000000002c0.17504000000000003 0.02112 0.11456 -0.02752 1.84768 2.175968 1.01856 1.29376 1.128 1.3612799999999998 0.90976 1.54176 -0.18528 0.15328 -0.0992 0.20256000000000002 -2.688 -3.2496 -0.14688 -0.1952 -0.30752 -0.422688 -0.06944 -0.46812800000000004Z" stroke-width="1"></path></g><g id="bugs"><path id="f" fill="#b366ff" d="M47.91808 18.653696c-0.06144 0.096 0.18239999999999998 0.1728 0.264 0.37024 -0.06144 0.007872 -0.12352 0.0028160000000000004 -0.18272 -0.014816000000000001 -0.05952 -0.017632000000000002 -0.11424 -0.047456 -0.16128 -0.087584 -0.0496 -0.022112 -0.10368000000000001 -0.032896 -0.15808 -0.031552 -0.054400000000000004 0.0013120000000000002 -0.10752 0.01472 -0.15616 0.039232 -0.04864 0.024512000000000003 -0.09087999999999999 0.05952 -0.12416 0.102464 -0.0336 0.042944 -0.05696 0.092768 -0.06848 0.14585599999999999 -0.0016 0.119232 -0.04992 0.23305599999999999 -0.1344 0.31712 -0.00992 -0.02112 -0.02848 -0.04096 -0.02432 -0.05536 0.13088 -0.48512 -0.35648 -0.544 -0.55808 -0.8 -0.07872 -0.0992 -0.18175999999999998 0.11904 -0.0688 0.32448 0.11904 0.21632 0.10336000000000001 0.48384 -0.02784 0.49600000000000005 -0.11616 0.01088 -0.04992 -0.128 -0.0752 -0.19648 -0.0576 -0.15552 -0.10688 -0.31328 -0.15808 -0.47136000000000006 -0.10208 -0.3168 0.1264 -0.65472 -0.21824000000000002 -0.5676800000000001 -0.44799999999999995 0.11263999999999999 -0.7097600000000001 -0.20672000000000001 -1.0518399999999999 -0.568 -0.13632 -0.14400000000000002 0.0035199999999999997 -0.22688 0.11648 -0.18656 0.17952 0.103904 0.35072000000000003 0.22160000000000002 0.512 0.35200000000000004 0.28032 0.17920000000000003 0.27456 -0.16288 0.1216 -0.22816 -0.46304 -0.19744 -0.45152000000000003 -0.736 -0.7456 -0.8521599999999999 -0.13824 -0.05408 -0.07136 -0.18111999999999998 0.05344 -0.16 0.26176 0.044800000000000006 0.32799999999999996 0.19392 0.63136 0.5952000000000001 0.0144 -0.9279999999999999 0.8528 -1.44672 1.6844800000000002 -0.8422400000000001 -0.128 -1.1491200000000001 0.28 -1.0003199999999999 0.22399999999999998 -0.83904 -0.16 0.4768 0.18431999999999998 0.7952 0.06016 1.12 -0.064 0.16512000000000002 0.15808 0.3872 0.23263999999999999 0.05536 0.02112 -0.09376 -0.03776 -0.84096 0.24 -0.74624 0.096 0.032 0.0288 0.11552 0.02784 0.17920000000000003 -0.01472 0.7660800000000001 0.0608 0.80704 -0.15136 1.07744 -0.29248 0.37216 -0.00608 0.29696 0.2928 0.77696 0.07328 0.149184 0.16576000000000002 0.288256 0.27488 0.41375999999999996 0.19456 0.18495999999999999 -0.11424 0.256 -0.35200000000000004 -0.10176 -0.43264 -0.65472 -0.12352 0.07712 -0.31904 0.38368Z" stroke-width="1"></path><path id="g" fill="#b366ff" d="M18.141088 29.681888c-0.93728 0.6224000000000001 -1.8156800000000002 0.12192 -1.92384 -0.74112 -0.0064 -0.05280000000000001 0.0192 -0.12608 -0.03744 -0.15264 -0.07424 -0.03424 -0.10944000000000001 0.04032 -0.15008 0.08608 -0.18016 0.20224 -0.7478400000000001 0.57312 -0.8128000000000001 0.3232 -0.05344 -0.2064 0.21824000000000002 0.025920000000000002 0.672 -0.61888 0.096512 -0.15712 0.244032 -0.27632 0.41792 -0.3376 0.256 -0.23456 0.0688 -0.39232 -0.15744 -0.24608000000000002 -0.39808 0.2576 -0.5596800000000001 0.42944000000000004 -0.74816 0.38144 -0.096 -0.024 -0.16 -0.11872 -0.05824 -0.16256 0.41408 -0.18047999999999997 0.48 -0.7075199999999999 1.26272 -0.65376 0.048224 0.006624 0.09734400000000001 0.0017280000000000002 0.143296 -0.01424 0.045952 -0.016 0.087488 -0.042624 0.121216 -0.07776 0.033696000000000004 -0.035104 0.058624 -0.077664 0.072704 -0.12425599999999999 0.014112 -0.046592 0.016992 -0.09584 0.008384 -0.143744 -0.048960000000000004 -0.31008 0.256 -0.71552 0.28608 -1.04864 0.01216 -0.14144 0.128 -0.13632 0.16544 -0.00608 0.11872 0.41600000000000004 -0.24672000000000002 0.7440000000000001 -0.08864000000000001 0.8345600000000001 0.07392 0.04224 0.1216 -0.05376 0.17184000000000002 -0.0992 0.5296000000000001 -0.48256 0.49696 -0.06208 0.544 -0.49248 0.0096 -0.0848 0.016 -0.17824 0.11263999999999999 -0.1808 0.09664 -0.00256 0.0752 0.10048 0.08448 0.16608 -0.00208 0.08003199999999999 0.018112 0.15904000000000001 0.0584 0.22822399999999998 0.040288000000000004 0.06915199999999999 0.099008 0.12576 0.169632 0.163424 0.070624 0.037696 0.150368 0.054944 0.23024 0.049856 0.079904 -0.0050880000000000005 0.156768 -0.03232 0.222048 -0.078624 0.27904 -0.14368 0.32384 -0.02368 0.29344000000000003 -0.00864 -0.47136000000000006 0.23552 -0.26528 0.69216 -0.3456 1.056 -0.02464 0.1104 0.15008 0.11104 0.21024 0.032 0.21376 -0.28288 0.23936000000000002 -0.50464 0.53888 -0.52096 0.09888 -0.00544 0.1632 0.0576 0.06784 0.13824 -0.31328 0.26528 -0.42304 0.71904 -0.8416 0.8912000000000001 -0.12032 0.04928 -0.1168 0.17376000000000003 -0.01056 0.24992 0.44799999999999995 0.32 0.32352 0.78144 0.25408000000000003 1.344 -0.00864 0.06944 -0.0035199999999999997 0.16384 -0.09215999999999999 0.17312000000000002 -0.2736 0.02912 -0.136 -0.45216 -0.20736000000000002 -0.8528 -0.05152 -0.28800000000000003 -0.28800000000000003 -0.14688 -0.26176 0.01664 0.096 0.57952 -0.27328 0.8176000000000001 -0.29088 1.3519999999999999 -0.00544 0.16 -0.12416 0.15616 -0.18336 0.036160000000000005 -0.11008 -0.2256 -0.044160000000000005 -0.35616 0.1024 -0.96128Z" stroke-width="1"></path><path id="vector_10" fill="#b366ff" d="M35.33312 20.559296c0.85152 1.00672 0.71136 1.1475199999999999 0.9888 1.1840000000000002 1.2086400000000002 0.15231999999999998 2.008 1.19392 3.0288 1.056 0.24128 -0.032 0.31808000000000003 0.1344 0.07808 0.2864 -0.8896 0.5628799999999999 -1.7680000000000002 -0.384 -2.6592000000000002 -0.54944 -0.16 -0.02976 -0.21856000000000003 0.02112 -0.15584 0.20096 0.272 0.7833600000000001 0.48928 1.9984000000000002 -0.025920000000000002 2.76928 -0.46464 0.69568 -1.9840000000000002 -2.31648 -2.62144 -1.8048 -0.6166400000000001 0.49536 0.80192 1.8863999999999999 1.2656 2.5184 0.20064 0.2736 0.19712 0.27776 -0.08416 0.44223999999999997 -1.3801599999999998 0.8076800000000001 -2.35008 0.28800000000000003 -3.3398399999999997 -0.26272 0.041600000000000005 0.61952 0.4336 0.90336 0.64928 1.7654400000000001 0.21568 0.86208 -0.50464 1.3663999999999998 -0.4272 0.8268800000000001 0.036160000000000005 -0.48944000000000004 -0.095488 -0.9766400000000001 -0.37344 -1.38112 -0.94432 -1.7728000000000002 -0.47712000000000004 -1.7091200000000002 -0.7827200000000001 -1.9910400000000001 -0.64 -0.58976 -0.60384 -0.8819199999999999 -0.8640000000000001 -0.85152 -0.5632 0.064 0.27072 2.19936 -0.7734399999999999 2.84544 -0.168 0.10368000000000001 -0.29312 -0.020800000000000003 -0.21088 -0.15488 0.6275200000000001 -1.024 -0.19936 -2.42944 0.4416 -3.6624000000000003 0.025536 -0.041280000000000004 0.041376 -0.087808 0.046272 -0.136128 0.004896 -0.048288000000000005 -0.001248 -0.09708800000000001 -0.017984 -0.142656 -0.016768 -0.045568 -0.043648 -0.08672 -0.078656 -0.12038399999999999 -0.035008 -0.033632 -0.07721599999999999 -0.058848000000000004 -0.123392 -0.073792 -0.75616 -0.24224 -1.29856 -0.78848 -1.88352 -1.2745600000000001 -0.8320000000000001 -0.6902400000000001 -1.2016 -0.33183999999999997 -1.2086400000000002 -0.6115200000000001 -0.00768 -0.29952 0.78912 -0.27168 1.1504 -0.06144 0.59008 0.34336 1.76672 1.51936 1.78304 0.82848 0.008960000000000001 -0.3824 0.29408 -0.5244800000000001 3.4560000000000004 -3.20864 0.05344 -0.044256000000000004 0.1152 -0.077376 0.18144 -0.097312 0.06656 -0.019968 0.13632 -0.026368000000000003 0.20512 -0.018848 0.52576 0.03488 0.05696 -0.68096 -0.256 -1.1056000000000001s-0.6883199999999999 -0.8640000000000001 -0.63392 -1.4675200000000002c0.054400000000000004 -0.60352 0.37408 -0.5811200000000001 0.39456 -0.13632 0.04288 0.9302400000000001 1.376 1.66144 1.61312 2.97856 0.02528 0.195744 0.11744 0.37670400000000004 0.26111999999999996 0.512128 0.14336000000000002 0.135456 0.3296 0.21702400000000002 0.5264 0.230912 0.59104 0.095168 1.17536 0.228352 1.74912 0.39872 0.752 0.19648 1.064 -0.22399999999999998 1.1840000000000002 -0.00416 0.12 0.21984000000000004 -0.48 0.6662399999999999 -1.44928 0.49792000000000003 -0.33696 -0.105824 -0.6828799999999999 -0.18111999999999998 -1.03328 -0.22496Zm-4.217280000000001 2.0326400000000002c-0.026912 -0.051456 -0.063936 -0.096992 -0.10883200000000001 -0.133824 -0.044896000000000005 -0.036864 -0.096768 -0.06425600000000001 -0.152512 -0.080608 -0.055744 -0.016352 -0.114208 -0.02128 -0.171904 -0.014496 -0.057664 0.006784 -0.113408 0.02512 -0.16384 0.05392 -0.050464 0.0288 -0.09455999999999999 0.067488 -0.129728 0.113728 -0.035136 0.046239999999999996 -0.060608 0.099104 -0.074848 0.155392 -0.01424 0.056319999999999995 -0.016992 0.114912 -0.008096 0.17232 0.008928 0.057408 0.029312 0.112416 0.06 0.16172799999999998 0.33696 0.66848 0.88992 1.16384 1.39904 1.6931200000000002 0.1328 0.13856 0.7580800000000001 0.22432 -0.64928 -2.12128Z" stroke-width="1"></path><path id="vector_11" fill="#b366ff" d="M31.995168 18.179744c0.611552 0.35904 -0.50272 1.1308799999999999 -2.61632 2.864 -0.46336 0.38016 -0.7171200000000001 0.2816 -0.92416 -0.10912000000000001 -1.05984 -2.00128 1.1008 -4.18656 3.54048 -2.75488Z" stroke-width="1"></path><path id="vector_12" fill="#b366ff" d="M30.357408 16.840224c-0.007008 0.25344 -0.090464 0.498816 -0.23936000000000002 0.7040000000000001 -0.0608 0.06848 -0.11968000000000001 0.13664 -0.21696000000000001 0.08960000000000001 -0.30016 -0.14496 0.27904 -0.63712 -0.40128 -1.4835200000000002 -0.43168 -0.53888 0.6896 -0.36128 0.8576 0.6899200000000001Z" stroke-width="1"></path><path id="vector_13" fill="#b366ff" d="M27.75872 19.15232c-0.84384 -0.0028799999999999997 -1.26272 -0.99616 -1.056 -1.09792 0.16352 -0.08 0.53376 0.71776 1.41088 0.71776 0.1648 0 0.1232 0.14112 0.064 0.23199999999999998 -0.096 0.1536 -0.26111999999999996 0.14880000000000002 -0.41888 0.14816000000000001Z" stroke-width="1"></path></g></g></svg>