<svg width="40" height="40" viewBox="0 0 40 40" fill="none" xmlns="http://www.w3.org/2000/svg">
<path opacity="0.4" d="M0.00811258 37.7897C-0.0231394 39.0398 0.961299 40.0243 2.21138 39.993C5.15688 39.9227 10.3369 39.3992 13.009 36.7194C15.6966 34.0317 15.6966 29.6798 13.009 26.9922C10.3213 24.3045 5.96943 24.3045 3.28176 26.9922C0.601901 29.6642 0.0784296 34.8442 0.00811258 37.7897ZM0.242503 21.5465C0.570649 22.1325 1.19569 22.4997 1.87542 22.4997H9.25871C10.7822 19.101 13.2902 13.7413 15.5169 10.1552H9.20402C7.23514 10.1552 5.41471 11.1787 4.39902 12.8585L0.273755 19.648C-0.0778305 20.2261 -0.0934565 20.9527 0.242503 21.5387V21.5465ZM5.0475 33.8676C5.10219 32.8676 5.33658 31.43 6.11788 30.6408C7.00856 29.7502 8.46178 29.7502 9.35246 30.6408C10.2431 31.5315 10.2431 32.9848 9.35246 33.8754C8.56335 34.6645 7.12576 34.8911 6.12569 34.9458C5.50065 34.9849 5.00844 34.4848 5.03969 33.8598L5.0475 33.8676ZM17.478 30.6174C17.4936 33.1176 17.4936 35.6177 17.4936 38.1257C17.4936 38.8054 17.8608 39.4305 18.4468 39.7586C18.7359 39.9227 19.0484 40.0008 19.3687 40.0008C19.7047 40.0008 20.0407 39.9071 20.3454 39.7274L27.1349 35.6021C28.8147 34.5786 29.8382 32.7582 29.8382 30.7971V24.4842C26.2754 26.6875 20.9313 29.1251 17.478 30.6174Z" fill="#4185EB"/>
<path d="M17.4779 30.6173C17.1654 26.2421 13.6418 22.7575 9.25085 22.5075C10.9228 18.765 13.8136 12.6162 16.1888 9.10815C22.5877 -0.322145 32.1195 -0.634665 37.8074 0.412278C38.7137 0.576351 39.4169 1.28733 39.5887 2.19364C40.6357 7.88932 40.3154 17.4134 30.8851 23.8122C27.3926 26.1796 21.2673 28.9844 17.4779 30.6252V30.6173ZM33.1274 9.99883C33.1274 9.16998 32.7981 8.37507 32.212 7.78898C31.626 7.20289 30.831 6.87363 30.0022 6.87363C29.1733 6.87363 28.3784 7.20289 27.7923 7.78898C27.2063 8.37507 26.877 9.16998 26.877 9.99883C26.877 10.8277 27.2063 11.6226 27.7923 12.2087C28.3784 12.7948 29.1733 13.124 30.0022 13.124C30.831 13.124 31.626 12.7948 32.212 12.2087C32.7981 11.6226 33.1274 10.8277 33.1274 9.99883Z" fill="#0047AB"/>
</svg>
