<svg width="50" height="50" viewBox="0 0 50 50" fill="none" xmlns="http://www.w3.org/2000/svg">
<path opacity="0.4" d="M0.0101407 47.2371C-0.0289243 48.7997 1.20162 50.0302 2.76422 49.9912C6.4461 49.9033 12.9211 49.2489 16.2612 45.8991C19.6208 42.5395 19.6208 37.0997 16.2612 33.7401C12.9016 30.3805 7.46179 30.3805 4.1022 33.7401C0.752376 37.0802 0.098037 43.5552 0.0101407 47.2371ZM0.303128 26.933C0.713311 27.6655 1.49461 28.1245 2.34428 28.1245H11.5734C13.4778 23.8762 16.6128 17.1766 19.3962 12.6938H11.505C9.04393 12.6938 6.76839 13.9732 5.49878 16.073L0.342193 24.5598C-0.0972881 25.2826 -0.116821 26.1908 0.303128 26.9233V26.933ZM6.30937 42.3344C6.37774 41.0844 6.67073 39.2874 7.64735 38.301C8.7607 37.1876 10.5772 37.1876 11.6906 38.301C12.8039 39.4143 12.8039 41.2308 11.6906 42.3442C10.7042 43.3306 8.9072 43.6138 7.65712 43.6822C6.87582 43.731 6.26054 43.106 6.29961 42.3247L6.30937 42.3344ZM21.8475 38.2717C21.867 41.3969 21.867 44.5221 21.867 47.657C21.867 48.5067 22.326 49.288 23.0585 49.6982C23.4199 49.9033 23.8105 50.0009 24.2109 50.0009C24.6309 50.0009 25.0508 49.8837 25.4317 49.6591L33.9186 44.5025C36.0183 43.2232 37.2977 40.9476 37.2977 38.4963V30.6052C32.8443 33.3592 26.1642 36.4063 21.8475 38.2717Z" fill="#4185EB"/>
<path d="M21.8475 38.2717C21.4568 32.8026 17.0522 28.4468 11.5636 28.1343C13.6536 23.4563 17.2671 15.7702 20.236 11.3852C28.2346 -0.402681 40.1494 -0.793331 47.2593 0.515347C48.3921 0.720439 49.2711 1.60917 49.486 2.74205C50.7946 9.86165 50.3942 21.7667 38.6064 29.7653C34.2408 32.7245 26.5841 36.2305 21.8475 38.2815V38.2717ZM41.4093 12.4985C41.4093 11.4625 40.9977 10.4688 40.2651 9.73623C39.5325 9.00362 38.5388 8.59204 37.5028 8.59204C36.4667 8.59204 35.4731 9.00362 34.7405 9.73623C34.0078 10.4688 33.5963 11.4625 33.5963 12.4985C33.5963 13.5346 34.0078 14.5282 34.7405 15.2609C35.4731 15.9935 36.4667 16.405 37.5028 16.405C38.5388 16.405 39.5325 15.9935 40.2651 15.2609C40.9977 14.5282 41.4093 13.5346 41.4093 12.4985Z" fill="#0047AB"/>
</svg>
