<svg width="40" height="40" viewBox="0 0 40 40" fill="none" xmlns="http://www.w3.org/2000/svg">
<circle cx="20" cy="20" r="20" fill="#F3F3F3"/>
<path d="M14.8176 15.2001H18.1626C21.1588 10.2614 25.7563 10.0814 28.5463 10.5989C28.9813 10.6814 29.3226 11.0189 29.4013 11.4539C29.9188 14.2439 29.7388 18.8414 24.8001 21.8376V25.1864C24.8001 26.1389 24.2976 27.0239 23.4763 27.5076L20.1576 29.4764C19.8801 29.6414 19.5351 29.6451 19.2538 29.4839C18.9726 29.3226 18.8001 29.0264 18.8001 28.7001V24.3989C18.8001 23.5514 18.4626 22.7376 17.8626 22.1376C17.2626 21.5376 16.4488 21.2001 15.6013 21.2001H11.3001C10.9776 21.2001 10.6776 21.0276 10.5163 20.7464C10.3551 20.4651 10.3588 20.1201 10.5238 19.8426L12.4926 16.5239C12.9801 15.7026 13.8613 15.2001 14.8138 15.2001H14.8176ZM26.3001 15.2001C26.3001 14.8023 26.142 14.4208 25.8607 14.1395C25.5794 13.8582 25.1979 13.7001 24.8001 13.7001C24.4023 13.7001 24.0207 13.8582 23.7394 14.1395C23.4581 14.4208 23.3001 14.8023 23.3001 15.2001C23.3001 15.598 23.4581 15.9795 23.7394 16.2608C24.0207 16.5421 24.4023 16.7001 24.8001 16.7001C25.1979 16.7001 25.5794 16.5421 25.8607 16.2608C26.142 15.9795 26.3001 15.598 26.3001 15.2001ZM16.6438 28.0251C15.3613 29.3114 12.8751 29.5626 11.4613 29.5964C10.8613 29.6114 10.3888 29.1389 10.4038 28.5389C10.4376 27.1251 10.6888 24.6389 11.9751 23.3564C13.2651 22.0664 15.3538 22.0664 16.6438 23.3564C17.9338 24.6464 17.9338 26.7351 16.6438 28.0251ZM14.8926 26.6601C15.3201 26.2326 15.3201 25.5351 14.8926 25.1076C14.4651 24.6801 13.7676 24.6801 13.3401 25.1076C12.9613 25.4864 12.8526 26.1764 12.8263 26.6564C12.8076 26.9564 13.0476 27.1926 13.3476 27.1776C13.8276 27.1514 14.5176 27.0389 14.8963 26.6639L14.8926 26.6601Z" fill="#2D608D"/>
</svg>
