<svg width="40" height="40" viewBox="0 0 40 40" fill="none" xmlns="http://www.w3.org/2000/svg">
<circle cx="20" cy="20" r="20" fill="#F3F3F3"/>
<path d="M16.4 11.4C15.7363 11.4 15.2 11.9362 15.2 12.6V16.2H17.6V12.6C17.6 11.9362 17.0638 11.4 16.4 11.4ZM23.6 11.4C22.9363 11.4 22.4 11.9362 22.4 12.6V16.2H24.8V12.6C24.8 11.9362 24.2638 11.4 23.6 11.4ZM14 17.4C13.3363 17.4 12.8 17.9362 12.8 18.6C12.8 19.2637 13.3363 19.8 14 19.8V21C14 23.9025 16.0625 26.325 18.8 26.88V29.4C18.8 30.0637 19.3363 30.6 20 30.6C20.6638 30.6 21.2 30.0637 21.2 29.4V26.88C23.9375 26.325 26 23.9025 26 21V19.8C26.6638 19.8 27.2 19.2637 27.2 18.6C27.2 17.9362 26.6638 17.4 26 17.4H14Z" fill="#2D608D"/>
</svg>
