<svg width="38" height="50" viewBox="0 0 38 50" fill="none" xmlns="http://www.w3.org/2000/svg">
<path opacity="0.4" d="M6.25 3.125V15.625H12.5V3.125C12.5 1.39648 11.1035 0 9.375 0C7.64648 0 6.25 1.39648 6.25 3.125ZM25 3.125V15.625H31.25V3.125C31.25 1.39648 29.8535 0 28.125 0C26.3965 0 25 1.39648 25 3.125Z" fill="#4185EB"/>
<path d="M0 18.75C0 17.0215 1.39648 15.625 3.125 15.625H34.375C36.1035 15.625 37.5 17.0215 37.5 18.75C37.5 20.4785 36.1035 21.875 34.375 21.875V25C34.375 32.5586 29.0039 38.8672 21.875 40.3125V46.875C21.875 48.6035 20.4785 50 18.75 50C17.0215 50 15.625 48.6035 15.625 46.875V40.3125C8.49609 38.8672 3.125 32.5586 3.125 25V21.875C1.39648 21.875 0 20.4785 0 18.75Z" fill="#0047AB"/>
</svg>
