<svg width="30" height="40" viewBox="0 0 30 40" fill="none" xmlns="http://www.w3.org/2000/svg">
<path opacity="0.4" d="M5 2.5V12.5H10V2.5C10 1.11719 8.88281 0 7.5 0C6.11719 0 5 1.11719 5 2.5ZM20 2.5V12.5H25V2.5C25 1.11719 23.8828 0 22.5 0C21.1172 0 20 1.11719 20 2.5Z" fill="#4185EB"/>
<path d="M0 15C0 13.6172 1.11719 12.5 2.5 12.5H27.5C28.8828 12.5 30 13.6172 30 15C30 16.3828 28.8828 17.5 27.5 17.5V20C27.5 26.0469 23.2031 31.0937 17.5 32.25V37.5C17.5 38.8828 16.3828 40 15 40C13.6172 40 12.5 38.8828 12.5 37.5V32.25C6.79688 31.0937 2.5 26.0469 2.5 20V17.5C1.11719 17.5 0 16.3828 0 15Z" fill="#0047AB"/>
</svg>
