<svg width="40" height="40" viewBox="0 0 40 40" fill="none" xmlns="http://www.w3.org/2000/svg">
<circle cx="20" cy="20" r="20" fill="#F3F3F3"/>
<path d="M10.4 14C10.4 12.6763 11.4763 11.6 12.8 11.6H27.2C28.5238 11.6 29.6 12.6763 29.6 14V23.6H27.2V14H12.8V23.6H10.4V14ZM8 25.52C8 25.1225 8.3225 24.8 8.72 24.8H31.28C31.6775 24.8 32 25.1225 32 25.52C32 27.11 30.71 28.4 29.12 28.4H10.88C9.29 28.4 8 27.11 8 25.52ZM18.5375 18.2375L17.375 19.4L18.5375 20.5625C18.89 20.915 18.89 21.485 18.5375 21.8338C18.185 22.1825 17.615 22.1863 17.2663 21.8338L15.4663 20.0338C15.1138 19.6813 15.1138 19.1113 15.4663 18.7625L17.2663 16.9625C17.6188 16.61 18.1888 16.61 18.5375 16.9625C18.8863 17.315 18.89 17.885 18.5375 18.2338V18.2375ZM22.7375 16.9625L24.5375 18.7625C24.89 19.115 24.89 19.685 24.5375 20.0338L22.7375 21.8338C22.385 22.1863 21.815 22.1863 21.4663 21.8338C21.1175 21.4813 21.1138 20.9113 21.4663 20.5625L22.6288 19.4L21.4663 18.2375C21.1138 17.885 21.1138 17.315 21.4663 16.9663C21.8188 16.6175 22.3888 16.6138 22.7375 16.9663V16.9625Z" fill="#2D608D"/>
</svg>
