<svg width="50" height="50" viewBox="0 0 50 50" fill="none" xmlns="http://www.w3.org/2000/svg">
<path opacity="0.4" d="M0 25C0 26.0352 0.0585938 27.0605 0.185547 28.0664C0.3125 29.0723 1.13281 29.834 2.13867 29.9609L4.36523 30.2441C4.99023 30.3223 5.50781 30.7715 5.70313 31.377C6.00586 32.3047 6.37695 33.2031 6.80664 34.0625C7.08984 34.6289 7.04102 35.3027 6.66016 35.8008L5.27344 37.5781C4.64844 38.3789 4.60937 39.4922 5.22461 40.293C6.48437 41.9238 7.93945 43.3887 9.56055 44.6582C10.3613 45.2832 11.4844 45.2441 12.2852 44.6191L14.043 43.252C14.541 42.8613 15.2344 42.8223 15.8008 43.1055C16.6797 43.5547 17.5879 43.9355 18.5254 44.248C19.1211 44.4531 19.5703 44.9609 19.6484 45.5859L19.9316 47.8418C20.0586 48.8477 20.8105 49.668 21.8164 49.7949C22.8613 49.9316 23.9355 50 25.0195 50C26.0059 50 26.9824 49.9414 27.9395 49.834C28.9551 49.7168 29.7168 48.8867 29.8438 47.8809L30.1172 45.6836C30.1953 45.0488 30.6543 44.5312 31.2598 44.3359C32.2363 44.0234 33.1836 43.6328 34.0918 43.1836C34.6582 42.9004 35.332 42.9492 35.8301 43.3301L37.5977 44.7168C38.3984 45.3418 39.5117 45.3809 40.3125 44.7656C40.5859 44.5508 40.8496 44.3359 41.1133 44.1113L44.1113 41.1133C44.2871 40.8984 44.4629 40.6836 44.6387 40.4687C45.2734 39.668 45.2246 38.5449 44.5996 37.7441L43.2324 35.9961C42.8418 35.498 42.8027 34.8047 43.0859 34.2383C43.5547 33.3203 43.9648 32.3535 44.2871 31.3574C44.4824 30.752 45 30.3027 45.625 30.2246L47.8516 29.9512C48.8574 29.8242 49.6875 29.0625 49.8047 28.0566C49.8242 27.8906 49.8438 27.7148 49.8633 27.5488V22.4805C49.8438 22.3145 49.8242 22.1387 49.8047 21.9727C49.6777 20.9668 48.8574 20.2051 47.8516 20.0781L45.625 19.8047C45 19.7266 44.4824 19.2773 44.2871 18.6719C43.9551 17.6758 43.5547 16.709 43.0859 15.791C42.793 15.2246 42.8418 14.541 43.2324 14.0332L44.5996 12.2852C45.2246 11.4844 45.2637 10.3613 44.6387 9.56055C44.4629 9.3457 44.2871 9.13086 44.1113 8.91602L41.1133 5.88867C40.8496 5.66406 40.5859 5.44922 40.3125 5.23437C39.5117 4.60937 38.3984 4.6582 37.5977 5.2832L35.8105 6.66992C35.3125 7.06055 34.6289 7.09961 34.0723 6.81641C33.1641 6.36719 32.2168 5.97656 31.2402 5.66406C30.6348 5.46875 30.1758 4.95117 30.0977 4.32617L29.8242 2.12891C29.6973 1.11328 28.9355 0.292969 27.9199 0.175781C26.9629 0.0585937 25.9863 0 25 0C23.916 0 22.8418 0.0683594 21.7969 0.205078C20.791 0.332031 20.0391 1.15234 19.9121 2.1582L19.6289 4.41406C19.5508 5.03906 19.1016 5.54688 18.5059 5.75195C17.5684 6.06445 16.6504 6.45508 15.7813 6.89453C15.2148 7.1875 14.5313 7.13867 14.0234 6.74805L12.2656 5.38086C11.4648 4.75586 10.3418 4.7168 9.54102 5.3418C7.91992 6.61133 6.46484 8.07617 5.20508 9.70703C4.58984 10.5078 4.62891 11.6211 5.25391 12.4219L6.64062 14.209C7.03125 14.707 7.07031 15.3809 6.78711 15.9473C6.35742 16.8066 5.98633 17.6953 5.68359 18.623C5.48828 19.2285 4.9707 19.6777 4.3457 19.7559L2.11914 20.0391C1.11328 20.166 0.292969 20.9277 0.166016 21.9336C0.0683594 22.9297 0 23.9551 0 25ZM12.1777 23.8965C13.4766 22.5977 14.7852 21.2891 16.084 19.9902C16.6895 19.3848 17.6855 19.3848 18.291 19.9902C18.8965 20.5957 18.8965 21.5918 18.291 22.1973C17.3535 23.1348 16.4258 24.0625 15.4883 25C16.4258 25.9375 17.3535 26.8652 18.291 27.8027C18.8965 28.4082 18.8965 29.4043 18.291 30.0098C17.6855 30.6152 16.6895 30.6152 16.084 30.0098C14.7852 28.7109 13.4766 27.4023 12.1777 26.1035C11.5723 25.498 11.5723 24.502 12.1777 23.8965ZM21.8945 34.1211C22.9395 27.8711 23.9746 21.6211 25.0195 15.3711C25.1465 14.6094 25.8105 14.0625 26.5625 14.0625C26.6504 14.0625 26.7383 14.0723 26.8164 14.082C27.666 14.2285 28.2422 15.0293 28.1055 15.8789C27.0605 22.1289 26.0254 28.3789 24.9805 34.6289C24.834 35.4785 24.0332 36.0547 23.1836 35.918C22.334 35.7812 21.7578 34.9707 21.8945 34.1211ZM31.709 19.9902C32.3145 19.3848 33.3105 19.3848 33.916 19.9902C35.2148 21.2891 36.5234 22.5977 37.8223 23.8965C38.125 24.1992 38.2812 24.5996 38.2812 25C38.2812 25.4004 38.125 25.8008 37.8223 26.1035C36.5234 27.4023 35.2148 28.7109 33.916 30.0098C33.3105 30.6152 32.3145 30.6152 31.709 30.0098C31.1035 29.4043 31.1035 28.4082 31.709 27.8027C32.6465 26.8652 33.5742 25.9375 34.5117 25C33.5742 24.0625 32.6465 23.1348 31.709 22.1973C31.1035 21.5918 31.1035 20.5957 31.709 19.9902Z" fill="#4185EB"/>
<path d="M26.8164 14.082C27.666 14.2284 28.2422 15.0292 28.1055 15.8788L24.9805 34.6288C24.834 35.4784 24.0332 36.0546 23.1836 35.9179C22.334 35.7812 21.7578 34.9706 21.8945 34.121L25.0195 15.371C25.166 14.5214 25.9668 13.9452 26.8164 14.082ZM18.291 19.9902C18.8965 20.5956 18.8965 21.5917 18.291 22.1972L15.4883 24.9999L18.291 27.8027C18.8965 28.4081 18.8965 29.4042 18.291 30.0097C17.6855 30.6152 16.6895 30.6152 16.084 30.0097L12.1777 26.1034C11.5723 25.498 11.5723 24.5019 12.1777 23.8964L16.084 19.9902C16.6895 19.3847 17.6855 19.3847 18.291 19.9902ZM31.709 19.9902C32.3145 19.3847 33.3105 19.3847 33.916 19.9902L37.8223 23.8964C38.4277 24.5019 38.4277 25.498 37.8223 26.1034L33.916 30.0097C33.3105 30.6152 32.3145 30.6152 31.709 30.0097C31.1035 29.4042 31.1035 28.4081 31.709 27.8027L34.5117 24.9999L31.709 22.1972C31.1035 21.5917 31.1035 20.5956 31.709 19.9902Z" fill="#0047AB"/>
</svg>
