<svg width="40" height="40" viewBox="0 0 40 40" fill="none" xmlns="http://www.w3.org/2000/svg">
<path opacity="0.4" d="M0 20C0 20.8281 0.046875 21.6484 0.148437 22.4531C0.25 23.2578 0.90625 23.8672 1.71094 23.9687L3.49219 24.1953C3.99219 24.2578 4.40625 24.6172 4.5625 25.1016C4.80469 25.8437 5.10156 26.5625 5.44531 27.25C5.67187 27.7031 5.63281 28.2422 5.32812 28.6406L4.21875 30.0625C3.71875 30.7031 3.6875 31.5938 4.17969 32.2344C5.1875 33.5391 6.35156 34.7109 7.64844 35.7266C8.28906 36.2266 9.1875 36.1953 9.82813 35.6953L11.2344 34.6016C11.6328 34.2891 12.1875 34.2578 12.6406 34.4844C13.3438 34.8437 14.0703 35.1484 14.8203 35.3984C15.2969 35.5625 15.6562 35.9687 15.7187 36.4687L15.9453 38.2734C16.0469 39.0781 16.6484 39.7344 17.4531 39.8359C18.2891 39.9453 19.1484 40 20.0156 40C20.8047 40 21.5859 39.9531 22.3516 39.8672C23.1641 39.7734 23.7734 39.1094 23.875 38.3047L24.0937 36.5469C24.1562 36.0391 24.5234 35.625 25.0078 35.4688C25.7891 35.2187 26.5469 34.9063 27.2734 34.5469C27.7266 34.3203 28.2656 34.3594 28.6641 34.6641L30.0781 35.7734C30.7187 36.2734 31.6094 36.3047 32.25 35.8125C32.4687 35.6406 32.6797 35.4688 32.8906 35.2891L35.2891 32.8906C35.4297 32.7187 35.5703 32.5469 35.7109 32.375C36.2188 31.7344 36.1797 30.8359 35.6797 30.1953L34.5859 28.7969C34.2734 28.3984 34.2422 27.8438 34.4688 27.3906C34.8438 26.6563 35.1719 25.8828 35.4297 25.0859C35.5859 24.6016 36 24.2422 36.5 24.1797L38.2812 23.9609C39.0859 23.8594 39.75 23.25 39.8438 22.4453C39.8594 22.3125 39.875 22.1719 39.8906 22.0391V17.9844C39.875 17.8516 39.8594 17.7109 39.8438 17.5781C39.7422 16.7734 39.0859 16.1641 38.2812 16.0625L36.5 15.8438C36 15.7813 35.5859 15.4219 35.4297 14.9375C35.1641 14.1406 34.8438 13.3672 34.4688 12.6328C34.2344 12.1797 34.2734 11.6328 34.5859 11.2266L35.6797 9.82813C36.1797 9.1875 36.2109 8.28906 35.7109 7.64844C35.5703 7.47656 35.4297 7.30469 35.2891 7.13281L32.8906 4.71094C32.6797 4.53125 32.4687 4.35937 32.25 4.1875C31.6094 3.6875 30.7187 3.72656 30.0781 4.22656L28.6484 5.33594C28.25 5.64844 27.7031 5.67969 27.2578 5.45313C26.5312 5.09375 25.7734 4.78125 24.9922 4.53125C24.5078 4.375 24.1406 3.96094 24.0781 3.46094L23.8594 1.70312C23.7578 0.890625 23.1484 0.234375 22.3359 0.140625C21.5703 0.046875 20.7891 0 20 0C19.1328 0 18.2734 0.0546875 17.4375 0.164062C16.6328 0.265625 16.0312 0.921875 15.9297 1.72656L15.7031 3.53125C15.6406 4.03125 15.2812 4.4375 14.8047 4.60156C14.0547 4.85156 13.3203 5.16406 12.625 5.51562C12.1719 5.75 11.625 5.71094 11.2188 5.39844L9.8125 4.30469C9.17187 3.80469 8.27344 3.77344 7.63281 4.27344C6.33594 5.28906 5.17187 6.46094 4.16406 7.76563C3.67187 8.40625 3.70312 9.29687 4.20312 9.9375L5.3125 11.3672C5.625 11.7656 5.65625 12.3047 5.42969 12.7578C5.08594 13.4453 4.78906 14.1562 4.54688 14.8984C4.39063 15.3828 3.97656 15.7422 3.47656 15.8047L1.69531 16.0312C0.890625 16.1328 0.234375 16.7422 0.132813 17.5469C0.0546875 18.3438 0 19.1641 0 20ZM9.74219 19.1172C10.7812 18.0781 11.8281 17.0312 12.8672 15.9922C13.3516 15.5078 14.1484 15.5078 14.6328 15.9922C15.1172 16.4766 15.1172 17.2734 14.6328 17.7578C13.8828 18.5078 13.1406 19.25 12.3906 20C13.1406 20.75 13.8828 21.4922 14.6328 22.2422C15.1172 22.7266 15.1172 23.5234 14.6328 24.0078C14.1484 24.4922 13.3516 24.4922 12.8672 24.0078C11.8281 22.9687 10.7812 21.9219 9.74219 20.8828C9.25781 20.3984 9.25781 19.6016 9.74219 19.1172ZM17.5156 27.2969C18.3516 22.2969 19.1797 17.2969 20.0156 12.2969C20.1172 11.6875 20.6484 11.25 21.25 11.25C21.3203 11.25 21.3906 11.2578 21.4531 11.2656C22.1328 11.3828 22.5937 12.0234 22.4844 12.7031C21.6484 17.7031 20.8203 22.7031 19.9844 27.7031C19.8672 28.3828 19.2266 28.8437 18.5469 28.7344C17.8672 28.625 17.4062 27.9766 17.5156 27.2969ZM25.3672 15.9922C25.8516 15.5078 26.6484 15.5078 27.1328 15.9922C28.1719 17.0312 29.2187 18.0781 30.2578 19.1172C30.5 19.3594 30.625 19.6797 30.625 20C30.625 20.3203 30.5 20.6406 30.2578 20.8828C29.2187 21.9219 28.1719 22.9687 27.1328 24.0078C26.6484 24.4922 25.8516 24.4922 25.3672 24.0078C24.8828 23.5234 24.8828 22.7266 25.3672 22.2422C26.1172 21.4922 26.8594 20.75 27.6094 20C26.8594 19.25 26.1172 18.5078 25.3672 17.7578C24.8828 17.2734 24.8828 16.4766 25.3672 15.9922Z" fill="#4185EB"/>
<path d="M21.4531 11.2656C22.1328 11.3828 22.5937 12.0234 22.4844 12.7031L19.9844 27.7031C19.8672 28.3828 19.2266 28.8437 18.5469 28.7343C17.8672 28.6249 17.4063 27.9765 17.5156 27.2968L20.0156 12.2968C20.1328 11.6171 20.7734 11.1562 21.4531 11.2656ZM14.6328 15.9921C15.1172 16.4765 15.1172 17.2734 14.6328 17.7578L12.3906 19.9999L14.6328 22.2421C15.1172 22.7265 15.1172 23.5234 14.6328 24.0078C14.1484 24.4921 13.3516 24.4921 12.8672 24.0078L9.74219 20.8828C9.25781 20.3984 9.25781 19.6015 9.74219 19.1171L12.8672 15.9921C13.3516 15.5078 14.1484 15.5078 14.6328 15.9921ZM25.3672 15.9921C25.8516 15.5078 26.6484 15.5078 27.1328 15.9921L30.2578 19.1171C30.7422 19.6015 30.7422 20.3984 30.2578 20.8828L27.1328 24.0078C26.6484 24.4921 25.8516 24.4921 25.3672 24.0078C24.8828 23.5234 24.8828 22.7265 25.3672 22.2421L27.6094 19.9999L25.3672 17.7578C24.8828 17.2734 24.8828 16.4765 25.3672 15.9921Z" fill="#0047AB"/>
</svg>
