<svg width="41" height="41" viewBox="0 0 41 41" fill="none" xmlns="http://www.w3.org/2000/svg">
<path opacity="0.4" d="M3.45386 3.41025C3.45386 4.07313 3.71718 4.70886 4.18591 5.17758C4.65464 5.64631 5.29037 5.90964 5.95324 5.90964C6.61612 5.90964 7.25185 5.64631 7.72058 5.17758C8.1893 4.70886 8.45263 4.07313 8.45263 3.41025C8.45263 2.74737 8.1893 2.11164 7.72058 1.64292C7.25185 1.17419 6.61612 0.910865 5.95324 0.910865C5.29037 0.910865 4.65464 1.17419 4.18591 1.64292C3.71718 2.11164 3.45386 2.74737 3.45386 3.41025ZM3.75847 30.4739C6.29691 33.0124 8.84316 35.5586 11.3816 38.097C12.2408 37.7768 13.0921 37.4566 13.9513 37.1363C10.8739 34.059 7.79654 30.9816 4.71917 27.9042C4.39894 28.7634 4.0787 29.6148 3.75847 30.4739ZM6.48436 23.2023C10.5381 27.256 14.5996 31.3175 18.6532 35.3712L21.2229 34.4104L7.44506 20.6326C7.12483 21.4917 6.8046 22.3431 6.48436 23.2023ZM13.9981 10.2055C13.2639 10.9397 13.2639 12.1269 13.9981 12.8532C14.7323 13.5796 15.9195 13.5874 16.6459 12.8532L17.2942 12.205C19.2 10.307 20.4028 7.80761 20.6996 5.12858L20.9339 2.98848C21.0511 1.95748 20.3091 1.03583 19.2781 0.918676C19.2078 0.910865 19.1375 0.910865 19.0672 0.910865C18.1221 0.910865 17.3098 1.62163 17.2083 2.58233L16.974 4.72243C16.7709 6.55792 15.9508 8.26843 14.6464 9.5728L13.9981 10.2055ZM21.387 17.7427C22.0587 18.5315 23.2381 18.6331 24.0269 17.9614L24.808 17.2975C25.261 16.9147 25.839 16.7117 26.4248 16.7273C29.7443 16.8132 32.5405 14.2513 32.7357 10.9318L32.8763 8.58867C32.9544 7.29211 34.0479 6.29236 35.3445 6.3236C36.8597 6.36265 38.3281 5.84715 39.4841 4.87083L40.2651 4.20693C41.054 3.53522 41.1555 2.35582 40.4838 1.56695C39.8121 0.778085 38.6327 0.676547 37.8438 1.34826L37.0628 2.01216C36.6098 2.39488 36.0318 2.59795 35.446 2.58233C32.1265 2.49641 29.3303 5.05828 29.135 8.37778L28.9945 10.721C28.9164 12.0175 27.8229 13.0173 26.5263 12.986C25.0111 12.947 23.5427 13.4625 22.3867 14.4388L21.6056 15.1027C20.8168 15.7744 20.7152 16.9538 21.387 17.7427ZM28.9945 25.2018C28.2603 25.936 28.2603 27.1232 28.9945 27.8496C29.7287 28.5759 30.9159 28.5838 31.6422 27.8496L32.2905 27.2013C33.5949 25.8969 35.3054 25.0768 37.1409 24.8737L39.281 24.6394C40.2417 24.5301 40.9525 23.7178 40.9525 22.7805C40.9525 22.7102 40.9525 22.6399 40.9446 22.5696C40.8275 21.5386 39.9058 20.7966 38.8748 20.9138L36.7347 21.1481C34.0557 21.4449 31.5563 22.6477 29.6505 24.5535L28.9945 25.2018ZM35.9459 13.4078C35.9459 14.0707 36.2092 14.7064 36.6779 15.1751C37.1467 15.6439 37.7824 15.9072 38.4453 15.9072C39.1081 15.9072 39.7439 15.6439 40.2126 15.1751C40.6813 14.7064 40.9446 14.0707 40.9446 13.4078C40.9446 12.7449 40.6813 12.1092 40.2126 11.6405C39.7439 11.1717 39.1081 10.9084 38.4453 10.9084C37.7824 10.9084 37.1467 11.1717 36.6779 11.6405C36.2092 12.1092 35.9459 12.7449 35.9459 13.4078ZM35.9459 35.9023C35.9459 36.5651 36.2092 37.2009 36.6779 37.6696C37.1467 38.1383 37.7824 38.4017 38.4453 38.4017C39.1081 38.4017 39.7439 38.1383 40.2126 37.6696C40.6813 37.2009 40.9446 36.5651 40.9446 35.9023C40.9446 35.2394 40.6813 34.6037 40.2126 34.1349C39.7439 33.6662 39.1081 33.4029 38.4453 33.4029C37.7824 33.4029 37.1467 33.6662 36.6779 34.1349C36.2092 34.6037 35.9459 35.2394 35.9459 35.9023Z" fill="#4185EB"/>
<path d="M10.421 15.9619C11.2489 15.7822 12.1158 16.04 12.7173 16.6336L25.2142 29.1305C25.8156 29.7319 26.0655 30.5989 25.8859 31.4268C25.7063 32.2548 25.1127 32.9421 24.3238 33.2389L21.223 34.4027L7.44512 20.6326L8.6089 17.5318C8.9057 16.7351 9.59303 16.1493 10.421 15.9697V15.9619ZM6.48442 23.2023L18.6533 35.3712L13.9513 37.1364L4.71923 27.9043L6.48442 23.2023ZM11.3817 38.0971L4.3287 40.7449C3.41486 41.0885 2.37605 40.862 1.68091 40.1747C0.985769 39.4874 0.767072 38.4407 1.11074 37.5269L3.75071 30.474L11.3738 38.0971H11.3817Z" fill="#0047AB"/>
</svg>
