<svg width="76" height="76" viewBox="0 0 76 76" fill="none" xmlns="http://www.w3.org/2000/svg">
<path opacity="0.4" d="M5.64404 5.6036C5.64404 6.84644 6.13776 8.03838 7.01658 8.9172C7.8954 9.79602 9.08734 10.2897 10.3302 10.2897C11.573 10.2897 12.765 9.79602 13.6438 8.9172C14.5226 8.03838 15.0163 6.84644 15.0163 5.6036C15.0163 4.36076 14.5226 3.16882 13.6438 2.29C12.765 1.41118 11.573 0.917466 10.3302 0.917466C9.08734 0.917466 7.8954 1.41118 7.01658 2.29C6.13776 3.16882 5.64404 4.36076 5.64404 5.6036ZM6.21517 56.3456C10.9745 61.105 15.7485 65.879 20.5079 70.6384C22.1187 70.0379 23.7149 69.4375 25.3258 68.8371C19.556 63.0673 13.7862 57.2975 8.0164 51.5277C7.41599 53.1386 6.81558 54.7348 6.21517 56.3456ZM11.326 42.7119C18.9263 50.3122 26.5413 57.9272 34.1416 65.5275L38.9595 63.7263L13.1272 37.894C12.5268 39.5048 11.9264 41.1011 11.326 42.7119ZM25.4137 18.344C24.0371 19.7206 24.0371 21.9465 25.4137 23.3084C26.7902 24.6703 29.0161 24.6849 30.378 23.3084L31.5935 22.0929C35.1667 18.5344 37.4219 13.8483 37.9784 8.82532L38.4177 4.81281C38.6374 2.87978 37.2462 1.15177 35.3131 0.93211C35.1813 0.917466 35.0495 0.917466 34.9177 0.917466C33.1458 0.917466 31.6228 2.25009 31.4324 4.05132L30.9931 8.06382C30.6124 11.5052 29.0747 14.7123 26.6291 17.1578L25.4137 18.344ZM39.2671 32.4756C40.5265 33.9547 42.7377 34.1451 44.2168 32.8857L45.6812 31.6409C46.5306 30.9234 47.6142 30.5426 48.7125 30.5719C54.9363 30.733 60.1789 25.9297 60.545 19.7059L60.8086 15.3127C60.9551 12.8818 63.0052 11.0073 65.4362 11.0659C68.2771 11.1391 71.0303 10.1726 73.1976 8.34206L74.662 7.09731C76.1411 5.83791 76.3314 3.62664 75.072 2.14758C73.8126 0.668515 71.6014 0.478141 70.1223 1.73754L68.6579 2.98229C67.8085 3.69986 66.7249 4.08061 65.6266 4.05132C59.4028 3.89023 54.1602 8.69352 53.7941 14.9173L53.5305 19.3105C53.384 21.7415 51.3338 23.6159 48.9029 23.5574C46.0619 23.4841 43.3088 24.4506 41.1415 26.2812L39.6771 27.5259C38.198 28.7853 38.0077 30.9966 39.2671 32.4756ZM53.5305 46.4608C52.1539 47.8374 52.1539 50.0633 53.5305 51.4252C54.907 52.7871 57.1329 52.8018 58.4948 51.4252L59.7103 50.2097C62.1559 47.7642 65.363 46.2265 68.8043 45.8458L72.8168 45.4064C74.6181 45.2014 75.9507 43.6784 75.9507 41.9211C75.9507 41.7893 75.9507 41.6575 75.9361 41.5257C75.7164 39.5927 73.9884 38.2015 72.0553 38.4212L68.0428 38.8605C63.0199 39.417 58.3338 41.6722 54.7606 45.2454L53.5305 46.4608ZM66.5638 24.3481C66.5638 25.591 67.0575 26.7829 67.9363 27.6617C68.8151 28.5406 70.0071 29.0343 71.2499 29.0343C72.4928 29.0343 73.6847 28.5406 74.5635 27.6617C75.4423 26.7829 75.9361 25.591 75.9361 24.3481C75.9361 23.1053 75.4423 21.9134 74.5635 21.0345C73.6847 20.1557 72.4928 19.662 71.2499 19.662C70.0071 19.662 68.8151 20.1557 67.9363 21.0345C67.0575 21.9134 66.5638 23.1053 66.5638 24.3481ZM66.5638 66.5233C66.5638 67.7662 67.0575 68.9581 67.9363 69.8369C68.8151 70.7158 70.0071 71.2095 71.2499 71.2095C72.4928 71.2095 73.6847 70.7158 74.5635 69.8369C75.4423 68.9581 75.9361 67.7662 75.9361 66.5233C75.9361 65.2805 75.4423 64.0886 74.5635 63.2097C73.6847 62.3309 72.4928 61.8372 71.2499 61.8372C70.0071 61.8372 68.8151 62.3309 67.9363 63.2097C67.0575 64.0886 66.5638 65.2805 66.5638 66.5233Z" fill="#4185EB"/>
<path d="M18.7066 29.1368C20.2589 28.8 21.8844 29.2833 23.012 30.3962L46.4427 53.8269C47.5703 54.9545 48.0389 56.58 47.7021 58.1323C47.3653 59.6846 46.2523 60.9733 44.7732 61.5297L38.9595 63.7117L13.1272 37.894L15.3092 32.0803C15.8657 30.5866 17.1543 29.4883 18.7066 29.1515V29.1368ZM11.326 42.712L34.1416 65.5276L25.3258 68.8372L8.01638 51.5278L11.326 42.712ZM20.5079 70.6384L7.28417 75.6028C5.5708 76.2471 3.62313 75.8224 2.3198 74.5338C1.01647 73.2451 0.606429 71.2827 1.25077 69.5694L6.2005 56.3457L20.4932 70.6384H20.5079Z" fill="#0047AB"/>
</svg>
