<svg width="40" height="40" viewBox="0 0 40 40" fill="none" xmlns="http://www.w3.org/2000/svg">
<circle cx="20" cy="20" r="20" fill="#F3F3F3"/>
<path d="M22.6812 13.595C22.5124 13.6587 22.3999 13.82 22.3999 14C22.3999 14.18 22.5124 14.3412 22.6812 14.405L24.7999 15.2L25.5949 17.3187C25.6587 17.4875 25.8199 17.6 25.9999 17.6C26.1799 17.6 26.3412 17.4875 26.4049 17.3187L27.1999 15.2L29.3187 14.405C29.4874 14.3412 29.5999 14.18 29.5999 14C29.5999 13.82 29.4874 13.6587 29.3187 13.595L27.1999 12.8L26.4049 10.6812C26.3412 10.5125 26.1799 10.4 25.9999 10.4C25.8199 10.4 25.6587 10.5125 25.5949 10.6812L24.7999 12.8L22.6812 13.595ZM18.0912 13.1487C17.9937 12.935 17.7799 12.8 17.5474 12.8C17.3149 12.8 17.1012 12.935 17.0037 13.1487L15.0237 17.4237L10.7487 19.4C10.5349 19.4975 10.3999 19.7112 10.3999 19.9475C10.3999 20.1837 10.5349 20.3937 10.7487 20.4912L15.0274 22.4675L16.9999 26.7425C17.0974 26.9562 17.3112 27.0912 17.5437 27.0912C17.7762 27.0912 17.9899 26.9562 18.0874 26.7425L20.0637 22.4637L24.3424 20.4875C24.5562 20.39 24.6912 20.1762 24.6912 19.9437C24.6912 19.7112 24.5562 19.4975 24.3424 19.4L20.0674 17.4275L18.0912 13.1487ZM24.7999 24.8L22.6812 25.595C22.5124 25.6587 22.3999 25.82 22.3999 26C22.3999 26.18 22.5124 26.3412 22.6812 26.405L24.7999 27.2L25.5949 29.3187C25.6587 29.4875 25.8199 29.6 25.9999 29.6C26.1799 29.6 26.3412 29.4875 26.4049 29.3187L27.1999 27.2L29.3187 26.405C29.4874 26.3412 29.5999 26.18 29.5999 26C29.5999 25.82 29.4874 25.6587 29.3187 25.595L27.1999 24.8L26.4049 22.6812C26.3412 22.5125 26.1799 22.4 25.9999 22.4C25.8199 22.4 25.6587 22.5125 25.5949 22.6812L24.7999 24.8Z" fill="#2D608D"/>
</svg>
