<svg width="51" height="51" viewBox="0 0 51 51" fill="none" xmlns="http://www.w3.org/2000/svg">
<path opacity="0.4" d="M4.07959 4.03684C4.07959 4.8654 4.40873 5.66002 4.99461 6.2459C5.58049 6.83178 6.37512 7.16093 7.20368 7.16093C8.03224 7.16093 8.82686 6.83178 9.41274 6.2459C9.99862 5.66002 10.3278 4.8654 10.3278 4.03684C10.3278 3.20828 9.99862 2.41366 9.41274 1.82778C8.82686 1.24189 8.03224 0.912751 7.20368 0.912751C6.37512 0.912751 5.58049 1.24189 4.99461 1.82778C4.40873 2.41366 4.07959 3.20828 4.07959 4.03684ZM4.46034 37.8649C7.63324 41.0378 10.8159 44.2204 13.9888 47.3933C15.0627 46.9931 16.1269 46.5928 17.2008 46.1925C13.3542 42.346 9.5077 38.4994 5.66116 34.6529C5.26089 35.7268 4.86061 36.791 4.46034 37.8649ZM7.86755 28.7757C12.9344 33.8426 18.0111 38.9192 23.078 43.9861L26.2899 42.7853L9.06837 25.5638C8.6681 26.6377 8.26782 27.7018 7.86755 28.7757ZM17.2593 12.5305C16.3416 13.4482 16.3416 14.9321 17.2593 15.84C18.177 16.748 19.661 16.7577 20.5689 15.84L21.3792 15.0297C23.7614 12.6574 25.2648 9.53328 25.6358 6.18465L25.9287 3.50965C26.0751 2.22096 25.1477 1.06896 23.859 0.922513C23.7711 0.912751 23.6832 0.912751 23.5954 0.912751C22.4141 0.912751 21.3988 1.80116 21.2718 3.00199L20.979 5.67699C20.7251 7.97124 19.7 10.1093 18.0697 11.7397L17.2593 12.5305ZM26.4949 21.9515C27.3345 22.9376 28.8087 23.0645 29.7947 22.2249L30.771 21.3951C31.3373 20.9167 32.0597 20.6629 32.7919 20.6824C36.9411 20.7898 40.4362 17.5876 40.6802 13.4384L40.856 10.5096C40.9536 8.88894 42.3204 7.63931 43.941 7.67836C45.835 7.72717 47.6704 7.08283 49.1153 5.86248L50.0916 5.03264C51.0776 4.19304 51.2045 2.71886 50.3649 1.73282C49.5253 0.746783 48.0511 0.619867 47.0651 1.45947L46.0888 2.2893C45.5226 2.76768 44.8001 3.02151 44.0679 3.00199C39.9188 2.89459 36.4237 6.09679 36.1796 10.246L36.0039 13.1748C35.9062 14.7954 34.5395 16.0451 32.9188 16.006C31.0249 15.9572 29.1895 16.6015 27.7446 17.8219L26.7683 18.6517C25.7822 19.4913 25.6553 20.9655 26.4949 21.9515ZM36.0039 31.275C35.0862 32.1927 35.0862 33.6766 36.0039 34.5846C36.9216 35.4925 38.4055 35.5023 39.3135 34.5846L40.1238 33.7743C41.7542 32.1439 43.8922 31.1188 46.1865 30.865L48.8615 30.5721C50.0623 30.4354 50.9507 29.4201 50.9507 28.2485C50.9507 28.1607 50.9507 28.0728 50.9409 27.9849C50.7945 26.6962 49.6425 25.7688 48.3538 25.9152L45.6788 26.2081C42.3302 26.5791 39.2061 28.0826 36.8239 30.4647L36.0039 31.275ZM44.6927 16.5332C44.6927 17.3618 45.0219 18.1564 45.6078 18.7423C46.1937 19.3281 46.9883 19.6573 47.8168 19.6573C48.6454 19.6573 49.44 19.3281 50.0259 18.7423C50.6118 18.1564 50.9409 17.3618 50.9409 16.5332C50.9409 15.7046 50.6118 14.91 50.0259 14.3241C49.44 13.7383 48.6454 13.4091 47.8168 13.4091C46.9883 13.4091 46.1937 13.7383 45.6078 14.3241C45.0219 14.91 44.6927 15.7046 44.6927 16.5332ZM44.6927 44.65C44.6927 45.4786 45.0219 46.2732 45.6078 46.8591C46.1937 47.4449 46.9883 47.7741 47.8168 47.7741C48.6454 47.7741 49.44 47.4449 50.0259 46.8591C50.6118 46.2732 50.9409 45.4786 50.9409 44.65C50.9409 43.8214 50.6118 43.0268 50.0259 42.4409C49.44 41.8551 48.6454 41.5259 47.8168 41.5259C46.9883 41.5259 46.1937 41.8551 45.6078 42.4409C45.0219 43.0268 44.6927 43.8214 44.6927 44.65Z" fill="#4185EB"/>
<path d="M12.788 19.7257C13.8228 19.5012 14.9065 19.8233 15.6582 20.5653L31.2787 36.1857C32.0304 36.9375 32.3428 38.0212 32.1183 39.056C31.8937 40.0909 31.1518 40.95 30.1657 41.321L26.2899 42.7756L9.06836 25.5638L10.523 21.688C10.894 20.6922 11.7531 19.96 12.788 19.7355V19.7257ZM7.86753 28.7758L23.0779 43.9862L17.2007 46.1926L5.66115 34.653L7.86753 28.7758ZM13.9888 47.3934L5.17301 50.703C4.03076 51.1326 2.73231 50.8494 1.86343 49.9903C0.994538 49.1312 0.72118 47.823 1.15074 46.6807L4.45056 37.8649L13.979 47.3934H13.9888Z" fill="#0047AB"/>
</svg>
