<svg viewBox="0 0 200 200" xmlns="http://www.w3.org/2000/svg"><path d="M155.829,135.142c1.1,3.23,1.228,7.849,1.25,11.79.044,8.057-1.479,9.9-1.595,11.758a.373.373,0,0,0,.636.258c.911-1.156,1.46-4.333,1.67-5.787a59.425,59.425,0,0,0,.075-12.48,14.756,14.756,0,0,0-1.541-5.744A.271.271,0,0,0,155.829,135.142Z" fill="#00349d"></path><path d="M67.662,71.837a9.66,9.66,0,0,1,.107-2.855c.588-2.365,1.6-2.186,1.811-6.908a2.433,2.433,0,0,0-.183-1.358.367.367,0,0,0-.625,0c-.349.621-.138,1.238-.313,2.92a10.131,10.131,0,0,1-.776,2.985c-.716,1.663-1.42,3.615-.549,5.357A.286.286,0,0,0,67.662,71.837Z" fill="#00349d"></path><path d="M65.2,63.679a44,44,0,0,1,.485-8.794c.327-1.843.573-2.186.3-2.683a.316.316,0,0,0-.431-.108,1.653,1.653,0,0,0-.571,1.132,23.388,23.388,0,0,0-.173,10.507A.2.2,0,0,0,65.2,63.679Z" fill="#00349d"></path><path d="M62.489,49.852c-1.146,1.959-1.166,8.88-.992,11.133a1.826,1.826,0,0,0,.367,1.239.314.314,0,0,0,.431,0c.667-.7-.115-3.3.42-9.009A20.743,20.743,0,0,0,63.071,50,.314.314,0,0,0,62.489,49.852Z" fill="#00349d"></path><path d="M58.986,52.676a26.6,26.6,0,0,0-.162,8.061c.072.712.06,1.859.6,2.371a.3.3,0,0,0,.474-.065c.355-.668.045-1.7-.032-2.414-.377-3.445-.217-5.439-.367-7.878C59.486,52.461,59.063,52.364,58.986,52.676Z" fill="#00349d"></path><path d="M55.947,57a21.489,21.489,0,0,0,.981,8.826,29.781,29.781,0,0,0,1.886,3.837,8.6,8.6,0,0,1,1,4.095c.043.312.484.312.625.086.717-1.146.213-2.7-.28-3.847-1.249-2.892-2.212-2.929-3.093-8.18-.268-1.595-.476-3.21-.6-4.817A.259.259,0,0,0,55.947,57Z" fill="#00349d"></path><path d="M97.223,61.987a2.451,2.451,0,0,0,2.36-1.756,4.194,4.194,0,0,0-.366-3.384c-.443-.657-1.622-.936-1.94,0-.095.28.268.44.463.269.84-.738,1.35,1.945.809,3.018a1.37,1.37,0,0,1-1.326.819c-.636-.068-.893-.606-1.336-.97a.318.318,0,0,0-.518.14C95.053,61.164,96.318,61.948,97.223,61.987Z" fill="#00349d"></path><path d="M85.972,48.732a8.321,8.321,0,0,1,4.149-4.43,8.928,8.928,0,0,1,7.016-.054c3.348,1.526,3.763,5.859,3.944,9.549.131,2.654-.524,5.173.345,7.554a3.934,3.934,0,0,0,2.048,2.49c.451.164.69-.432.431-.733a5.216,5.216,0,0,1-1.66-2.726c-.541-2.139.163-3.987-.162-8.073a22.67,22.67,0,0,0-.56-3.944c-2.375-9.115-14.958-6.625-16.036.162C85.444,48.8,85.842,49.033,85.972,48.732Z" fill="#00349d"></path><path d="M102.892,64.929a.441.441,0,0,0-.2-.474,4.873,4.873,0,0,1-2.188-1.53c-.227-.236-.632.073-.452.345.559.844,1.282,1.961,2.424,1.972A.452.452,0,0,0,102.892,64.929Z" fill="#00349d"></path><path d="M99.831,66.2c.485.312,1.45.461,1.735-.194a.227.227,0,0,0-.108-.269c-.529-.273-1.158.264-2.306-1.692a.3.3,0,0,0-.55.237A3.367,3.367,0,0,0,99.831,66.2Z" fill="#00349d"></path><path d="M88.526,49.755c.22-.468-.067-.774.388-1.735.395-.835.892-.977.981-1.412.1-.471-.964-.531-1.671,1.067-.253.574-.528,1.606-.054,2.134A.227.227,0,0,0,88.526,49.755Z" fill="#00349d"></path><path d="M94.108,47.675a.142.142,0,0,0-.032-.226,1.542,1.542,0,0,0-1.584.4,2.933,2.933,0,0,0-1.045,1.5.26.26,0,0,0,.474.194C92.826,48.043,93.592,48.3,94.108,47.675Z" fill="#00349d"></path><path d="M95.208,50.273a.287.287,0,0,0,.291.495c1.025-.443,1.605-.023,2.231-.215a.185.185,0,0,0,.107-.27C97.308,49.4,95.887,49.842,95.208,50.273Z" fill="#00349d"></path><path d="M96.889,53.3c1.122.45,1.486,1.358,2.091,1.789.131.094.266-.033.28-.162.124-1.156-1.307-1.913-2.242-2.09A.24.24,0,0,0,96.889,53.3Z" fill="#00349d"></path><path d="M91.285,57.924c-.313.1-.613.188-.927.281-.193.056-.764.322-.959.194-.251-.166.026-.7.4-2.307.713-3.083.911-3.357.819-4a.226.226,0,0,0-.378-.1c-.448.578-1.494,4.814-1.67,5.529-.162.657-.248,1.358.528,1.638.722.259,1.712-.253,2.393-.453A.407.407,0,1,0,91.285,57.924Z" fill="#00349d"></path><path d="M92.632,54.745c.344.089.453.42.56.711s.6.367.679,0c.29-1.4-2.019-2.1-2.424-.679a.2.2,0,0,0,.3.227A1.22,1.22,0,0,1,92.632,54.745Z" fill="#00349d"></path><path d="M86.694,54.357c.008.13.139.268.28.216.268-.1.474-.345.776-.334.345.011.484.313.6.582.2.453.818.108.744-.313a1.344,1.344,0,0,0-1.25-1.013C87.373,53.48,86.659,53.787,86.694,54.357Z" fill="#00349d"></path><path d="M88.364,64.067c-.385-.4-.267-.766-.431-1.239a.319.319,0,0,0-.528-.14c-.461.487-.146,1.3.216,1.756,1.51,1.9,4.037.237,3.836-2.8a.32.32,0,0,0-.4-.3c-1.042.314-2.134.013-3.18.248a.2.2,0,0,0,0,.377,9.459,9.459,0,0,0,2.942.075C90.527,64.459,89.133,64.868,88.364,64.067Z" fill="#00349d"></path><path d="M101.027,127.134c-.413,3.4-.181,5.31-.776,11.963-.341,3.826-.386,3.862-2.317,6.628a55.937,55.937,0,0,0-6.768,13,11.25,11.25,0,0,0-.959,3.783.277.277,0,0,0,.507.14c1.159-1.72,1.487-5.608,5.905-13.03,4.054-6.809,4.254-4.05,4.861-13.385a48.319,48.319,0,0,0,.118-9.085A.286.286,0,0,0,101.027,127.134Z" fill="#00349d"></path><path d="M97.439,148.3c.673,8.649-.369,11.12.01,12.178a.387.387,0,0,0,.615.064,3.112,3.112,0,0,0,.4-1.422A34.751,34.751,0,0,0,98,148.236C97.946,148,97.419,148.053,97.439,148.3Z" fill="#00349d"></path><path d="M97.676,127.781c-.445,5.221-.593,7.67-1.24,11.532-.387,2.31-.637,2.966-.485,3.75.067.344.518.335.69.086a4.712,4.712,0,0,0,.582-1.778A53.676,53.676,0,0,0,98.236,127.8.28.28,0,0,0,97.676,127.781Z" fill="#00349d"></path><path d="M108.69,128.417a16.327,16.327,0,0,0,2.037,6.639c.315.494.829,1.395,1.476,1.4a.3.3,0,0,0,.291-.291c-.008-.842-1.018-.961-2.015-3.611-.516-1.369-.862-2.8-1.24-4.213C109.162,128.051,108.648,128.1,108.69,128.417Z" fill="#00349d"></path><path d="M80.432,135.885a9.288,9.288,0,0,0,4.818-3.976c.29-.475.811-1.259.668-1.843a.232.232,0,0,0-.334-.14c-.785.5-.8,3.025-5.335,5.528C80.021,135.58,80.184,135.971,80.432,135.885Z" fill="#00349d"></path><path d="M38.025,88.4a16.581,16.581,0,0,0-2.565,5.453A29.564,29.564,0,0,1,29.737,86.9c-.925-1.733-.731-2.281-1.088-2.77a.258.258,0,0,0-.442,0,1.968,1.968,0,0,0,.054,1.39c.766,2.9,4.894,7.5,7.21,9.463a.436.436,0,0,0,.732-.3c.124-1.67,1.545-4.4,2.361-5.874C38.741,88.491,38.271,88.088,38.025,88.4Z" fill="#00349d"></path><path d="M43.489,87.572a15.146,15.146,0,0,0-1.466-3.524c-.179-.272-.356-.676-.711-.733A.259.259,0,0,0,41,83.5c-.087.4.163.521.8,1.854a12.382,12.382,0,0,1,1.314,5.787A7.576,7.576,0,0,0,39.62,88.2c-.357-.105-.6.44-.259.614a12.2,12.2,0,0,1,3.718,3.665.426.426,0,0,0,.711-.194A9.882,9.882,0,0,0,43.489,87.572Z" fill="#00349d"></path><path d="M131.041,57a.263.263,0,0,0-.355.1c-.153.289-.031.57.021.872a15.917,15.917,0,0,1-.959,7.62,8.084,8.084,0,0,0-3.255-2.921.338.338,0,0,0-.344.582,11.093,11.093,0,0,1,3.308,3.492.426.426,0,0,0,.733,0C131.894,62.826,132.1,57.488,131.041,57Z" fill="#00349d"></path><path d="M137.055,57.439c-.748-.183-3.9-1.246-5.744-1.12-.205.013-.334.322-.119.42.791.36,3.178.834,5.453,1.422C137.594,58.407,138.058,57.685,137.055,57.439Z" fill="#00349d"></path><path d="M118.044,57.062c-.486-.252-.8-.239-3.147.162a32.223,32.223,0,0,0-9.947,3.362c-.227.139-.086.55.194.453,2.177-.754,4.291-1.634,6.52-2.231,4.24-1.135,5.754-.875,6.434-1.444A.2.2,0,0,0,118.044,57.062Z" fill="#00349d"></path><path d="M134.544,44.119a2.24,2.24,0,0,0-1.724-2.048c.321-.133.41-.487.711-2.953.312-2.35.531-4.936-1.229-6.9a4.246,4.246,0,0,0-1.595-1.121c-.7-.269-1.595-.054-2.22-.453a19.145,19.145,0,0,0-4.214-2.575c-1.349-.532-2.3-.019-2.608.862-1.11-.614-2.263-1.476-3.5-.7-1.3.809-1.164,2.835-.776,4.085.6,1.9,1.049,1.2.614,2.4a11.849,11.849,0,0,0-.021,7.35,2.06,2.06,0,0,0-2.457,2.317,2.477,2.477,0,0,0,1.433,1.854c.528.248,1.455.28,1.81-.248-.221,3.076.124,6,2.878,7.264-.108.55-.065,1.11-.162,1.67a2.874,2.874,0,0,0-.162,1.434.2.2,0,0,0,.291.118c.5-.312.55-.9.625-1.444a4.275,4.275,0,0,0,0-1.53,10.4,10.4,0,0,0,4.527.377c2.089-.237,1.016-1,1.433,1.218a5,5,0,0,0,.664,1.837c-.158.295-.291.6-.459.9a12.066,12.066,0,0,1-3.33,3.632c-3.191-2.056-3.341-2.894-4.774-5.044a.225.225,0,0,0-.388.226.326.326,0,0,0-.227.012c-.56.269-.582,1.476-.614,2a18.2,18.2,0,0,0,1.466,7.738.424.424,0,0,0,.733,0,10.782,10.782,0,0,1,3.308-3.492.338.338,0,0,0-.345-.582,8.168,8.168,0,0,0-3.254,2.921,17.107,17.107,0,0,1-1.089-6.434,9.791,9.791,0,0,1,.2-1.574c.776,2.145,2.8,3.826,4.785,5.076a.493.493,0,0,0,.539-.064,15.326,15.326,0,0,0,2.77-2.565,6.155,6.155,0,0,0,1.648-3.158.348.348,0,0,0-.452-.287,7.088,7.088,0,0,1-.669-2.957,4.271,4.271,0,0,0,1.984-2.134,21.788,21.788,0,0,0,1.163-4.849A2.2,2.2,0,0,0,134.544,44.119ZM118.755,29.958a.222.222,0,0,1,.432.054,4.537,4.537,0,0,0,.355,1.778c.216.474.744.884.83,1.4.069.481-.916.561-1.563-1.088A2.708,2.708,0,0,1,118.755,29.958Zm13.159,15.325c-.01,0-.021-.011-.032-.011a2.921,2.921,0,0,0-.162-.754c-.075-.216-.442-.334-.549-.076a14.559,14.559,0,0,0-.561,3.287c-.665,3.657-1.379,5.5-5.938,5.216-5.6-.352-5.126-3.651-5.076-9.268,0-.269-.431-.345-.485-.065-.118.572-.2,1.154-.28,1.746a.383.383,0,0,0-.485-.107c-.432.205-.587.468-1.207.042-1.407-.964-.626-2.7,1.132-2.489.1.012,1.062-.141,1.077-.647a43.523,43.523,0,0,1,.625-6.476,15.814,15.814,0,0,0,9.991,1.853c1.964,3.571,1.447,6.036,2.144,5.5.8-.582,1.509.453,1.541,1.2A1.244,1.244,0,0,1,131.914,45.283Z" fill="#00349d"></path><path d="M122.862,41.877a1.706,1.706,0,0,1-.044-.571.5.5,0,0,0-.98-.14,1.807,1.807,0,0,0-.011.992A.536.536,0,1,0,122.862,41.877Z" fill="#00349d"></path><path d="M128.3,41.651c-.153-.648-.871-.9-1.142-.388a1.28,1.28,0,0,0,.258,1.207.475.475,0,0,0,.744-.1A.988.988,0,0,0,128.3,41.651Z" fill="#00349d"></path><path d="M123.519,38.493c-.285-.363-1.012-.17-1.379-.032a2.213,2.213,0,0,0-1.132.959c-.151.248.174.454.377.291a2.846,2.846,0,0,1,1.606-.614C123.293,39.075,123.827,38.885,123.519,38.493Z" fill="#00349d"></path><path d="M127.388,38.6a.168.168,0,0,0,0,.323,2.8,2.8,0,0,1,1.509,1c.279.313.683-.088.539-.41A1.809,1.809,0,0,0,127.388,38.6Z" fill="#00349d"></path><path d="M123.885,45.768a1.928,1.928,0,0,0,1.606.032.215.215,0,0,0,.1-.355.7.7,0,0,0-.355-.216c-.312-.079-.729.2-.873-.14-.12-.284.068-.308.377-1.843a13.063,13.063,0,0,0,.3-3.556c-.021-.27-.452-.367-.5-.065a44.92,44.92,0,0,1-.819,4.7C123.594,44.83,123.38,45.421,123.885,45.768Z" fill="#00349d"></path><path d="M126.989,46.608a18.8,18.8,0,0,1-4.752.119c-.259-.022-.28.353-.054.431a6,6,0,0,0,2.489.517,10.813,10.813,0,0,0,2.059-.118c.129,1.207.118,2.586-.895,3.384a1.69,1.69,0,0,1-1.832.14,1.893,1.893,0,0,1-1.186-1.53.388.388,0,0,0-.743,0c-.344,1.774,2.133,3.058,3.621,2.478,2.025-.789,2.036-3.168,1.854-4.979A.455.455,0,0,0,126.989,46.608Z" fill="#00349d"></path><path d="M143.133,111.691c-1.765,2.067-3.326,5.713-4.235,8.288a61.751,61.751,0,0,0-3.039,19.086c-.123,5.563.064,10.763-1.671,16.068a31.89,31.89,0,0,1-2.284,4.979c-.206.388.324.852.635.485,3.976-4.682,4.232-13.228,4.311-19.108.115-8.508.82-16.759,4.322-24.55.745-1.658,1.657-3.233,2.446-4.871C143.765,111.764,143.381,111.4,143.133,111.691Z" fill="#00349d"></path><path d="M166.627,111.939c1.353,2.562,1.838,5.6,2.371,8.427a79.9,79.9,0,0,1,1.175,8.892c1.135,15.277-2.679,24.033-3.427,27.427-.076.345.41.582.592.248,2.353-4.305,3.6-12.93,3.891-17.814a78.653,78.653,0,0,0-2.22-23.171,11.339,11.339,0,0,0-1.94-4.343C166.863,111.347,166.485,111.67,166.627,111.939Z" fill="#00349d"></path><path d="M158.146,127.555a21,21,0,0,0-3.2,5.809c-5.209,12.273-2.3,16.7-8.654,27.039a.483.483,0,0,0,.754.582c2.677-2.873,4.093-8.215,4.871-11.962.975-4.692,1.376-8.61,3.471-13.881a56.822,56.822,0,0,1,3.276-7.2C158.832,127.645,158.38,127.273,158.146,127.555Z" fill="#00349d"></path><path d="M149.308,106.917a9.865,9.865,0,0,1-1.487-1.681,7.468,7.468,0,0,1-.862-6.186c.179-.563.323-.77.323-.83a8.222,8.222,0,0,1-2.478-3.007,7.932,7.932,0,0,1-.733-3.966c.041-.488.185-.886.237-1.25a11.112,11.112,0,0,1-1.2-.679,7.945,7.945,0,0,1-2.77-8.924,9.374,9.374,0,0,1-1.574-2.338c-1.271,1.067-2.564,2.317-4.052,3.826a31.571,31.571,0,0,0-2.877-3.255c-1.912.729-4.5,1.736-4.828,1.832A67.642,67.642,0,0,0,128.7,97.422c.974,4.13,3.045,10.424,6.66,12.631a4.9,4.9,0,0,0,4.408.485c2.387-1.04,3.951-3.815,4.483-4.5a38.386,38.386,0,0,0,.959,4.763c.718-.159,2.5-.475,4.106-.668C149.6,107.487,149.69,107.3,149.308,106.917Zm-8.686-10.012a.221.221,0,0,1-.366.1,4,4,0,0,1-.615-1.681c-1.522-6.04-3.407-9.228-4.838-12.793-.1-.237.249-.335.377-.161C137.878,86.049,140.972,95.711,140.622,96.905Z" fill="#b266ff"></path><path d="M177.965,77.8a3.55,3.55,0,0,0,.161-2.7c-.369-.861-1.249-1.347-1.509-2.274-.388-1.385.153-4.245-1.185-4.763a.382.382,0,0,0-.485.366,3.8,3.8,0,0,0,.323,1.1c.273,1.029.07,2.323.388,3.492.421,1.546,1.75,1.87,1.854,3.223.036.473-.119.937-.119,1.411A.307.307,0,0,0,177.965,77.8Z" fill="#00349d"></path><path d="M178.859,69.952a14.333,14.333,0,0,1,2.737-6.2c.332-.4,1.147-.992,1.078-1.574a.239.239,0,0,0-.162-.215c-.686-.135-1.292.831-1.648,1.293a10.544,10.544,0,0,0-2.393,6.628C178.479,70.113,178.813,70.177,178.859,69.952Z" fill="#00349d"></path><path d="M181.92,67.731a7.745,7.745,0,0,1,2.284-3.459c.292-.247.679-.442.776-.83a.163.163,0,0,0-.118-.2c-.807-.17-1.711,1.047-2.123,1.606a6.224,6.224,0,0,0-1.175,2.8A.183.183,0,0,0,181.92,67.731Z" fill="#00349d"></path><path d="M183.213,68.335a21.716,21.716,0,0,1,2.953-2.63c.291-.2.525-.345.56-.722a.252.252,0,0,0-.183-.237c-.408-.132-.7.173-1.013.41a11.331,11.331,0,0,0-2.673,2.91A.225.225,0,0,0,183.213,68.335Z" fill="#00349d"></path><path d="M186.6,67.548c-2.384,1.408-2.7,4.282-3.05,5.518-.556,1.951-3.009,3.709-2.425,5.248a.3.3,0,0,0,.539.076c.212-.379.3-.809.5-1.207.577-1.169,1.633-2.092,2.112-3.513.723-2.148.029-2.646,2.6-5.766C187.027,67.709,186.834,67.408,186.6,67.548Z" fill="#00349d"></path><path d="M180.045,71.46c.688,1.7.068,2.356.215,3.1a.216.216,0,0,0,.356.1,2.068,2.068,0,0,0,.409-1.638,3.822,3.822,0,0,0-.549-1.746C180.343,71.053,179.939,71.2,180.045,71.46Z" fill="#00349d"></path><path d="M132.27,69.154a9.985,9.985,0,0,0,.065-1.315c-.022-.226-.321-.418-.5-.2-1.044,1.272.028,3.808-.431,5.583-.355,1.369-2.078,3.457-.6,4.742a.2.2,0,0,0,.313-.237c-.844-1.734.849-3.191,1.131-4.828A25.07,25.07,0,0,0,132.27,69.154Z" fill="#00349d"></path><path d="M125.157,64.832c-.236-.162-.472.181-.291.378,3.536,3.843,2.731,4.585,3.61,5.162a.224.224,0,0,0,.324-.13,2.184,2.184,0,0,0-.367-1.379A10.755,10.755,0,0,0,125.157,64.832Z" fill="#00349d"></path><path d="M124.047,71.784c.247.367.462.907.862,1.11a.231.231,0,0,0,.345-.194c.062-.475-.355-.981-.614-1.358a9.292,9.292,0,0,0-3.578-3.2c-.216-.085-.379.228-.227.377A16.244,16.244,0,0,1,124.047,71.784Z" fill="#00349d"></path><path d="M126.267,77.582a3.683,3.683,0,0,1-1.757-2.2c-.55-2.507-1.327-3.157-3.707-4.354a.189.189,0,0,0-.194.324c1.158.831,2.579,1.918,2.932,3.157.358,1.261.064,2.038,1.821,3.352a8.019,8.019,0,0,1,.894.722c.281.28.4.633.669.916a.281.281,0,0,0,.463-.119C127.594,78.638,126.805,77.992,126.267,77.582Z" fill="#00349d"></path><path d="M128.078,73.325a4.817,4.817,0,0,0-.464,1.778,2.134,2.134,0,0,0,.324,1.638.25.25,0,0,0,.409-.108c.272-.687-.247-.854.248-3.093C128.659,73.249,128.219,73.023,128.078,73.325Z" fill="#00349d"></path><path d="M124.51,68.615c1.041,1.237.983,1.818,1.4,2.166a.237.237,0,0,0,.388-.1c.221-.76-.616-1.733-1.066-2.284a15.1,15.1,0,0,0-2.242-2.091.2.2,0,0,0-.28.28C123.312,67.26,123.93,67.925,124.51,68.615Z" fill="#00349d"></path><path d="M153.328,107.714c3.554-5.3,1.685-10.367-1.552-10.7.528-1.865.921-3.9.184-5.745a4.621,4.621,0,0,0-2.943-2.834,7.255,7.255,0,0,0-3.5-9.839,7.809,7.809,0,0,0-.8-8.6,8.1,8.1,0,0,0,.367-10.648,7.711,7.711,0,0,0,.6-6.9c-.366-.92-.663-1.1-.711-1.466-.069-.518.682-1.074,1.067-1.347a6.07,6.07,0,0,1,1.681-.776,2.5,2.5,0,0,1,.765,1.088c-.171.069-.287.166-1.25.636a3.318,3.318,0,0,0-1.013.625.217.217,0,0,0,.151.367,5.871,5.871,0,0,0,1.854-.722c.463-.206,1.066-.378,1.013-.992a2.412,2.412,0,0,0-1.423-1.94,4.81,4.81,0,0,0-4.472-4.4c-3.541-.28-5.845,3.973-4.182,6.995a5.278,5.278,0,0,0-.064,8.567,9,9,0,0,0,1.271,10.023,8.828,8.828,0,0,0,1.24,11.283,6.83,6.83,0,0,0,2.123,8.3c.419.3.928.472,1.347.776.6.439.1,1.477.054,2.112a6.962,6.962,0,0,0,.646,3.427,7.348,7.348,0,0,0,2.361,2.759c.9.7-.421,1.118-.421,3.664a6.4,6.4,0,0,0,1.013,3.481c1.221,1.86,2.121,1.284,1.875,3.729q-.279,2.8-.581,5.6a.507.507,0,0,0,.506.507,13.2,13.2,0,0,0,4.041-.819.508.508,0,0,0,.345-.615C154.439,111.438,153.932,109.557,153.328,107.714Zm-4.515-5.162c-.568-2.668,1.415-3.993.291-5.216-.424-.461-1.014-.754-1.444-1.218a5.985,5.985,0,0,1-1.52-3.265c-.259-1.944.627-2.721-.022-3.7-.517-.778-1.472-.722-2.6-1.94a5.848,5.848,0,0,1-.862-6.671.519.519,0,0,0-.075-.6,7.853,7.853,0,0,1-1.229-10.519.513.513,0,0,0,0-.7A8.016,8.016,0,0,1,140.18,59.2a.51.51,0,0,0-.172-.679,4.314,4.314,0,0,1,.086-7.425.492.492,0,0,0,.172-.679,3.952,3.952,0,0,1,1.412-5.626c2.375-1.163,5.367,1.124,5.367,3.147a5.761,5.761,0,0,0-2.608,1.7c-1.1,1.272-.31,1.9.2,3.05a6.662,6.662,0,0,1-.69,6.412.526.526,0,0,0,.086.636,6.927,6.927,0,0,1-.409,9.829.523.523,0,0,0,0,.732,6.759,6.759,0,0,1,.7,8.245.511.511,0,0,0,.3.743,6.369,6.369,0,0,1,3.179,9.236.5.5,0,0,0,.432.744,3.536,3.536,0,0,1,2.909,2.673c.534,1.776.006,3.687-.517,5.41a.5.5,0,0,0,.474.625c2.108-.206,4.107,2.178,2.608,6.725a10.13,10.13,0,0,1-.959,2.047c-.154.257-.464.55-.474.863-.022.651.289.194,1.53,5.507a12.66,12.66,0,0,1-2.759.571c.151-1.477.3-2.954.453-4.43.183-1.719.391-2.495-.884-3.675A5.628,5.628,0,0,1,148.813,102.552Z" fill="#00349d"></path><path d="M37.561,66.934c-.086-.2-.161-.395-.485-.377-.269.014-.409.215-.495.452a.668.668,0,0,0-.507.162.66.66,0,0,0-.851.485.68.68,0,0,0-.378.291.389.389,0,0,0-.3.388c.021.183.031.356.043.539a.351.351,0,0,0,.7.011.529.529,0,0,0,.27-.13c.312.14.765-.1.646-.485a.415.415,0,0,0,.421-.312.348.348,0,0,0,.539-.194c0-.011.01-.054.021-.119a.366.366,0,0,0,.539-.2A.309.309,0,0,0,37.561,66.934Z" fill="#00349d"></path><path d="M43.176,67.074c-.062-.292-.073-.567-.388-.69a.8.8,0,0,0-.355-.054.624.624,0,0,0-.529-.1l-.129-.161a.4.4,0,0,0-.56,0,1.676,1.676,0,0,0-.14.161c-.773,0-.6.913-.194.776,0,.011.01.033.01.043a.389.389,0,0,0,.625.194.478.478,0,0,0,.561-.129.387.387,0,0,0,.28.076A.415.415,0,1,0,43.176,67.074Z" fill="#00349d"></path><path d="M40.935,70.027a5.747,5.747,0,0,0-1.606-2.339.208.208,0,0,0-.3.227c.251.948.575.841,1.94,4.009a5.418,5.418,0,0,1,.377,1.11c0,.011.1.485.032.549-.136.137-1.785-.543-2.608-.043a.383.383,0,0,0,0,.658,3.239,3.239,0,0,0,1.347.118,6.116,6.116,0,0,0,1.4.086c.787-.172.726-1.078.582-1.681A12.746,12.746,0,0,0,40.935,70.027Z" fill="#00349d"></path><path d="M37.874,71.266c.488-.951-.652-1.735-.981-1.077a.859.859,0,0,0,.345,1.239A.466.466,0,0,0,37.874,71.266Z" fill="#00349d"></path><path d="M42.8,69.262a.593.593,0,0,0-.808-.27.418.418,0,0,0-.151.561c-.1.662.754,1.118.97.485A.941.941,0,0,0,42.8,69.262Z" fill="#00349d"></path><path d="M41.969,75.448c-1.411-.467-2.919.014-4.354-.28a.445.445,0,0,0-.5.646c.889,1.635,1.136,2.682,2.328,3.082,1.388.467,2.862-.674,2.554-1.487a.5.5,0,0,0-.582-.334c-.4.064-.507.429-.819.625a1.167,1.167,0,0,1-1.174.043c-.5-.27-.722-.895-1.121-1.6,1.2.075,2.414-.146,3.61-.162A.27.27,0,0,0,41.969,75.448Z" fill="#00349d"></path><path d="M31.709,75.976c-.549.474-1.045.894-1.8.517a2.593,2.593,0,0,1-1.186-2.252,4.364,4.364,0,0,1,.42-2.565,1.335,1.335,0,0,1,1.908-.129c.173.128.368-.12.28-.281a1.829,1.829,0,0,0-3.276.421.925.925,0,0,0-.442-.108.2.2,0,0,0-.086-.076c-1.085-.558-2.026.55-1.962,1.574a2.241,2.241,0,0,0-1.444,3.061,1.948,1.948,0,0,0-.786,2.931c.054.075.181.173.215.259.052.13.056.1-.065.269-.466.663-.851,1.4-1.26,2.091a.417.417,0,0,0,.355.614c.937.134,1.877.233,2.813.366a.41.41,0,0,0,.41-.409,8.534,8.534,0,0,0-.281-1.735,1.786,1.786,0,0,0,1.046-.938,2.915,2.915,0,0,0,0-2.112,2.448,2.448,0,0,0,.84-2.3,1.058,1.058,0,0,0,.421-.258,3.083,3.083,0,0,0,2.144,2.64,11.884,11.884,0,0,1,.076,3.761c-.1.463-.366.873-.442,1.326a.461.461,0,0,0,.765.442c1.019-.883.873-3.23.593-4.57a6.273,6.273,0,0,0-.227-.905,1.642,1.642,0,0,0,1.66-1.358C32.424,75.89,31.947,75.771,31.709,75.976Z" fill="#00349d"></path><path d="M24.112,71.913a2.145,2.145,0,0,0,2.058-1.186,1.678,1.678,0,0,0,1.369.033,2.46,2.46,0,0,0,1.271-1.38c2.308,1.57,4.114-1.537,2.4-2.554a1.1,1.1,0,0,0-.819-.4,2.057,2.057,0,0,0-1.52.636,2.566,2.566,0,0,0-3.179.625,2.885,2.885,0,0,0-3.352,1.789c-2.857.291-1.707,2.249-2.77,3.029-.6.442-1.42.829-1.325,1.724a2.247,2.247,0,0,0,.593,1.078c.3.386.624.766.959,1.121a.434.434,0,0,0,.679-.087c.452-.8.916-1.605,1.336-2.435A2.044,2.044,0,0,0,24.112,71.913Z" fill="#00349d"></path><path d="M33.52,63.259a1.819,1.819,0,0,0-1.681.172,2.032,2.032,0,0,0-2.986-.14c-1.477-.826-2.65-.457-3.222.367a3.028,3.028,0,0,0-3.341.075c-.215.151-.354.423-.56.561-.278.186-.873.053-1.2.053-.485,0-.96.011-1.445.011a.457.457,0,0,0-.431.571,13.7,13.7,0,0,0,1.143,2.91.431.431,0,0,0,.582.151c.563-.405,1.121-.819,1.681-1.228a2.131,2.131,0,0,0,3.427-.787,2.075,2.075,0,0,0,2.845-.356,1.949,1.949,0,0,0,2.738.022,1.845,1.845,0,0,0,3.384-.593C34.793,64.88,34.572,63.7,33.52,63.259Z" fill="#00349d"></path><path d="M21.245,62.041a9.07,9.07,0,0,0,2.231-.679,2.16,2.16,0,0,0,3.136.033,1.867,1.867,0,0,0,2.629.118,2.687,2.687,0,0,0,1.552.862c2.061.344,2.495-1.885.6-2.6a2,2,0,0,0-2.026-.011A1.566,1.566,0,0,0,27,59.627a3.141,3.141,0,0,0-1.477-.6,3.37,3.37,0,0,0-1.9.366,7.672,7.672,0,0,1-1.013-.539c-.42-.216-.842-.43-1.261-.657a.449.449,0,0,0-.647.258,6.444,6.444,0,0,0,.032,3.309A.426.426,0,0,0,21.245,62.041Z" fill="#00349d"></path><path d="M35.859,60.1a2.062,2.062,0,0,0-2.2-2.069,2.271,2.271,0,0,0-3.136-1.767c-.776-.625-1.57-1.224-2.4-1.768a.44.44,0,0,0-.518.065,16.834,16.834,0,0,0-1.767,2.252.429.429,0,0,0,.259.625,9.779,9.779,0,0,0,2.791.528c.549,1.326,2.134,1.337,3.4,1.078a2.494,2.494,0,0,0,2.35,1.875,2.234,2.234,0,0,0,2.144,2.425c.841-.064,1.089-.851.83-1.552A1.874,1.874,0,0,0,35.859,60.1Z" fill="#00349d"></path><path d="M39.372,58.593a2.065,2.065,0,0,0-2.1-2.759A1.913,1.913,0,0,0,35,54.174c-.4-.56-.826-1.093-1.282-1.617a.414.414,0,0,0-.507-.064,17.652,17.652,0,0,0-2.1,1.519.437.437,0,0,0,.086.668,6.754,6.754,0,0,0,2.36,1.013,1.6,1.6,0,0,0,.765,1.294,2.434,2.434,0,0,0,1.7.258,2.075,2.075,0,0,0,1.487,2.07c.109.03.248.021.378.043a3.906,3.906,0,0,0,.2,2.22c.235.615.679,1.269,1.423,1.207.679-.057.916-.658.97-1.25A2.13,2.13,0,0,0,39.372,58.593Z" fill="#00349d"></path><path d="M43.553,59.347c.83-1.114.32-2.874-1.6-3.33a2.357,2.357,0,0,0-.809-1.746c-.974-.869-2.79-1.356-3.157-.237a1.2,1.2,0,0,0,.355,1.088,3.517,3.517,0,0,0,1.509,1.3,3.469,3.469,0,0,0,1.681,2.662c-1.707,2.36.949,4.611,1.972,3.136A1.882,1.882,0,0,0,43.553,59.347Z" fill="#00349d"></path><path d="M45.008,70.049a18.312,18.312,0,0,0-1.724-6.661.321.321,0,0,0-.582.248,52.5,52.5,0,0,1,1.7,10.616c.233,6.4-5.414,8.235-8.827,4.429a3.617,3.617,0,0,0-.883-.851c-.216-.12-.573.021-.539.312.153,1.305,2.194,2.7,3.448,3.169a6.257,6.257,0,0,0,.96.269,4.076,4.076,0,0,0,.474,2.63,7.611,7.611,0,0,1-.787,2.705,36.568,36.568,0,0,1-5.335-1.789,8.866,8.866,0,0,1-3.847-2.856.207.207,0,0,0-.377.161c.413,1.646,2.132,2.688,3.567,3.363a33.684,33.684,0,0,0,6.111,2.134.475.475,0,0,0,.528-.216,8.685,8.685,0,0,0,1.088-4.871.51.51,0,0,0-.711-.41c-.032-.258-.043-.506-.054-.765,3.36.242,5.591-2.294,6.1-5.475A22.023,22.023,0,0,0,45.008,70.049Z" fill="#00349d"></path><path d="M24.349,112.585a.214.214,0,0,0-.356-.15,3.3,3.3,0,0,0-.744,2.08,23.688,23.688,0,0,0,.669,7.867c.055.258.488.2.463-.065a40.812,40.812,0,0,1-.291-7.414A11.635,11.635,0,0,0,24.349,112.585Z" fill="#00349d"></path><path d="M55.861,103.888c.263,1.9.791,3.473,1.293,6.768.219,1.439.112,1.69.42,2.08a.336.336,0,0,0,.474-.01c.376-.562.079-1.465-.021-2.08a39.764,39.764,0,0,0-1.757-6.887C56.2,103.544,55.831,103.673,55.861,103.888Z" fill="#00349d"></path><path d="M58.814,137.621c2.712,8.318,2.569,15.814,2.241,24.442a57.379,57.379,0,0,1-.614,7.124.316.316,0,0,0,.582.161,8.393,8.393,0,0,0,.69-2.942c.2-1.886.38-7.8.409-9.7.1-6.324-.259-13.425-2.748-19.3C59.233,137.071,58.708,137.3,58.814,137.621Z" fill="#00349d"></path><path d="M52.132,139.194c.006,1.877.545,5.349.668,10.2.072,2.851.131,3.818-.356,4.72-.593,1.1-1.62,1.917-2.1,3.083-.218.527.636.862.9.377.636-1.143,1.66-2.048,2.2-3.233.646-1.423.4-3.223.345-4.742a57.534,57.534,0,0,0-1.154-10.475A.258.258,0,0,0,52.132,139.194Z" fill="#00349d"></path><path d="M48.78,141.231c.028,2.964.253,5.133.453,10.389a12.788,12.788,0,0,0,.334,3.373.2.2,0,0,0,.377,0c.278-1,.25-1.795-.021-6.908-.123-2.317-.293-4.625-.625-6.93C49.256,140.864,48.778,140.94,48.78,141.231Z" fill="#00349d"></path><path d="M48.866,158.442c-1.858,2-2.281,4.631-3.944,11.111a5.314,5.314,0,0,0-.269,1.886.3.3,0,0,0,.56.151c.6-.87.466-1.1,1.961-6.93a20.552,20.552,0,0,1,2.113-5.9C49.459,158.517,49.079,158.213,48.866,158.442Z" fill="#00349d"></path><path d="M126.784,103.037a61.615,61.615,0,0,0-5.819-21.425c-2.927-5.655-7.8-9.016-13.762-11.111a46.194,46.194,0,0,0-7.674-1.9c-.773-.13-.836-.266-1.562.28a21.335,21.335,0,0,1-.4-6.316c.021-.323-.474-.377-.561-.075a11.166,11.166,0,0,0-.4,3.373c.019.454.071,3.2.743,3.492-2.1,1.394-5.6,2.1-7.6.6a3.07,3.07,0,0,0,.4-2.532c1.939-.526,4.679-2.75,5.162-5.087a.308.308,0,0,0-.56-.237,22.763,22.763,0,0,1-2.285,2.845,4,4,0,0,0,.421-2.188,3.4,3.4,0,0,0-.669-1.95A3.409,3.409,0,0,0,90.39,60.3c-.194-.01-.237.259-.1.345.779.493,1.257.364,1.357.852a7.024,7.024,0,0,1-.69,4.472.232.232,0,0,0-.042.108,3.251,3.251,0,0,1-4.4-.658c-.71-1.891.135-2.8.323-3.89.053-.334.075-.367.42-.442.474-.108,1.1-.2,1.293-.7a.244.244,0,0,0-.161-.291,7.129,7.129,0,0,0-1.035.055c-.842-.053-1.385.133-1.52.969-.189,1.3-.506,1.359-.506,2.5a7.343,7.343,0,0,1-.625-4.009c.184-3.886.961-5.951,1.466-8.9.043-.226-.281-.4-.4-.162a20.17,20.17,0,0,0-1.649,6.089c-.28,1.961-.647,4.2-.075,6.132.755,2.609,2.635,5.208,5.463,4.818a5.353,5.353,0,0,1-.355,1.541.6.6,0,0,0-.517-.162,46.024,46.024,0,0,0-6.5,1.358c1.252.693.025,2.089,1.379,5.2a2.541,2.541,0,0,1,.367,1.81,1.29,1.29,0,0,1-1.229.959,1.134,1.134,0,0,1-.463-.1,1.387,1.387,0,0,1-1.768,1.078,1.352,1.352,0,0,1-1.271.873,1.654,1.654,0,0,1-.938-.334,1.316,1.316,0,0,1-1.272.355c-1.312-.353-2.106-1.759-2.6-2.554a11.3,11.3,0,0,1-1.185-2.629,15.93,15.93,0,0,0-2.813,3.049L69.03,73.562a.519.519,0,0,0-.625-.356q-3.556.646-7.048,1.53c-.938.238-2,.367-2.134,1.52a34.481,34.481,0,0,0-.054,3.492c-.082,9.177.236,18.552,3.675,27.1A111.183,111.183,0,0,1,75.96,99.793c.351-.88,1.784-2.5,3.125-2.576a2.817,2.817,0,0,1,.873.108,5.5,5.5,0,0,0,1.724-2.759,11.716,11.716,0,0,1,2.932-4.472c.677-.641,1.173-.934,1.573-1.293a2.734,2.734,0,0,1,1.628-.852,1.361,1.361,0,0,1,1.39,1.455,2.335,2.335,0,0,1-.55,1.347c.356-.226.712-.441,1.078-.657.107-.108.746-.68,1.853-1.832.943-1.009,1.321-1.547,2.275-1.746a1.359,1.359,0,0,1,1.648,1.164c1.929-1.723,3.746.175,2.21,2.241a1.33,1.33,0,0,1,1.573,1.057,2.682,2.682,0,0,1-1.131,2.349c-.054.043-.1.1-.151.14a1.342,1.342,0,0,1,.377,2.091c-6.56,7.487-10.692,6.4-11.758,7.048a2.6,2.6,0,0,1-1.4.334,3.975,3.975,0,0,1-1.121,2.306,6.272,6.272,0,0,1-2.554,2.145,54.173,54.173,0,0,1-6.207,11.3,5.924,5.924,0,0,0,2.683-1.174,21.7,21.7,0,0,0,2.7,8.352,2.536,2.536,0,0,0-.582,3.114.284.284,0,0,0-.3.151,112.061,112.061,0,0,0-8.761,24.55,37.1,37.1,0,0,0-1.4,7.178c-.022.5.668.538.83.108.98-2.7.887-4.571,3.2-12.545,2.7-9.355,5.725-16.106,6.736-19.14a.524.524,0,0,0,.226.011c20.516-5.45,28.862-1.747,31.965-1.487a.361.361,0,0,0,.183-.669,23.494,23.494,0,0,0-6.035-1.422c-8.714-1.139-17.588.372-25.994,2.7a2.514,2.514,0,0,1,.345-2.231,84.873,84.873,0,0,1,21.252-2.382,69.608,69.608,0,0,1,10.906,1.412c0,1.545-.2,2.731-.075,3.212a67.747,67.747,0,0,1,2.058,17.566.487.487,0,0,0,.14.338c-.189,3.485.144,5.518-.291,11.355-.176,2.742-.384,3.224-.172,4.02a.37.37,0,0,0,.668.086,5.317,5.317,0,0,0,.4-1.875c.349-3.608.654-9.891.126-13.456a15.252,15.252,0,0,1,3.718.444c-.725,2.476-.253,3.5-.525,5.9a14.93,14.93,0,0,1-1.4,4.839,3.31,3.31,0,0,0-.549,1.412.341.341,0,0,0,.506.291,2.411,2.411,0,0,0,.884-1.218c2.364-4.948,1.248-7.7,1.707-11.056q.246.07.491.149a.486.486,0,0,0,.539-.215,15.231,15.231,0,0,0,1.11-4.106C125.461,129.967,128,116.22,126.784,103.037Zm-52.9-7.953c-.076.118-.291.15-.356,0-.484-1.086.224-.734-1.3-8.256-1.117-5.54-1.636-6.408-1.918-8.384-.032-.2.269-.378.367-.151,1.04,2.284,2.823,10.092,3.254,12.76C74.142,92.455,74.4,94.247,73.88,95.084ZM88.246,70.447a3.806,3.806,0,0,1-1.832.981.308.308,0,0,1-.162-.593c.3-.129.614-.226.916-.355a4.991,4.991,0,0,1,.9-.345A.188.188,0,0,1,88.246,70.447Zm1.983,1.175c-.117.335-.406,1.019-.755,1.088-.118.022-.277-.053-.258-.2a1.111,1.111,0,0,1,.3-.507,5.517,5.517,0,0,0,.367-.517C89.992,71.3,90.3,71.417,90.229,71.622Zm2.759,2.134a.215.215,0,0,1-.227.032c-.226-.108-.226-.388-.258-.614a5.454,5.454,0,0,1-.054-.852.22.22,0,0,1,.431-.053,5.384,5.384,0,0,1,.183.829C93.1,73.325,93.182,73.594,92.988,73.756Zm3.61-.647c-.315.245-.8-.567-1.078-.927-.162-.215.194-.474.367-.28C96.07,72.075,96.954,72.829,96.6,73.109Zm2.953-1.886c-.4-.183-.765-.42-1.142-.625a.236.236,0,0,1,.183-.431,4.755,4.755,0,0,1,1.261.55A.3.3,0,0,1,99.551,71.223Zm16.359,45.393c-.495,1.929-.937,4.16-2.112,5.809-.108.151-.4.118-.388-.108a15.836,15.836,0,0,1,.755-3.384c3.139-10.57,3.2-18.538,2.629-28.02-.021-.324.507-.388.561-.076C118.609,97.817,118.235,107.651,115.91,116.616Z" fill="#00349d"></path><path d="M80.756,98.575c1.617-.252,2.467-3.05,3.179-4.375,1.8-3.354,3.98-3.31,3.987-4.774a.353.353,0,0,0-.528-.3,6.014,6.014,0,0,0-1.131.83C82.5,92.807,82.7,95.12,81.435,97.045c-.262.4-.624.7-.927,1.078A.267.267,0,0,0,80.756,98.575Z" fill="#00349d"></path><path d="M87.125,94.663a33.935,33.935,0,0,0,5.82-4.893c.97-.979,1.218-1.178,1.25-1.842a.309.309,0,0,0-.388-.291c-.764.126-1.228.873-1.735,1.4-1.375,1.429-4.18,4.089-5.313,5.14C86.521,94.426,86.843,94.855,87.125,94.663Z" fill="#00349d"></path><path d="M90.315,94.706a19.719,19.719,0,0,0,5.582-4.44c.453-.5,1.135-1.078,1.1-1.81a.3.3,0,0,0-.378-.281c-.847.179-1,.993-3.168,3.061-1.115,1.062-2.291,2.056-3.47,3.039C89.728,94.487,90.046,94.837,90.315,94.706Z" fill="#00349d"></path><path d="M91.662,96.431c.958-.125,2.994-1.575,3.761-2.166a17.694,17.694,0,0,0,1.638-1.434c.412-.407,1.073-.934.938-1.584a.267.267,0,0,0-.248-.194c-.926-.079-1.1,1.321-4.623,3.75A10.38,10.38,0,0,0,91.4,96,.265.265,0,0,0,91.662,96.431Z" fill="#00349d"></path><path d="M96.921,94.534c-3.429,2.913-5.443,5.247-9.893,5.82-.765.1-2.516.305-2.285,1.422a.306.306,0,0,0,.216.216c.494.1.819-.216,1.282-.356,1.433-.432,5.32.106,11.122-6.66A.313.313,0,0,0,96.921,94.534Z" fill="#00349d"></path><path d="M83.935,102.671A4.215,4.215,0,0,0,82.6,100.8c-.788-.819-2.648-2.556-3.772-2.414a3.339,3.339,0,0,0-2.274,2.328c-.5,0-11.586,5.612-14.711,8.051-.58-3.51-1.713-7.886-2.662-11.284-.8-2.856-1.717-5.752-3.621-8.083-3.211-3.929-10.084-7.674-15.066-7a.237.237,0,0,0,0,.474,23.336,23.336,0,0,1,7.662,2.113,20.069,20.069,0,0,1,6.24,4.569A18.708,18.708,0,0,1,58.048,97.2a102.92,102.92,0,0,1,3.212,14.667.377.377,0,0,0,.754,0,7.148,7.148,0,0,0-.043-2.371c2.009-1,5.643-3.815,14.657-7.888A43.907,43.907,0,0,0,79.3,105.16c.181.228.538.539.506.862a2.83,2.83,0,0,1-.269.7,59.234,59.234,0,0,1-3.3,6.714c-3.667,6.326-8.251,10.539-11.348,12.329-2.186,1.263-2.724.769-3.837,1a.412.412,0,0,0-.1.744c.986.682,2.565.14,3.557-.3,2.622-1.17,6.236-4.6,8.2-6.951a48.787,48.787,0,0,0,7.253-12.178c.2-.475.453-.959.614-1.466.895.086,2.22-1.5,2.63-2.026A2.7,2.7,0,0,0,83.935,102.671Zm-1.121.668a8.175,8.175,0,0,1-1.455,1.746c-.17.153-.571.355-.5.592a.5.5,0,0,0-.334-.323,23.973,23.973,0,0,0-2.026-2.586,10.628,10.628,0,0,0-1.411-1.585,7.183,7.183,0,0,1,.571-1.045c1.112-1.219,1.408-1.087,2.565-.248a14.524,14.524,0,0,1,2.177,2.145C82.759,102.434,83.116,102.789,82.814,103.339Z" fill="#00349d"></path><path d="M149.977,50.467a7.55,7.55,0,0,1,4.688,2.209c1.875,1.661,1.217,3.217,2.026,4.214.259.319.873-.578.172-2.641a5.338,5.338,0,0,0-1.649-2.36c-1.656-1.42-3.172-2.415-5.3-1.94A.263.263,0,0,0,149.977,50.467Z" fill="#00349d"></path><path d="M153.49,53.2c-.379-.365-.959-.946-1.541-.8a.189.189,0,0,0-.13.227c.194.485.743.69,1.111,1.024a8.852,8.852,0,0,1,1.163,1.368c.141.194.5.086.421-.172A3.637,3.637,0,0,0,153.49,53.2Z" fill="#00349d"></path><path d="M151.1,55.4a.215.215,0,0,0,.335-.259,9.2,9.2,0,0,0-.8-1.207,1.9,1.9,0,0,0-.83-.787.156.156,0,0,0-.194.151,2.08,2.08,0,0,0,.582,1.078A10.794,10.794,0,0,0,151.1,55.4Z" fill="#00349d"></path><path d="M148.651,56.329c.224.143.5-.207.291-.377a2.314,2.314,0,0,1-.636-.787c-.173-.359-.213-1.192-.636-1.023l.011-.011c-.1.011-.151.108-.183.183a1.513,1.513,0,0,0,.291,1.153A2.729,2.729,0,0,0,148.651,56.329Z" fill="#00349d"></path><path d="M150.515,60.554a1.225,1.225,0,0,0-.722,1.433.186.186,0,0,0,.334.043,1.7,1.7,0,0,1,.518-.765.364.364,0,0,1,.539.173c.179.389.864.106.7-.291A1.067,1.067,0,0,0,150.515,60.554Z" fill="#00349d"></path><path d="M154.923,60.4c.068-.225.237-.5.485-.517s.41.2.561.366a.292.292,0,0,0,.5-.205.962.962,0,0,0-1.174-.765.916.916,0,0,0-.722,1.11A.185.185,0,0,0,154.923,60.4Z" fill="#00349d"></path><path d="M152.682,59.336a5.107,5.107,0,0,0,1.972,3.341c-.854.6-1.371.476-1.714.862-.388.438.93,1.007,2.447-.636a.324.324,0,0,0-.065-.495,6.055,6.055,0,0,1-2.252-3.126C153,59.1,152.66,59.1,152.682,59.336Z" fill="#00349d"></path><path d="M153.986,66.212c2.741-.267,2.912-1.493,2.306-1.509-.421-.011-.778.308-1.164.453-1.6.6-2.512.22-3.826.043-.172-.023-.366.172-.237.334.36,4.947,5.689,4.876,5.464.884-.022-.4-.658-.539-.733-.1a3.946,3.946,0,0,1-.42,1.7,1.5,1.5,0,0,1-1.681.475c-1.185-.337-1.692-1.552-2.1-2.619A4.659,4.659,0,0,0,153.986,66.212Z" fill="#00349d"></path><path d="M148.349,67.2a.273.273,0,0,0-.528.14c.99,4.606-.018,4.717.237,5.508a.36.36,0,0,0,.442.247c.871-.351.841-1.789.8-2.575A10.413,10.413,0,0,0,148.349,67.2Z" fill="#00349d"></path><path d="M158.264,63.615a26.362,26.362,0,0,0-.571-4.376,2.106,2.106,0,0,0-.507-1.228.276.276,0,0,0-.452.118c-.15.481.09.574.42,2.382.481,2.639.827,7.881-1.239,9.6a2.459,2.459,0,0,1-2.393.065,11.972,11.972,0,0,1-3.147-1.972,2.668,2.668,0,0,0-.829-.572c-.173-.054-.28.14-.216.281a3.332,3.332,0,0,0,.895.948,8.579,8.579,0,0,0,4.246,2.3,2.371,2.371,0,0,0,.1,1.282c.171.475.42,1.137.98,1.175a.319.319,0,0,0,.313-.313c.074-.567-.636-.773-.765-2.112a2.964,2.964,0,0,0,2.371-1.951A11.772,11.772,0,0,0,158.264,63.615Z" fill="#00349d"></path><path d="M49.966,116.8c-1.194-3.5-5.251-14.034-6.1-16.553-1.175-3.489-1.505-5-2.005-6.025a.227.227,0,0,0-.42.119,7.876,7.876,0,0,0,.248,1.563,4.364,4.364,0,0,0-2.252-.787,3.76,3.76,0,0,0-.119-.5c1.791-.693,2.319-.3,2.414-.754s.346-.965.1-1.39a.213.213,0,0,0-.291-.076,1.4,1.4,0,0,0-.442,1.067,7.385,7.385,0,0,0-1.907.582c-.453-.431-.907-.871-1.391-1.272-.129-.107-.376.043-.258.194.429.552,1.3,1.515,1.4,1.617-.3.3.246,5.226.312,5.938.177,1.887,1.27,13.3,1.649,17.1.054.539.9.55.852,0-.046-.485-.1-.97-.141-1.444.526.372,1.583.346,7.447,2.08a.411.411,0,0,0,.5-.194,2.1,2.1,0,0,0,.237.377c.174.215.492.021.507-.2A3.829,3.829,0,0,0,49.966,116.8ZM39.577,95.752a5.96,5.96,0,0,1,.97.3,4.4,4.4,0,0,0,.991.507c.559.089-.084-1.111,1.369,3.416a9.15,9.15,0,0,0-.97-.4,10.313,10.313,0,0,0-2-.712A30.216,30.216,0,0,0,39.577,95.752Zm.431,3.761a14.738,14.738,0,0,0,1.638.8,2.807,2.807,0,0,0,1.552.475c.581,1.714,2.129,5.87,2.22,6.143a26.483,26.483,0,0,0-4.979-2.986C40.428,103.838,40.07,100.289,40.008,99.513Zm1,10.238c-.119-1.218-.453-4.645-.507-5.141,4.358,2.869,4.907,3.577,5.314,3.374.261.685,1.578,4.066,1.81,4.763C45.482,111.889,41.4,109.653,41.01,109.751Zm2.425,6.154c-.141-.028-1.578-.416-1.843-.151-.173-1.811-.356-3.621-.528-5.442a41.44,41.44,0,0,0,5.615,3c1.2.525,1.138.567,1.39.668.215.571,1.207,3.362,1.229,3.416A57.349,57.349,0,0,0,43.435,115.905Z" fill="#b266ff"></path><path d="M52.143,129.57a4.763,4.763,0,0,0-.593.97,1.4,1.4,0,0,0-.226,1,.333.333,0,0,0,.549.14c.3-.243.178-.459.808-1.8A.312.312,0,0,0,52.143,129.57Z" fill="#b266ff"></path><path d="M53.6,50.273a14.271,14.271,0,0,1,6.186-4.7,18.93,18.93,0,0,0,2.468-.776.39.39,0,0,0-.087-.7,4.655,4.655,0,0,0-2.64.507,12.155,12.155,0,0,0-6.434,5.27C52.915,50.191,53.341,50.576,53.6,50.273Z" fill="#b266ff"></path><path d="M48.586,48.829a14.15,14.15,0,0,1,4.958-5.982,18.875,18.875,0,0,0,2.22-1.315.391.391,0,0,0-.27-.657c-.8-.094-1.833.688-2.457,1.1a12.036,12.036,0,0,0-5.054,6.6C47.888,48.926,48.405,49.185,48.586,48.829Z" fill="#b266ff"></path><path d="M189.712,58.474a5.752,5.752,0,0,0-4.15-3.212c-.387-.055-.571.485-.172.6a6.024,6.024,0,0,1,3.513,3.255c.994,2.057.89,4.209,1.38,5.722.076.237.505.3.549,0A12.243,12.243,0,0,0,189.712,58.474Z" fill="#b266ff"></path><path d="M194.831,60.608a7.913,7.913,0,0,0-2.781-5.022c-.312-.248-.756.164-.452.452A8.26,8.26,0,0,1,193.915,61c.334,2.58-.315,4.954-.216,6.563a.286.286,0,0,0,.56.075A15.809,15.809,0,0,0,194.831,60.608Z" fill="#b266ff"></path><path d="M60.107,125.82c-.058-.325-.567-.248-.561.075a18.142,18.142,0,0,1-1.034,7.253c-.776.076-1.563.151-2.339.216a1.318,1.318,0,0,0-.636-.841,3.562,3.562,0,0,0-2.834.011A6.389,6.389,0,0,0,50,132.512c-1.334.191-1.934.473-2.134,1.671a29.938,29.938,0,0,0-5.2,1.034.277.277,0,0,0-.183.14c-.407.058-2.2,1.531-6.51,3.578-.614.292-.171,1.233.453,1.078a98.208,98.208,0,0,1,11.628-1.854c.451,1.351,1.883.919,3.1.766,1.035-.131,2.069-.259,3.115-.388.786-.1,1.519-.227,1.886-1.024.118-.178-.343-.044,1.875-.291a3.191,3.191,0,0,0,1.25-.194,1.1,1.1,0,0,0,.42-.916,9.074,9.074,0,0,0-.118-2.511A13.59,13.59,0,0,0,60.107,125.82Zm-4.8,10.27c-.03,1.226-.382,1.44-1.2,1.541-1.293.162-2.585.336-3.88.485-.756.087-1.13.012-1.228-.776a13.619,13.619,0,0,1,.021-3.588c.355-.371,2.391-.509,3.513-.8.214.513.7-.044,1.994.28.369.037.49.094.539.388A7.077,7.077,0,0,1,55.311,136.09Z" fill="#00349d"></path><path d="M74.063,74.165a4.319,4.319,0,0,1-.129-2.64,1.014,1.014,0,0,1,.851-.539,1.194,1.194,0,0,1,1.477-1.239,1.5,1.5,0,0,1,2.22-1.24c.461-1.488,2.069-1.189,2.856.194a.218.218,0,0,1-.291.3c-.684-.342-1.754-1.716-1.973.388-.039.378-.647.55-.722.108-.129-.765-1.558-.717-1.39.948.044.431-.575.455-.711.108-.122-.311-.55-.054-.647.108a1.237,1.237,0,0,0-.064.83c.071.376-.466.69-.669.291-.119-.237-.3.15-.323.215a8.673,8.673,0,0,0,1.746,5.249,7,7,0,0,1,1.2,1.595.218.218,0,0,1-.269.269c-.851-.227-1.524-1.366-1.962-2.08A10.1,10.1,0,0,1,74.063,74.165Z" fill="#00349d"></path><path d="M81.273,71.363a.214.214,0,0,1,.42.054,10.955,10.955,0,0,0,.324,3.082c.441,1.7.95,1.967.808,2.555a.188.188,0,0,1-.226.14c-.431-.142-.574-.549-.744-.949A8.831,8.831,0,0,1,81.273,71.363Z" fill="#00349d"></path><path d="M79.4,72.689a15.246,15.246,0,0,0,1.659,4.871c.1.226.152.551-.14.647-.4.131-.62-.444-.743-.69a10.554,10.554,0,0,1-1.207-4.774C78.967,72.516,79.353,72.441,79.4,72.689Z" fill="#00349d"></path><path d="M77.3,74.111c.945,3.081,2.041,3.909,2.113,4.688.019.216-.217.294-.388.227-.738-.29-1.21-1.54-1.509-2.22a9.452,9.452,0,0,1-.69-2.63C76.811,73.907,77.22,73.864,77.3,74.111Z" fill="#00349d"></path><path d="M182.383,79.9l-.054-.2a52.733,52.733,0,0,0-5.518-.808l-.247.086c-1.24,1.552-1.563,3.653-2.662,5.313a14.543,14.543,0,0,0-3.912-5.766,11.036,11.036,0,0,1-1.089,2.328,5.1,5.1,0,0,1-2.6,2.554,1.313,1.313,0,0,1-1.272-.355,1.387,1.387,0,0,1-2.209-.539,1.4,1.4,0,0,1-1.768-1.078,1.183,1.183,0,0,1-.463.1,1.281,1.281,0,0,1-1.229-.959c-.267-1.054.386-1.462.819-3.1.59-2.233,0-2.926.572-3.6a17.336,17.336,0,0,0-4.537-.593c-4.15,3.19-7.319.8-8.18,0-.288-.266-.536-.086-.636-.086a8.947,8.947,0,0,1-.485,4.666,8.318,8.318,0,0,1,3.492,9.721,5.908,5.908,0,0,1,2.554,3.018,8.881,8.881,0,0,1,.129,5.377c3.095,1.288,4.7,6.256,1.423,11.629.226.711.442,1.422.646,2.144a73.971,73.971,0,0,1,7.695.4c1.315.117.808.28,2.123.388.28-.647.55-2.048.83-2.683.851,1.616,4.138,3.163,5.971,3.136a6.585,6.585,0,0,0,4.763-2.5C179.227,105.311,183.422,93.211,182.383,79.9Zm-15.605,23.742a23.058,23.058,0,0,1-.442,2.327.2.2,0,0,1-.366.043c-1.164-2.132,1.19-5.747,2.177-8.772,1.222-3.746-.063-4.644-.819-11.068-.032-.27.375-.29.441-.065.574,1.935,1.015,3.888,1.423,5.863C170.331,97.483,167.738,99.441,166.778,103.641Zm7.156-18.451c-.965,3.812-2.144,7.059-2.64,12.286-.325,3.412-.267,3.428-.475,3.847a.206.206,0,0,1-.355,0c-.533-1.189.381-10.954,3.028-16.316C173.62,84.748,174,84.932,173.934,85.19Z" fill="#b266ff"></path><path d="M169.192,77.409a4.319,4.319,0,0,0,.129-2.64,1.013,1.013,0,0,0-.851-.539,1.193,1.193,0,0,0-1.476-1.239,1.5,1.5,0,0,0-2.221-1.24c-.46-1.489-2.069-1.189-2.855.194a.218.218,0,0,0,.291.3c.683-.342,1.754-1.716,1.972.388.039.378.647.55.722.108.129-.765,1.559-.717,1.39.948-.044.431.575.454.711.108.122-.311.55-.054.647.108a1.244,1.244,0,0,1,.065.83c-.072.376.465.69.668.291.12-.237.3.15.323.215a8.669,8.669,0,0,1-1.746,5.248,7.082,7.082,0,0,0-1.2,1.595.218.218,0,0,0,.269.27c.852-.227,1.524-1.366,1.962-2.08A10.073,10.073,0,0,0,169.192,77.409Z" fill="#00349d"></path><path d="M161.971,74.607a.214.214,0,0,0-.42.054,10.954,10.954,0,0,1-.323,3.082c-.442,1.7-.951,1.967-.808,2.554a.187.187,0,0,0,.226.141c.43-.142.573-.549.743-.949A8.772,8.772,0,0,0,161.971,74.607Z" fill="#00349d"></path><path d="M163.857,75.933A15.22,15.22,0,0,1,162.2,80.8c-.1.226-.152.551.14.647.4.131.621-.444.743-.69a10.555,10.555,0,0,0,1.208-4.774C164.289,75.76,163.9,75.685,163.857,75.933Z" fill="#00349d"></path><path d="M165.948,77.355c-.944,3.081-2.041,3.909-2.112,4.688-.02.216.216.294.388.227.737-.29,1.209-1.54,1.509-2.22a8.726,8.726,0,0,0,.689-2.63C166.45,77.151,166.024,77.108,165.948,77.355Z" fill="#00349d"></path><path d="M60.678,113.168a.427.427,0,0,0-.56-.378c-.4.129-.593.539-.906.8-.937.8-2.569,1.256-3.685,2.058-1.234.889-1.711,2.094-2.641,3.115a5.6,5.6,0,0,1-.642.54c-1.053-.736-2.261-.346-3.453.128a9.334,9.334,0,0,0-2.015,1.034.535.535,0,0,0-.356-.172,87.422,87.422,0,0,0-13.945.733c-4.835.682-8.464,1.448-12.48,3.718a11.515,11.515,0,0,0-2.641,1.767.319.319,0,0,0,.3.529,11.168,11.168,0,0,0,1.293-.529c2.288-1.2,6.014-4.265,19.7-5.032,2.478-.141,4.946-.162,7.425-.2.766,2.01,2.71,7.282,2.91,7.587-2.733,1.4-9.929,7.551-17.674,9.936-8.772,2.705-14.818.7-19.022-3.5-4.936-4.947-6.348-12.082-6.2-18.839a36.639,36.639,0,0,1,5.551-19.366c5.1-7.723,10.621-11.771,16.37-13.988a.291.291,0,0,0-.151-.561c-8.6,1.928-17.512,12.5-20.563,21.112a41.934,41.934,0,0,0-2.144,10.411c-.593,7.026.409,14.6,4.892,20.3A17.666,17.666,0,0,0,17.538,140a19.887,19.887,0,0,0,10.241.668,29.324,29.324,0,0,0-2.439,5.443A131.642,131.642,0,0,0,20.4,164.7c-1.2,5.93-1.3,6.2-1.207,7.1.031.3.467.5.636.173.845-1.627,2.1-12.945,6.067-24.475a65.284,65.284,0,0,1,2.737-6.981c7.02-1.291,13.193-5.464,18.893-9.562a14.755,14.755,0,0,0,1.875-1.605.3.3,0,0,0,.022-.421.256.256,0,0,0,.1-.086c.212-.031,2.648-.725,2.748-.754a4.728,4.728,0,0,0,2-.905c1.283-1.175.421-3.341-.1-4.688a9.646,9.646,0,0,0-1.333-2.634c1.2-.676,2.015-2.605,3.349-3.477S60.8,114.6,60.678,113.168ZM53.4,122.932c.431,1.142,1.3,3.157-.119,3.9-1.016.536-2.969.763-3.9,1.174-.755-2.327-1.585-4.623-2.371-6.94,1.218-.506,2.511-1.315,3.836-1.336a1.8,1.8,0,0,1,1.606,1.121A13,13,0,0,1,53.4,122.932Z" fill="#00349d"></path><path d="M58.156,117.4c1.164-.428,2.773-1.6,4.958-1.929,2.455-.37,4.059.774,5.076-.022a.354.354,0,0,0-.119-.636,10.352,10.352,0,0,0-1.444-.118,9.32,9.32,0,0,0-4-.1,9.857,9.857,0,0,0-4.742,2.392A.254.254,0,0,0,58.156,117.4Z" fill="#00349d"></path><path d="M60.215,118.351a17.2,17.2,0,0,1,6.563-.129c.528.077,1.267.35,1.735-.022a.221.221,0,0,0,.065-.291c-.3-.586-1.239-.553-1.811-.625a12.371,12.371,0,0,0-6.692.615A.237.237,0,0,0,60.215,118.351Z" fill="#00349d"></path><path d="M60.657,120.151c1.925.209,3.629-.276,5.776.808.452.228.948.718,1.476.679a.306.306,0,0,0,.281-.323c-.049-.976-2.055-1.67-3.018-1.875a8.865,8.865,0,0,0-4.548.161C60.4,119.7,60.376,120.121,60.657,120.151Z" fill="#00349d"></path><path d="M66.95,123.363a5.545,5.545,0,0,0-2.425-1.089,6.149,6.149,0,0,0-2.564-.291c-.787.173-1.422.928-2.124,1.3-2.567,1.376-4.383.66-4.86,1.153-.863.893,2.6,1.462,5.776-.474.422-.257.788-.613,1.208-.851a2.493,2.493,0,0,1,1.562-.022c1.714.265,2.388.725,3.158.819A.318.318,0,0,0,66.95,123.363Z" fill="#00349d"></path></svg>