<?xml version="1.0" encoding="utf-8"?>
<!-- Generator: Adobe Illustrator 27.8.1, SVG Export Plug-In . SVG Version: 6.00 Build 0)  -->
<svg version="1.1" id="Layer_1" xmlns="http://www.w3.org/2000/svg" xmlns:xlink="http://www.w3.org/1999/xlink" x="0px" y="0px"
	 viewBox="0 0 98 30" style="enable-background:new 0 0 98 30;" xml:space="preserve">
<style type="text/css">
	.st0{fill:#FCFBF9;}
</style>
<path class="st0" d="M21.5,24.5c0.1,0.1,0,0.3-0.1,0.3l-0.5,0.3c-0.1,0.1-0.3,0-0.3-0.1l-0.9-1.7c-0.1-0.1-0.2-0.1-0.3-0.1
	c-1,0.5-2,0.8-3.1,0.9c-0.1,0-0.2,0.1-0.2,0.2v1.9c0,0.1-0.1,0.2-0.2,0.2h-0.6c-0.1,0-0.2-0.1-0.2-0.2v-1.9c0-0.1-0.1-0.2-0.2-0.2
	c-1.1-0.1-2.2-0.4-3.1-0.8c-0.1-0.1-0.2,0-0.3,0.1l-0.9,1.6c-0.1,0.1-0.2,0.2-0.3,0.1l-0.5-0.3c-0.1-0.1-0.2-0.2-0.1-0.3l0.9-1.6
	c0.1-0.1,0-0.2-0.1-0.3c-0.9-0.6-1.7-1.4-2.3-2.3c-0.1-0.1-0.2-0.1-0.3-0.1l-1.6,0.9c-0.1,0.1-0.3,0-0.3-0.1l-0.3-0.5
	c-0.1-0.1,0-0.3,0.1-0.3l1.6-0.9c0.1-0.1,0.1-0.2,0.1-0.3c-0.5-1-0.8-2.1-0.8-3.2c0-0.1-0.1-0.2-0.2-0.2H4.3c-0.1,0-0.2-0.1-0.2-0.2
	v-0.6c0-0.1,0.1-0.2,0.2-0.2h1.9c0.1,0,0.2-0.1,0.2-0.2c0.1-1.1,0.4-2.2,0.8-3.2c0.1-0.1,0-0.2-0.1-0.3L5.6,9.8
	C5.5,9.7,5.4,9.6,5.5,9.5L5.8,9C5.8,8.9,6,8.8,6.1,8.9l1.6,0.9C7.8,9.9,8,9.9,8,9.8c0.6-0.9,1.4-1.7,2.3-2.3
	c0.1-0.1,0.1-0.2,0.1-0.3L9.5,5.5c-0.1-0.1,0-0.3,0.1-0.3L10,4.9c0.1-0.1,0.3,0,0.3,0.1l0.9,1.6c0.1,0.1,0.2,0.2,0.3,0.1
	c1-0.5,2-0.8,3.1-0.8c0.1,0,0.2-0.1,0.2-0.2V3.7c0-0.1,0.1-0.2,0.2-0.2h0.6c0.1,0,0.2,0.1,0.2,0.2v1.9c0,0.1,0.1,0.2,0.2,0.2
	c1.1,0.1,2.2,0.4,3.1,0.9c0.1,0.1,0.2,0,0.3-0.1L20.6,5c0.1-0.1,0.2-0.2,0.3-0.1l0.5,0.3c0.1,0.1,0.2,0.2,0.1,0.3l-0.9,1.6
	c-0.1,0.1,0,0.2,0.1,0.3c0.5,0.3,0.9,0.7,1.3,1.1c0.3,0.3,0.8,0.3,1.1,0.1l3.2-2.7c0.3-0.3,0.4-0.8,0.1-1.1C23.2,1.4,19-0.2,14.6,0
	C7.4,0.4,1.3,6.2,0.7,13.9C0.1,22.8,7,29.9,15.5,30c4.3,0,8.1-1.9,10.7-4.7c0.4-0.4,0.3-1-0.1-1.3l-3.2-2.7c-0.3-0.2-0.7-0.2-0.9,0
	c-0.4,0.4-0.9,0.8-1.4,1.2c-0.1,0.1-0.1,0.2-0.1,0.3L21.5,24.5z"/>
<path class="st0" d="M15.6,16.4c-0.9,0-1.6-0.7-1.5-1.5c0-0.7,0.6-1.3,1.4-1.4c0.9,0,1.6,0.7,1.5,1.5C16.9,15.8,16.3,16.4,15.6,16.4
	z M16.6,10.7c-2.4-0.6-4.6,0.8-5.3,2.8c0,0.1,0,0.2,0.1,0.3l1.7,1c0.2,0.1,0.2,0.3,0,0.4l-1.7,1c-0.1,0.1-0.1,0.2-0.1,0.3
	c0.6,1.7,2.2,3,4.1,3c2.8,0,5-2.7,4.2-5.6C19.4,12.4,18,11,16.6,10.7z"/>
<path class="st0" d="M39.4,6.4c3.4,0,5.8,1.5,6.8,4.4c0.1,0.2,0,0.4-0.2,0.4l-2.8,1c-0.2,0.1-0.4,0-0.4-0.2
	c-0.6-1.7-1.6-2.6-3.5-2.6c-2.9,0-4.3,2.4-4.3,5.7c0,3.3,1.4,5.7,4.4,5.7c1.7,0,2.8-0.8,3.4-2.5c0.1-0.2,0.3-0.3,0.4-0.2l2.7,1
	c0.2,0.1,0.3,0.3,0.2,0.5c-1.1,2.6-3.4,4.2-6.8,4.2c-4.8,0-8-3.2-8-8.7C31.4,9.6,34.5,6.4,39.4,6.4z"/>
<path class="st0" d="M97.2,22.9c0.1,0.2,0,0.4-0.2,0.4c-0.7,0.2-1.5,0.4-2.3,0.4c-2.3,0-4-1-4-3.8l0-5.3c0-0.2-0.2-0.3-0.3-0.3
	l-1.2,0c-0.2,0-0.3-0.2-0.3-0.3l0-1.9c0-0.2,0.2-0.3,0.3-0.3l0.8,0c0.6,0,0.7-0.3,0.7-0.9l0-2.2c0-0.1,0.1-0.3,0.2-0.3L93.7,7
	c0.2-0.1,0.5,0.1,0.5,0.3l0,4c0,0.2,0.2,0.3,0.3,0.3l1.8,0c0.2,0,0.3,0.2,0.3,0.3l0,1.9c0,0.2-0.2,0.3-0.3,0.3l-1.8,0
	c-0.2,0-0.3,0.2-0.3,0.3l0,4.8c0,1.2,0.4,1.4,1,1.4c0.4,0,0.6-0.1,0.9-0.2c0.2-0.1,0.4,0,0.5,0.2L97.2,22.9z"/>
<path class="st0" d="M55.1,17.6c0-2-0.7-3.5-2.5-3.5c-1.7,0-2.4,1.5-2.4,3.5c0,2,0.7,3.5,2.4,3.5C54.4,21.1,55.1,19.6,55.1,17.6z
	 M58.6,17.6c0,3.8-2.4,6.1-5.9,6.1c-3.5,0-5.9-2.3-5.9-6.1c0-3.8,2.4-6.1,5.9-6.1C56.2,11.5,58.6,13.8,58.6,17.6z"/>
<path class="st0" d="M63,17.9c0,2.2,1.5,3.1,2.6,3.1c1.5,0,2.5-1.5,2.5-3.4c0-1.9-1-3.4-2.5-3.4c-1.2,0-2.6,0.9-2.6,3.1L63,17.9z
	 M71.7,17.6c0,3.8-2.2,6.1-5,6.1c-1.9,0-3.1-0.9-3.7-2l0,1.3c0,0.2-0.2,0.4-0.4,0.4l-2.6,0c-0.2,0-0.4-0.2-0.4-0.4l0-16.2
	c0-0.2,0.2-0.4,0.4-0.4l2.7,0c0.2,0,0.4,0.2,0.4,0.4l0,6.6c0.6-1,1.9-1.8,3.6-1.8C69.4,11.5,71.7,13.8,71.7,17.6z"/>
<path class="st0" d="M79.6,19.3l0-0.9c-2.3,0-3.8,0.4-3.8,1.8c0,0.7,0.7,1,1.5,1C78.4,21.2,79.6,20.5,79.6,19.3z M79.7,21.9
	C79,23,78,23.7,76.3,23.7c-2.4,0-3.9-1.3-3.9-3.3c0-3.1,3.4-4.1,7.2-4.1l0-0.8c0-0.9-0.5-1.5-1.6-1.5c-1,0-1.6,0.5-1.7,1
	c-0.1,0.2-0.3,0.3-0.5,0.3L73.4,15c-0.3,0-0.5-0.3-0.4-0.6c0.5-1.9,2.6-2.9,5-2.9c2.8,0,4.9,1.3,4.9,4.4l0,5.9
	c0,0.4,0.1,0.8,0.1,1.1c0.1,0.2-0.1,0.5-0.4,0.5l-2.5,0c-0.2,0-0.4-0.2-0.4-0.4C79.8,22.7,79.7,22.3,79.7,21.9z"/>
<path class="st0" d="M84.8,6.4l2.7,0c0.2,0,0.4,0.2,0.4,0.4l0,16.2c0,0.2-0.2,0.4-0.4,0.4l-2.7,0c-0.2,0-0.4-0.2-0.4-0.4l0-16.2
	C84.5,6.5,84.6,6.4,84.8,6.4z"/>
</svg>
