<svg width="98" height="30" viewBox="0 0 98 30" fill="none" xmlns="http://www.w3.org/2000/svg">
<path d="M21.5114 24.5299C21.5781 24.6471 21.5385 24.7969 21.423 24.8645L20.9375 25.1487C20.824 25.2152 20.6788 25.1758 20.6132 25.0607L19.6707 23.406C19.6093 23.2983 19.4767 23.2565 19.366 23.3101C18.4008 23.7764 17.3427 24.0765 16.226 24.1695C16.1031 24.1797 16.0084 24.2833 16.0084 24.4083V26.3108C16.0084 26.4441 15.9018 26.5521 15.7704 26.5521H15.211C15.0771 26.5521 14.9686 26.4421 14.9686 26.3064V24.4081C14.9686 24.2838 14.8742 24.1808 14.7519 24.171C13.6344 24.0813 12.5746 23.7854 11.6078 23.3221C11.4952 23.2681 11.3607 23.3106 11.2984 23.42L10.3663 25.0568C10.2995 25.174 10.1516 25.2142 10.036 25.1465L9.55095 24.8625C9.43724 24.796 9.3983 24.6486 9.46398 24.5333L10.3979 22.8932C10.4601 22.7841 10.4292 22.6449 10.3269 22.5732C9.42708 21.9426 8.64548 21.1516 8.02197 20.2404C7.95202 20.1382 7.81651 20.1074 7.7102 20.1696L6.09548 21.1147C5.98053 21.182 5.83358 21.1421 5.76721 21.0255L5.49011 20.539C5.42239 20.4202 5.46257 20.2682 5.57986 20.1995L7.1893 19.2575C7.29566 19.1952 7.33691 19.0607 7.28418 18.9483C6.8241 17.9674 6.52978 16.8914 6.43941 15.7566C6.42947 15.6317 6.32709 15.5353 6.20348 15.5353H4.34436C4.2105 15.5353 4.10199 15.4253 4.10199 15.2896V14.7218C4.10199 14.5889 4.20823 14.4812 4.33935 14.4812H6.20005C6.32559 14.4812 6.42955 14.3833 6.43968 14.2564C6.53024 13.1235 6.82414 12.0493 7.28325 11.0698C7.33641 10.9564 7.29485 10.8207 7.18757 10.758L5.57762 9.81541C5.46157 9.74746 5.42181 9.59699 5.4888 9.47937L5.76679 8.99135C5.83339 8.87443 5.98088 8.8344 6.09621 8.90188L7.71047 9.847C7.81655 9.90909 7.95179 9.87844 8.02159 9.7764C8.64552 8.86435 9.42785 8.07286 10.3285 7.44183C10.4299 7.37079 10.4605 7.23286 10.3989 7.12465L9.46413 5.48317C9.39838 5.36773 9.4374 5.22012 9.55126 5.15346L10.0364 4.86948C10.1518 4.80188 10.2994 4.84194 10.3661 4.95902L11.2997 6.59847C11.3612 6.70661 11.4942 6.74863 11.6055 6.69524C12.5723 6.23155 13.6323 5.9353 14.7501 5.84541C14.8733 5.83549 14.9686 5.73165 14.9686 5.60626V3.71238C14.9686 3.57524 15.0782 3.4641 15.2135 3.4641H15.7694C15.9014 3.4641 16.0084 3.57262 16.0084 3.70641V5.6079C16.0084 5.7329 16.1031 5.8365 16.226 5.84674C17.3415 5.93968 18.3986 6.23916 19.3629 6.70462C19.4754 6.7589 19.61 6.7166 19.6724 6.60722L20.6126 4.95652C20.6785 4.84085 20.8244 4.80125 20.9385 4.86803L21.4221 5.15111C21.5381 5.21906 21.5779 5.36953 21.5108 5.48723L20.5711 7.13711C20.5089 7.24626 20.5398 7.38532 20.6419 7.45721C21.1066 7.78439 21.5404 8.15358 21.9366 8.56045C22.2279 8.85959 22.6949 8.88661 23.0129 8.61688L26.2204 5.89688C26.5543 5.61379 26.5779 5.09268 26.2886 4.76091C23.184 1.42869 18.9778 -0.234152 14.6042 0.0265867C7.41796 0.439937 1.34315 6.16161 0.731102 13.8553C0.139245 22.7893 6.96532 29.9265 15.4761 30C19.7736 29.9503 23.5685 28.1421 26.1815 25.3472C26.539 24.9668 26.5021 24.3582 26.1046 24.0211L22.9418 21.339C22.6638 21.1033 22.2533 21.1244 22.0014 21.3885C21.5871 21.8228 21.1305 22.2153 20.6393 22.5608C20.5386 22.6316 20.5082 22.7687 20.5695 22.8763L21.5114 24.5299Z" fill="#FCFBF9"/>
<path d="M15.5607 16.4179C14.7089 16.4616 14.0093 15.7523 14.0524 14.8887C14.0893 14.1493 14.6819 13.5484 15.4113 13.5108C16.2631 13.467 16.963 14.1766 16.9197 15.0403C16.8827 15.7797 16.2901 16.3805 15.5607 16.4179ZM16.635 10.6615C14.2511 10.0482 12.0708 11.4126 11.3488 13.4768C11.3094 13.5897 11.3567 13.715 11.4589 13.7748L13.1333 14.7549C13.2924 14.848 13.2924 15.0807 13.1333 15.1738L11.4571 16.155C11.356 16.2141 11.309 16.3379 11.348 16.4495C11.9511 18.1771 13.5754 19.4151 15.4861 19.4151C18.2945 19.4151 20.487 16.7415 19.7223 13.7679C19.3734 12.411 17.9757 11.0064 16.635 10.6615Z" fill="#FCFBF9"/>
<path d="M39.4194 6.40941C42.7959 6.40462 45.2116 7.86428 46.2656 10.789C46.329 10.9647 46.2398 11.1587 46.0656 11.2206L43.2589 12.2189C43.0912 12.2785 42.9065 12.1879 42.8467 12.0182C42.2594 10.3528 41.2127 9.38091 39.3527 9.38357C36.4441 9.38769 35.014 11.7692 35.0186 15.077C35.0231 18.3605 36.4599 20.7622 39.3935 20.758C41.0947 20.7556 42.1924 19.9306 42.803 18.2836C42.8671 18.1108 43.0546 18.0205 43.2264 18.082L45.9563 19.0578C46.1417 19.1241 46.2317 19.3363 46.1529 19.5189C45.027 22.1276 42.7938 23.7272 39.3496 23.7322C34.516 23.739 31.3884 20.555 31.3808 15.0822C31.3733 9.63254 34.467 6.41648 39.4194 6.40941Z" fill="#FCFBF9"/>
<path d="M97.1511 22.8529C97.2042 23.0259 97.11 23.2172 96.9421 23.2794C96.2808 23.5244 95.4514 23.6709 94.641 23.6721C92.3753 23.6753 90.6859 22.6767 90.6821 19.8907L90.6748 14.6146C90.6745 14.4248 90.5226 14.2711 90.3353 14.2714L89.1092 14.2731C88.922 14.2734 88.77 14.1198 88.7697 13.93L88.7671 12.0514C88.7669 11.8616 88.9184 11.7075 89.1056 11.7073L89.9209 11.7061C90.5124 11.7053 90.6703 11.3874 90.6695 10.8162L90.6664 8.60413C90.6662 8.46899 90.7442 8.34635 90.8655 8.29059L93.6581 7.00808C93.8823 6.90507 94.1366 7.07106 94.1369 7.32059L94.1425 11.3564C94.1428 11.5462 94.2947 11.6998 94.4819 11.6996L96.2857 11.697C96.4729 11.6967 96.6249 11.8504 96.6252 12.0402L96.6278 13.9188C96.628 14.1086 96.4765 14.2626 96.2893 14.2629L94.4855 14.2655C94.2983 14.2658 94.1468 14.4198 94.147 14.6096L94.1537 19.4216C94.1553 20.5939 94.5642 20.8134 95.144 20.8126C95.5079 20.8121 95.7813 20.7074 96.0427 20.5783C96.2299 20.4858 96.4544 20.582 96.5163 20.7836L97.1511 22.8529Z" fill="#FCFBF9"/>
<path d="M55.1468 17.6195C55.144 15.6559 54.4006 14.1298 52.679 14.1322C50.9812 14.1347 50.2421 15.6629 50.2448 17.6265C50.2475 19.5902 50.9909 21.1164 52.6887 21.114C54.4103 21.1115 55.1495 19.5832 55.1468 17.6195ZM58.6379 17.6146C58.6431 21.3963 56.2551 23.727 52.6923 23.7321C49.1533 23.7371 46.7589 21.4132 46.7537 17.6315C46.7485 13.8497 49.1364 11.519 52.6754 11.514C56.2381 11.5089 58.6326 13.8328 58.6379 17.6146Z" fill="#FCFBF9"/>
<path d="M63.0471 17.9469C63.0502 20.153 64.5101 21.0236 65.6817 21.0219C67.2121 21.0197 68.1665 19.5638 68.1638 17.6002C68.1611 15.6609 67.2025 14.1833 65.6722 14.1855C64.4766 14.1872 63.0431 15.0863 63.0462 17.2923L63.0471 17.9469ZM71.6789 17.5951C71.6842 21.377 69.4635 23.7074 66.6419 23.7114C64.7051 23.7141 63.556 22.7703 62.9567 21.7046L62.9585 23.008C62.9588 23.2119 62.7959 23.3774 62.5948 23.3777L60.0291 23.3814C59.8116 23.3817 59.6351 23.2032 59.6347 22.9827L59.6123 6.77505C59.612 6.57483 59.7718 6.41224 59.9693 6.41198L62.6964 6.40807C62.8944 6.40781 63.0553 6.57036 63.0555 6.77123L63.0647 13.3409C63.7088 12.2974 64.9751 11.4957 66.625 11.4933C69.4466 11.4893 71.6737 13.8376 71.6789 17.5951Z" fill="#FCFBF9"/>
<path d="M79.6184 19.2819L79.6172 18.4092C77.2978 18.4125 75.768 18.7783 75.7699 20.16C75.7708 20.8631 76.4409 21.2015 77.2538 21.2004C78.4494 21.1986 79.6201 20.494 79.6184 19.2819ZM79.7178 21.8998C79.0497 22.9917 78.0463 23.6962 76.3486 23.6986C73.9097 23.7021 72.4253 22.4435 72.4225 20.3587C72.4182 17.2799 75.8362 16.3054 79.6142 16.3001L79.6132 15.5485C79.612 14.6758 79.0851 14.0463 77.9852 14.0478C76.9954 14.0493 76.4324 14.5319 76.2684 15.0968C76.2096 15.2994 76.0091 15.4243 75.8032 15.3926L73.4418 15.0291C73.1513 14.9843 72.9649 14.6922 73.0428 14.405C73.5542 12.5198 75.6048 11.4816 78.0772 11.478C80.8511 11.4741 82.9809 12.7317 82.9853 15.8347L82.9934 21.7255C82.994 22.1636 83.0443 22.5511 83.1187 22.8751C83.1744 23.118 82.9921 23.3497 82.7461 23.3501L80.2605 23.3536C80.0436 23.3539 79.8564 23.1993 79.8135 22.9838C79.756 22.6954 79.7183 22.2929 79.7178 21.8998Z" fill="#FCFBF9"/>
<path d="M84.8359 6.37723L87.5434 6.37336C87.7465 6.37306 87.9115 6.53982 87.9118 6.7458L87.9343 22.9694C87.9346 23.1754 87.7701 23.3426 87.5669 23.3429L84.8594 23.3467C84.6562 23.347 84.4913 23.1803 84.491 22.9743L84.4685 6.75069C84.4682 6.54472 84.6327 6.37753 84.8359 6.37723Z" fill="#FCFBF9"/>
</svg>
