<?xml version="1.0" encoding="utf-8"?>
<!-- Generator: Adobe Illustrator 27.8.1, SVG Export Plug-In . SVG Version: 6.00 Build 0)  -->
<svg version="1.1" id="Layer_1" xmlns="http://www.w3.org/2000/svg" xmlns:xlink="http://www.w3.org/1999/xlink" x="0px" y="0px"
	 viewBox="0 0 395 60" style="enable-background:new 0 0 395 60;" xml:space="preserve">
<style type="text/css">
	.st0{fill:#FFFFFF;}
</style>
<path class="st0" d="M41.5,49.1c0.1,0.2,0.1,0.5-0.2,0.7l-1,0.6c-0.2,0.1-0.5,0.1-0.6-0.2l-1.9-3.3c-0.1-0.2-0.4-0.3-0.6-0.2
	c-1.9,0.9-4,1.5-6.3,1.7c-0.2,0-0.4,0.2-0.4,0.5v3.8c0,0.3-0.2,0.5-0.5,0.5h-1.1c-0.3,0-0.5-0.2-0.5-0.5v-3.8c0-0.2-0.2-0.5-0.4-0.5
	c-2.2-0.2-4.3-0.8-6.3-1.7c-0.2-0.1-0.5,0-0.6,0.2l-1.9,3.3c-0.1,0.2-0.4,0.3-0.7,0.2l-1-0.6c-0.2-0.1-0.3-0.4-0.2-0.7l1.9-3.3
	c0.1-0.2,0.1-0.5-0.1-0.6c-1.8-1.3-3.3-2.8-4.6-4.7c-0.1-0.2-0.4-0.3-0.6-0.1l-3.2,1.9c-0.2,0.1-0.5,0.1-0.7-0.2l-0.6-1
	c-0.1-0.2-0.1-0.5,0.2-0.7l3.2-1.9c0.2-0.1,0.3-0.4,0.2-0.6c-0.9-2-1.5-4.1-1.7-6.4c0-0.2-0.2-0.4-0.5-0.4H7.3
	c-0.3,0-0.5-0.2-0.5-0.5v-1.1C6.8,29.2,7,29,7.3,29H11c0.3,0,0.5-0.2,0.5-0.5c0.2-2.3,0.8-4.4,1.7-6.4c0.1-0.2,0-0.5-0.2-0.6
	l-3.2-1.9c-0.2-0.1-0.3-0.4-0.2-0.7l0.6-1c0.1-0.2,0.4-0.3,0.7-0.2l3.2,1.9c0.2,0.1,0.5,0.1,0.6-0.1c1.2-1.8,2.8-3.4,4.6-4.7
	c0.2-0.1,0.3-0.4,0.1-0.6L17.5,11c-0.1-0.2-0.1-0.5,0.2-0.7l1-0.6c0.2-0.1,0.5-0.1,0.7,0.2l1.9,3.3c0.1,0.2,0.4,0.3,0.6,0.2
	c1.9-0.9,4-1.5,6.3-1.7c0.2,0,0.4-0.2,0.4-0.5V7.4c0-0.3,0.2-0.5,0.5-0.5h1.1c0.3,0,0.5,0.2,0.5,0.5v3.8c0,0.2,0.2,0.5,0.4,0.5
	c2.2,0.2,4.3,0.8,6.2,1.7c0.2,0.1,0.5,0,0.6-0.2l1.9-3.3c0.1-0.2,0.4-0.3,0.6-0.2l1,0.6c0.2,0.1,0.3,0.4,0.2,0.7l-1.9,3.3
	c-0.1,0.2-0.1,0.5,0.1,0.6c0.9,0.7,1.8,1.4,2.6,2.2c0.6,0.6,1.5,0.7,2.1,0.1l6.4-5.4c0.7-0.6,0.7-1.6,0.1-2.3
	c-6.2-6.7-14.6-10-23.3-9.5C13.4,0.9,1.3,12.3,0.1,27.7C-1.1,45.6,12.5,59.8,29.4,60c8.6-0.1,16.1-3.7,21.3-9.3
	c0.7-0.8,0.6-2-0.2-2.6l-6.3-5.4c-0.6-0.5-1.4-0.4-1.9,0.1c-0.8,0.9-1.7,1.7-2.7,2.3c-0.2,0.1-0.3,0.4-0.1,0.6L41.5,49.1z"/>
<path class="st0" d="M29.6,32.8c-1.7,0.1-3.1-1.3-3-3.1c0.1-1.5,1.3-2.7,2.7-2.8c1.7-0.1,3.1,1.3,3,3.1
	C32.3,31.6,31.1,32.8,29.6,32.8z M31.8,21.3c-4.8-1.2-9.1,1.5-10.5,5.6c-0.1,0.2,0,0.5,0.2,0.6l3.3,2c0.3,0.2,0.3,0.6,0,0.8l-3.3,2
	c-0.2,0.1-0.3,0.4-0.2,0.6c1.2,3.5,4.4,5.9,8.2,5.9c5.6,0,10-5.4,8.4-11.3C37.2,24.8,34.4,22,31.8,21.3z"/>
<path class="st0" d="M71.6,48V11.6h13.6c8.4,0,12.8,5.1,12.8,12c0,7-4.5,12-12.9,12h-7V48H71.6z M78.2,30.3h6.1
	c4.9,0,7.1-2.8,7.1-6.6c0-3.9-2.2-6.5-7.1-6.5h-6V30.3z M103.5,48V20.7h6.2v4.5h0.3c1-3.2,3.6-4.9,6.7-4.9c0.7,0,1.7,0.1,2.3,0.2
	v5.9c-0.5-0.2-1.9-0.4-3-0.4c-3.5,0-6.1,2.5-6.1,5.9v16H103.5z M134.1,48.5c-8,0-13.1-5.6-13.1-14.1c0-8.5,5.1-14.1,13.1-14.1
	c8,0,13.1,5.6,13.1,14.1C147.1,42.9,142.1,48.5,134.1,48.5z M134.1,43.4c4.3,0,6.5-3.9,6.5-8.9c0-5-2.2-9-6.5-9c-4.4,0-6.6,4-6.6,9
	C127.5,39.4,129.7,43.4,134.1,43.4z M162.7,48.5c-6.4,0-11.2-5.1-11.2-14.1c0-9.1,5-14,11.3-14c4.8,0,6.8,2.9,7.8,4.9h0.3V11.6h6.4
	V48h-6.3v-4.3h-0.4C169.5,45.7,167.4,48.5,162.7,48.5z M164.5,43.2c4.1,0,6.4-3.6,6.4-8.8s-2.3-8.7-6.4-8.7c-4.3,0-6.5,3.6-6.5,8.7
	C158,39.5,160.3,43.2,164.5,43.2z M201.5,36.5V20.7h6.4V48h-6.2v-4.8h-0.3c-1.2,3.1-4.1,5.2-8.2,5.2c-5.4,0-9.1-3.7-9.1-10.3V20.7
	h6.4v16.4c0,3.5,2.1,5.6,5.1,5.6C198.5,42.7,201.5,40.7,201.5,36.5z M226.4,48.5c-8.2,0-13.1-5.8-13.1-14.1c0-8.3,5-14.1,13-14.1
	c6.7,0,11.3,3.9,11.7,9.8H232c-0.5-2.6-2.4-4.6-5.5-4.6c-4,0-6.6,3.3-6.6,8.8c0,5.6,2.6,8.9,6.6,8.9c2.8,0,4.9-1.7,5.5-4.6h6.1
	C237.6,44.5,233.3,48.5,226.4,48.5z M257,20.7v5h-5.4v14.1c0,2.6,1.3,3.2,2.9,3.2c0.8,0,1.5-0.2,1.9-0.2l1.1,5
	c-0.7,0.2-2,0.6-3.8,0.6c-4.8,0.1-8.6-2.4-8.5-7.5V25.7h-3.9v-5h3.9v-6.5h6.4v6.5H257z M287.4,48h-12.3V11.6h12.6
	c10.8,0,17.4,6.8,17.4,18.1C305,41.1,298.5,48,287.4,48z M281.6,42.3h5.4c7.6,0,11.4-4.2,11.4-12.5c0-8.3-3.9-12.4-11.2-12.4h-5.6
	V42.3z M322.9,48.5c-8,0-13.1-5.6-13.1-14.1c0-8.5,5.1-14.1,13.1-14.1S336,26,336,34.5C336,42.9,330.9,48.5,322.9,48.5z M322.9,43.4
	c4.4,0,6.5-3.9,6.5-8.9c0-5-2.2-9-6.5-9c-4.4,0-6.6,4-6.6,9C316.3,39.4,318.5,43.4,322.9,43.4z M353.3,48.5
	c-8.2,0-13.1-5.8-13.1-14.1c0-8.3,5-14.1,13-14.1c6.7,0,11.3,3.9,11.7,9.8h-6.1c-0.5-2.6-2.4-4.6-5.5-4.6c-4,0-6.6,3.3-6.6,8.8
	c0,5.6,2.6,8.9,6.6,8.9c2.8,0,4.9-1.7,5.5-4.6h6.1C364.5,44.5,360.2,48.5,353.3,48.5z M391.8,27.9l-5.9,0.6c-0.5-1.8-2.1-3.4-5-3.4
	c-2.7,0-4.7,1.3-4.7,3.1c0,1.6,1.1,2.5,3.9,3.2l4.7,1c5.1,1.1,7.7,3.5,7.7,7.4c0,5.2-4.8,8.7-11.6,8.7c-6.7,0-10.9-3-11.7-8l6.3-0.6
	c0.5,2.5,2.5,3.7,5.4,3.7c3.1,0,5.1-1.4,5.1-3.3c0-1.5-1.2-2.6-3.7-3.1l-4.7-1c-5.2-1.1-7.7-3.7-7.7-7.7c0-5,4.5-8.3,11-8.3
	C387.3,20.4,390.9,23.3,391.8,27.9z"/>
</svg>
